<?xml version="1.0" encoding="UTF-8"?>
<!DOCTYPE svg PUBLIC "-//W3C//DTD SVG 1.1//EN" "http://www.w3.org/Graphics/SVG/1.1/DTD/svg11.dtd">
<!-- Creator: CorelDRAW X7 -->
<svg xmlns="http://www.w3.org/2000/svg" xml:space="preserve" width="69.773mm" height="10.3113mm" version="1.1" style="shape-rendering:geometricPrecision; text-rendering:geometricPrecision; image-rendering:optimizeQuality; fill-rule:evenodd; clip-rule:evenodd"
viewBox="0 0 250014 36948"
 xmlns:xlink="http://www.w3.org/1999/xlink">
 <defs>
  <style type="text/css">
   <![CDATA[
    .fil0 {fill:#FEFEFE;fill-rule:nonzero}
    .fil1 {fill:#1DDD6D;fill-rule:nonzero}
   ]]>
  </style>
 </defs>
 <g id="Слой_x0020_1">
  <metadata id="CorelCorpID_0Corel-Layer"/>
  <path class="fil0" d="M410 10770c-112,0 -208,-38 -289,-114 -81,-76 -121,-174 -121,-296l0 -9799c0,-111 40,-207 121,-288 81,-81 177,-121 289,-121l9222 0c112,0 208,40 289,121 81,81 121,177 121,288l0 9799c0,111 -40,208 -121,288 -81,81 -177,122 -289,122l-2973 0c-111,0 -207,-41 -288,-122 -81,-80 -121,-177 -121,-288l0 -6871 -2457 0 0 6871c0,111 -41,208 -122,288 -81,81 -177,122 -288,122l-2973 0zm20781 -10618c101,0 185,33 250,98 66,66 99,139 99,220 0,91 -30,207 -91,349l-2943 6856c-364,850 -720,1490 -1069,1919 -349,430 -781,733 -1297,910 -516,177 -1209,266 -2078,266l-986 0c-111,0 -207,-41 -288,-122 -81,-80 -122,-177 -122,-288l0 -2427c0,-111 41,-207 122,-288 81,-81 177,-121 288,-121l622 0c343,0 611,-66 804,-198l-3520 -6704c-20,-41 -30,-76 -30,-106 0,-91 41,-175 121,-251 81,-75 172,-113 273,-113l3171 0c121,0 217,30 288,91 71,60 136,151 197,273l1381 2988 1304 -2988c91,-243 263,-364 516,-364l2988 0zm7751 10618c-111,0 -207,-41 -288,-122 -81,-80 -121,-177 -121,-288l0 -6871 -2003 0 0 470c0,1780 -108,3137 -326,4073 -217,935 -662,1626 -1334,2070 -673,445 -1702,668 -3087,668 -112,0 -210,-41 -296,-122 -86,-80 -129,-177 -129,-288l0 -2397c0,-222 136,-358 410,-409 465,-91 768,-495 910,-1213 141,-719 212,-1674 212,-2867l0 -2913c0,-111 40,-207 121,-288 81,-81 177,-121 288,-121l8616 0c112,0 208,40 289,121 81,81 121,177 121,288l0 9799c0,111 -40,208 -121,288 -81,81 -177,122 -289,122l-2973 0zm5461 0c-111,0 -207,-41 -288,-122 -81,-80 -121,-177 -121,-288l0 -9799c0,-111 40,-207 121,-288 81,-81 177,-121 288,-121l2973 0c112,0 208,40 289,121 81,81 121,177 121,288l0 2897 986 0c1497,0 2644,299 3443,895 799,597 1199,1497 1199,2700 0,1204 -405,2124 -1214,2761 -809,637 -1952,956 -3428,956l-4369 0zm4369 -2822c232,0 407,-81 523,-242 116,-162 175,-369 175,-622 0,-263 -69,-465 -205,-607 -137,-141 -301,-212 -493,-212l-986 0 0 1683 986 0zm8677 2822c-112,0 -208,-41 -288,-122 -81,-80 -122,-177 -122,-288l0 -6947 -2518 0c-111,0 -207,-40 -288,-121 -81,-81 -121,-177 -121,-289l0 -2442c0,-111 40,-207 121,-288 81,-81 177,-121 288,-121l8889 0c111,0 207,40 288,121 81,81 122,177 122,288l0 2442c0,112 -41,208 -122,289 -81,81 -177,121 -288,121l-2518 0 0 6947c0,111 -40,208 -121,288 -81,81 -177,122 -288,122l-3034 0zm12256 151c-1517,0 -2725,-348 -3625,-1046 -900,-698 -1381,-1714 -1442,-3049 -10,-273 -15,-713 -15,-1320 0,-617 5,-1067 15,-1350 31,-869 261,-1618 691,-2245 430,-627 1019,-1102 1767,-1426 748,-323 1618,-485 2609,-485 991,0 1861,162 2609,485 748,324 1337,799 1767,1426 430,627 660,1376 691,2245 20,566 30,1016 30,1350 0,334 -10,774 -30,1320 -61,1335 -542,2351 -1442,3049 -900,698 -2108,1046 -3625,1046zm0 -2958c344,0 614,-101 811,-303 198,-202 301,-510 311,-925 21,-587 31,-1016 31,-1290 0,-293 -10,-713 -31,-1259 -10,-414 -116,-722 -318,-925 -202,-202 -470,-303 -804,-303 -334,0 -602,101 -804,303 -202,203 -308,511 -318,925 -11,273 -16,693 -16,1259 0,567 5,997 16,1290 10,415 113,723 311,925 197,202 467,303 811,303zm6871 2807c-111,0 -207,-41 -288,-122 -81,-80 -121,-177 -121,-288l0 -9799c0,-111 40,-207 121,-288 81,-81 177,-121 288,-121l5037 0c1435,0 2495,263 3178,788 682,526 1023,1325 1023,2397 0,435 -126,822 -379,1160 -253,339 -531,584 -834,736 404,162 746,448 1024,857 278,410 417,857 417,1343 0,1122 -364,1959 -1092,2510 -728,551 -1790,827 -3186,827l-5188 0zm4658 -6629c202,0 356,-68 462,-205 106,-136 159,-296 159,-478 0,-182 -53,-343 -159,-485 -106,-142 -260,-212 -462,-212l-1275 0 0 1380 1275 0zm136 4020c233,0 407,-76 523,-228 117,-152 175,-323 175,-516 0,-192 -64,-364 -190,-515 -126,-152 -296,-228 -508,-228l-1411 0 0 1487 1411 0zm5430 2609c-91,0 -169,-33 -235,-99 -66,-66 -98,-144 -98,-235 0,-40 5,-76 15,-106l3383 -9678c40,-131 116,-248 227,-349 111,-101 263,-151 455,-151l3292 0c192,0 343,50 455,151 111,101 187,218 227,349l3383 9678c10,30 15,66 15,106 0,91 -33,169 -99,235 -65,66 -144,99 -235,99l-2806 0c-303,0 -501,-127 -592,-379l-363 -1001 -3262 0 -364 1001c-91,252 -288,379 -591,379l-2807 0zm4536 -4338l1714 0 -865 -2822 -849 2822zm15032 4489c-1517,0 -2725,-348 -3625,-1046 -900,-698 -1381,-1714 -1441,-3049 -11,-273 -16,-713 -16,-1320 0,-617 5,-1067 16,-1350 30,-869 260,-1618 690,-2245 430,-627 1019,-1102 1767,-1426 748,-323 1618,-485 2609,-485 991,0 1861,162 2609,485 748,324 1337,799 1767,1426 430,627 660,1376 691,2245 20,566 30,1016 30,1350 0,334 -10,774 -30,1320 -61,1335 -541,2351 -1442,3049 -900,698 -2108,1046 -3625,1046zm0 -2958c344,0 614,-101 811,-303 198,-202 301,-510 311,-925 21,-587 31,-1016 31,-1290 0,-293 -10,-713 -31,-1259 -10,-414 -116,-722 -318,-925 -202,-202 -470,-303 -804,-303 -334,0 -602,101 -804,303 -202,203 -308,511 -318,925 -10,273 -15,693 -15,1259 0,567 5,997 15,1290 10,415 113,723 311,925 197,202 467,303 811,303zm5961 2807c-91,0 -169,-33 -235,-99 -65,-66 -98,-144 -98,-235 0,-61 15,-116 45,-167l3186 -4930 -2867 -4687c-31,-60 -46,-116 -46,-167 0,-91 33,-169 99,-235 66,-65 144,-98 235,-98l3292 0c283,0 495,126 637,379l1062 1850 1152 -1850c142,-253 354,-379 637,-379l3140 0c91,0 170,33 236,98 65,66 98,144 98,235 0,61 -15,117 -45,167l-2928 4642 3231 4975c30,51 46,106 46,167 0,91 -33,169 -99,235 -66,66 -144,99 -235,99l-3413 0c-273,0 -481,-117 -622,-349l-1320 -2033 -1259 2033c-142,232 -349,349 -622,349l-3307 0zm16504 151c-1517,0 -2725,-348 -3625,-1046 -900,-698 -1380,-1714 -1441,-3049 -10,-273 -15,-713 -15,-1320 0,-617 5,-1067 15,-1350 30,-869 260,-1618 690,-2245 430,-627 1019,-1102 1767,-1426 749,-323 1618,-485 2609,-485 991,0 1861,162 2609,485 749,324 1338,799 1768,1426 429,627 659,1376 690,2245 20,566 30,1016 30,1350 0,334 -10,774 -30,1320 -61,1335 -541,2351 -1441,3049 -901,698 -2109,1046 -3626,1046zm0 -2958c344,0 615,-101 812,-303 197,-202 301,-510 311,-925 20,-587 30,-1016 30,-1290 0,-293 -10,-713 -30,-1259 -10,-414 -116,-722 -319,-925 -202,-202 -470,-303 -804,-303 -334,0 -602,101 -804,303 -202,203 -308,511 -318,925 -10,273 -15,693 -15,1259 0,567 5,997 15,1290 10,415 113,723 311,925 197,202 467,303 811,303zm6872 2807c-111,0 -207,-41 -288,-122 -81,-80 -122,-177 -122,-288l0 -9799c0,-111 41,-207 122,-288 81,-81 177,-121 288,-121l4596 0c1416,0 2531,313 3345,940 814,627 1221,1552 1221,2776 0,1213 -405,2116 -1214,2708 -809,591 -1926,887 -3352,887l-1062 0 0 2897c0,111 -40,208 -121,288 -81,81 -177,122 -288,122l-3125 0zm4520 -6113c182,0 344,-69 485,-205 142,-137 213,-341 213,-614 0,-233 -56,-435 -167,-607 -111,-172 -288,-258 -531,-258l-1062 0 0 1684 1062 0zm10558 6264c-1517,0 -2725,-348 -3626,-1046 -900,-698 -1380,-1714 -1441,-3049 -10,-273 -15,-713 -15,-1320 0,-617 5,-1067 15,-1350 31,-869 261,-1618 690,-2245 430,-627 1019,-1102 1768,-1426 748,-323 1618,-485 2609,-485 991,0 1860,162 2609,485 748,324 1337,799 1767,1426 430,627 660,1376 690,2245 20,566 30,1016 30,1350 0,334 -10,774 -30,1320 -61,1335 -541,2351 -1441,3049 -900,698 -2108,1046 -3625,1046zm0 -2958c344,0 614,-101 811,-303 198,-202 301,-510 311,-925 21,-587 31,-1016 31,-1290 0,-293 -10,-713 -31,-1259 -10,-414 -116,-722 -318,-925 -202,-202 -470,-303 -804,-303 -334,0 -602,101 -804,303 -203,203 -309,511 -319,925 -10,273 -15,693 -15,1259 0,567 5,997 15,1290 10,415 114,723 311,925 197,202 468,303 812,303zm6871 2807c-111,0 -207,-38 -288,-114 -81,-76 -121,-174 -121,-296l0 -9799c0,-111 40,-207 121,-288 81,-81 177,-121 288,-121l2974 0c111,0 207,40 288,121 81,81 121,177 121,288l0 3186 2458 0 0 -3186c0,-111 40,-207 121,-288 81,-81 177,-121 288,-121l2973 0c111,0 207,40 288,121 81,81 122,177 122,288l0 9799c0,111 -41,208 -122,288 -81,81 -177,122 -288,122l-2973 0c-111,0 -207,-41 -288,-122 -81,-80 -121,-177 -121,-288l0 -3276 -2458 0 0 3276c0,111 -40,208 -121,288 -81,81 -177,122 -288,122l-2974 0zm10800 0c-91,0 -169,-33 -235,-99 -65,-66 -98,-144 -98,-235 0,-40 5,-76 15,-106l3383 -9678c40,-131 116,-248 227,-349 111,-101 263,-151 455,-151l3292 0c192,0 344,50 455,151 111,101 187,218 228,349l3382 9678c10,30 15,66 15,106 0,91 -32,169 -98,235 -66,66 -144,99 -235,99l-2807 0c-303,0 -500,-127 -591,-379l-364 -1001 -3262 0 -364 1001c-91,252 -288,379 -591,379l-2807 0zm4536 -4338l1714 0 -864 -2822 -850 2822zm20630 3837c30,41 45,96 45,167 0,91 -33,169 -98,235 -66,66 -144,99 -236,99l-3458 0c-172,0 -303,-36 -394,-106 -91,-71 -167,-152 -228,-243l-1866 -3337 -364 0 0 3276c0,111 -40,208 -121,288 -81,81 -177,122 -288,122l-2974 0c-111,0 -207,-38 -288,-114 -81,-76 -121,-174 -121,-296l0 -9799c0,-111 40,-207 121,-288 81,-81 177,-121 288,-121l2974 0c111,0 207,40 288,121 81,81 121,177 121,288l0 3186 243 0 1851 -3262c121,-222 323,-333 606,-333l3353 0c91,0 169,33 235,98 65,66 98,144 98,235 0,61 -15,117 -45,167l-2730 4581 2988 5036zm1441 501c-111,0 -207,-41 -288,-122 -81,-80 -122,-177 -122,-288l0 -9799c0,-111 41,-207 122,-288 81,-81 177,-121 288,-121l5036 0c1436,0 2495,263 3178,788 683,526 1024,1325 1024,2397 0,435 -127,822 -379,1160 -253,339 -531,584 -835,736 405,162 746,448 1024,857 278,410 417,857 417,1343 0,1122 -364,1959 -1092,2510 -728,551 -1790,827 -3185,827l-5188 0zm4657 -6629c202,0 356,-68 463,-205 106,-136 159,-296 159,-478 0,-182 -53,-343 -159,-485 -107,-142 -261,-212 -463,-212l-1274 0 0 1380 1274 0zm136 4020c233,0 407,-76 524,-228 116,-152 174,-323 174,-516 0,-192 -63,-364 -189,-515 -127,-152 -296,-228 -509,-228l-1410 0 0 1487 1410 0zm5430 2609c-91,0 -169,-33 -235,-99 -65,-66 -98,-144 -98,-235 0,-40 5,-76 15,-106l3383 -9678c40,-131 116,-248 227,-349 112,-101 263,-151 455,-151l3292 0c192,0 344,50 455,151 111,101 187,218 228,349l3382 9678c10,30 15,66 15,106 0,91 -32,169 -98,235 -66,66 -144,99 -235,99l-2807 0c-303,0 -500,-127 -591,-379l-364 -1001 -3261 0 -365 1001c-91,252 -288,379 -591,379l-2807 0zm4536 -4338l1714 0 -864 -2822 -850 2822zm7827 4338c-111,0 -207,-41 -288,-122 -81,-80 -122,-177 -122,-288l0 -9799c0,-111 41,-207 122,-288 81,-81 177,-121 288,-121l4596 0c1416,0 2531,313 3345,940 814,627 1221,1552 1221,2776 0,1213 -404,2116 -1213,2708 -809,591 -1927,887 -3353,887l-1061 0 0 2897c0,111 -41,208 -122,288 -81,81 -177,122 -288,122l-3125 0zm4521 -6113c182,0 343,-69 485,-205 141,-137 212,-341 212,-614 0,-233 -55,-435 -167,-607 -111,-172 -288,-258 -530,-258l-1062 0 0 1684 1062 0zm8525 6113c-112,0 -208,-41 -289,-122 -80,-80 -121,-177 -121,-288l0 -6947 -2518 0c-111,0 -207,-40 -288,-121 -81,-81 -121,-177 -121,-289l0 -2442c0,-111 40,-207 121,-288 81,-81 177,-121 288,-121l8889 0c111,0 207,40 288,121 81,81 122,177 122,288l0 2442c0,112 -41,208 -122,289 -81,81 -177,121 -288,121l-2518 0 0 6947c0,111 -40,208 -121,288 -81,81 -177,122 -288,122l-3034 0zm7872 0c-111,0 -207,-41 -288,-122 -81,-80 -122,-177 -122,-288l0 -9799c0,-111 41,-207 122,-288 81,-81 177,-121 288,-121l2973 0c111,0 207,40 288,121 81,81 122,177 122,288l0 4596 3170 -4656c142,-233 349,-349 622,-349l2624 0c112,0 208,40 289,121 81,81 121,177 121,288l0 9799c0,111 -40,208 -121,288 -81,81 -177,122 -289,122l-2973 0c-111,0 -207,-41 -288,-122 -81,-80 -121,-177 -121,-288l0 -4262 -3171 4323c-71,111 -152,197 -243,258 -91,60 -217,91 -379,91l-2624 0zm12287 0c-111,0 -207,-41 -288,-122 -81,-80 -122,-177 -122,-288l0 -9799c0,-111 41,-207 122,-288 81,-81 177,-121 288,-121l4596 0c1416,0 2531,313 3345,940 814,627 1221,1552 1221,2776 0,1213 -404,2116 -1213,2708 -809,591 -1927,887 -3353,887l-1062 0 0 2897c0,111 -40,208 -121,288 -81,81 -177,122 -288,122l-3125 0zm4521 -6113c182,0 343,-69 485,-205 141,-137 212,-341 212,-614 0,-233 -55,-435 -167,-607 -111,-172 -288,-258 -530,-258l-1063 0 0 1684 1063 0z"/>
  <path class="fil1" d="M29943 33345c-139,0 -259,-50 -360,-151 -101,-102 -152,-222 -152,-361l0 -8836c0,-139 51,-259 152,-360 101,-101 221,-152 360,-152l4873 0c3299,0 4949,986 4949,2958 0,733 -291,1347 -872,1840 404,240 714,521 929,843 215,323 322,724 322,1204 0,949 -401,1688 -1204,2219 -802,531 -2051,796 -3745,796l-5252 0zm5063 -6295c240,0 414,-34 521,-104 108,-70 161,-193 161,-370 0,-177 -57,-303 -170,-379 -114,-76 -285,-114 -512,-114l-1327 0 0 967 1327 0zm0 3697c227,0 398,-34 512,-104 113,-69 170,-193 170,-370 0,-176 -57,-303 -170,-379 -114,-76 -285,-113 -512,-113l-1327 0 0 966 1327 0zm7243 -8304c-139,0 -259,-51 -360,-152 -101,-101 -152,-221 -152,-360l0 -2295c0,-139 51,-259 152,-360 101,-101 221,-152 360,-152l3205 0c139,0 259,51 360,152 101,101 152,221 152,360l0 2295c0,139 -51,259 -152,360 -101,101 -221,152 -360,152l-3205 0zm-95 10902c-139,0 -259,-50 -360,-151 -101,-102 -152,-222 -152,-361l0 -8836c0,-139 51,-259 152,-360 101,-101 221,-152 360,-152l3394 0c139,0 260,51 361,152 101,101 151,221 151,360l0 8836c0,139 -50,259 -151,361 -101,101 -222,151 -361,151l-3394 0zm5746 2086c-139,0 -260,-50 -361,-151 -101,-102 -151,-222 -151,-361l0 -4380c0,-139 50,-259 151,-360 101,-101 222,-152 361,-152l265 0c404,0 664,-256 778,-768 113,-512 170,-1305 170,-2380l0 -2882c0,-139 51,-259 152,-360 101,-101 221,-152 360,-152l8646 0c140,0 260,51 361,152 101,101 152,221 152,360l0 6030 739 0c139,0 259,51 360,152 101,101 152,221 152,360l0 4380c0,139 -51,259 -152,361 -101,101 -221,151 -360,151l-3394 0c-139,0 -259,-50 -360,-151 -101,-102 -152,-222 -152,-361l0 -1574 -3811 0 0 1574c0,139 -51,259 -152,361 -101,101 -221,151 -360,151l-3394 0zm6465 -5404l0 -3223 -1080 0 0 549c0,1189 -114,2080 -341,2674l1421 0zm10600 3318c-139,0 -259,-50 -360,-151 -101,-102 -152,-222 -152,-361l0 -1972c0,-455 158,-796 474,-1024l209 -151 721 -512c1415,-1024 2461,-1798 3138,-2323 676,-525 1204,-999 1583,-1422 379,-424 569,-800 569,-1128 0,-241 -41,-427 -123,-559 -83,-133 -269,-200 -560,-200 -240,0 -430,54 -569,162 -139,107 -231,211 -275,312 -44,101 -110,266 -199,493 -63,165 -158,278 -284,342 -127,63 -285,94 -474,94l-3565 0c-114,0 -212,-41 -294,-123 -82,-82 -123,-180 -123,-294 12,-935 272,-1760 777,-2474 506,-714 1192,-1268 2058,-1659 866,-392 1842,-588 2929,-588 1745,0 3126,376 4143,1128 1018,752 1527,1792 1527,3119 0,974 -339,1861 -1015,2664 -676,803 -1703,1679 -3081,2627l-133 94 4001 0c139,0 259,51 360,152 102,101 152,221 152,360l0 2882c0,139 -50,259 -152,361 -101,101 -221,151 -360,151l-10922 0zm18696 228c-1289,0 -2389,-190 -3299,-569 -910,-379 -1596,-891 -2057,-1536 -461,-645 -705,-1359 -730,-2142 0,-114 41,-212 123,-295 82,-82 180,-123 294,-123l3830 0c291,0 519,102 683,304 190,253 360,426 512,521 152,95 373,142 663,142 329,0 604,-104 825,-312 222,-209 332,-497 332,-863 0,-316 -104,-588 -313,-816 -208,-227 -490,-341 -844,-341 -214,0 -385,25 -511,76 -127,50 -253,126 -380,227 -126,102 -233,152 -322,152l-3774 0c-113,0 -211,-41 -293,-123 -82,-82 -124,-180 -124,-294l759 -6864c25,-215 107,-376 247,-483 139,-108 303,-162 492,-162l8476 0c139,0 259,51 360,152 102,101 152,221 152,360l0 2674c0,139 -50,259 -152,360 -101,101 -221,152 -360,152l-5536 0 -152 1346c354,-240 711,-408 1071,-502 360,-95 850,-143 1469,-143 784,0 1530,190 2238,569 708,380 1283,904 1726,1574 442,670 663,1410 663,2219 0,859 -231,1649 -692,2370 -461,720 -1150,1295 -2067,1725 -916,430 -2019,645 -3309,645zm13349 -38c-1832,-13 -3255,-461 -4266,-1346 -1011,-885 -1574,-2055 -1688,-3508 -37,-518 -56,-1182 -56,-1991 0,-822 19,-1498 56,-2029 64,-936 339,-1760 825,-2475 487,-714 1169,-1276 2048,-1687 879,-411 1906,-616 3081,-616 1176,0 2203,205 3082,616 878,411 1561,973 2047,1687 487,715 762,1539 825,2475 38,531 57,1207 57,2029 0,809 -19,1473 -57,1991 -113,1453 -676,2623 -1687,3508 -1012,885 -2433,1333 -4267,1346zm0 -3717c632,0 974,-410 1024,-1232 26,-366 38,-1005 38,-1915 0,-923 -12,-1555 -38,-1896 -50,-809 -392,-1220 -1024,-1233 -632,13 -973,424 -1023,1233 -26,683 -38,1314 -38,1896 0,543 12,1182 38,1915 50,822 391,1232 1023,1232zm11719 3527c-139,0 -259,-50 -360,-151 -102,-102 -152,-222 -152,-361l0 -8836c0,-139 50,-259 152,-360 101,-101 221,-152 360,-152l6921 0c139,0 259,51 360,152 101,101 151,221 151,360l0 2295c0,139 -50,259 -151,360 -101,101 -221,152 -360,152l-3015 0 0 6029c0,139 -51,259 -152,361 -101,101 -221,151 -360,151l-3394 0zm9177 3603c-139,0 -259,-51 -360,-152 -101,-101 -152,-221 -152,-360l0 -12439c0,-139 51,-259 152,-360 101,-101 221,-152 360,-152l3224 0c139,0 259,51 360,152 101,101 152,221 152,360l0 569c303,-392 692,-702 1166,-929 474,-228 1020,-341 1640,-341 1175,0 2123,354 2844,1061 721,709 1112,1815 1176,3319 12,189 19,436 19,740 0,316 -7,568 -19,758 -51,1428 -446,2512 -1186,3252 -739,739 -1684,1109 -2834,1109 -1151,0 -1991,-379 -2522,-1138l0 4039c0,139 -51,259 -152,360 -101,101 -221,152 -360,152l-3508 0zm4968 -6807c329,0 559,-89 692,-266 133,-177 218,-455 256,-834 25,-253 38,-461 38,-625 0,-165 -13,-374 -38,-626 -38,-380 -123,-658 -256,-835 -133,-177 -363,-265 -692,-265 -329,0 -563,92 -702,275 -139,183 -221,458 -246,825 -13,189 -19,423 -19,701 0,278 6,512 19,702 25,316 110,553 256,711 145,158 376,237 692,237zm7566 3204c-139,0 -260,-50 -361,-151 -101,-102 -152,-222 -152,-361l0 -8836c0,-139 51,-259 152,-360 101,-101 222,-152 361,-152l3394 0c139,0 259,51 360,152 101,101 152,221 152,360l0 2712 1896 0 0 -2712c0,-139 50,-259 151,-360 102,-101 222,-152 361,-152l3394 0c139,0 259,51 360,152 101,101 152,221 152,360l0 8836c0,139 -51,259 -152,361 -101,101 -221,151 -360,151l-3394 0c-139,0 -259,-50 -361,-151 -101,-102 -151,-222 -151,-361l0 -2806 -1896 0 0 2806c0,139 -51,259 -152,361 -101,101 -221,151 -360,151l-3394 0zm12021 1593c-114,0 -211,-41 -294,-123 -82,-82 -123,-180 -123,-294 0,-51 13,-107 38,-171l6352 -15339c164,-380 442,-569 834,-569l2541 0c114,0 212,41 294,123 82,82 123,180 123,294 0,51 -13,107 -38,171l-6409 15339c-151,380 -430,569 -834,569l-2484 0zm22280 -11453c113,0 208,38 284,114 76,76 114,164 114,265l0 9102c0,101 -38,190 -114,265 -76,76 -171,114 -284,114l-3565 0c-114,0 -205,-38 -275,-114 -69,-75 -104,-164 -104,-265l0 -2882 -948 1517c-76,126 -152,218 -228,275 -75,57 -170,85 -284,85l-986 0c-202,0 -379,-120 -531,-360l-929 -1517 0 2882c0,101 -38,190 -114,265 -76,76 -164,114 -265,114l-3565 0c-101,0 -190,-38 -266,-114 -75,-75 -113,-164 -113,-265l0 -9102c0,-101 38,-189 113,-265 76,-76 165,-114 266,-114l3242 0c253,0 455,127 607,379l2048 3376 2048 -3376c151,-252 354,-379 606,-379l3243 0zm2844 -1042c-139,0 -259,-51 -360,-152 -101,-101 -152,-221 -152,-360l0 -2295c0,-139 51,-259 152,-360 101,-101 221,-152 360,-152l3205 0c139,0 259,51 360,152 101,101 151,221 151,360l0 2295c0,139 -50,259 -151,360 -101,101 -221,152 -360,152l-3205 0zm-95 10902c-139,0 -259,-50 -360,-151 -101,-102 -152,-222 -152,-361l0 -8836c0,-139 51,-259 152,-360 101,-101 221,-152 360,-152l3394 0c139,0 259,51 361,152 101,101 151,221 151,360l0 8836c0,139 -50,259 -151,361 -102,101 -222,151 -361,151l-3394 0zm10638 190c-974,0 -1856,-167 -2646,-502 -790,-336 -1419,-832 -1886,-1489 -468,-657 -727,-1441 -777,-2351l-19 -759 19 -777c37,-910 293,-1694 767,-2351 475,-658 1106,-1157 1896,-1498 790,-342 1672,-512 2646,-512 1239,0 2275,224 3109,673 835,449 1451,970 1849,1564 398,594 597,1087 597,1479 0,127 -50,237 -151,332 -102,95 -222,142 -361,142l-3697 0c-240,0 -423,-126 -550,-379 -101,-202 -199,-348 -294,-436 -95,-89 -230,-133 -407,-133 -279,0 -471,101 -579,303 -107,203 -168,506 -180,911l-19 739 19 607c25,430 88,736 189,920 102,183 291,274 570,274 202,0 347,-40 436,-123 88,-82 177,-230 265,-445 101,-253 285,-379 550,-379l3697 0c139,0 259,47 361,142 101,95 151,205 151,331 0,354 -189,828 -569,1423 -379,594 -982,1125 -1810,1592 -828,468 -1887,702 -3176,702zm16837 -10050c139,0 259,51 361,152 101,101 151,221 151,360l0 8836c0,139 -50,259 -151,361 -102,101 -222,151 -361,151l-3507 0c-140,0 -260,-50 -361,-151 -101,-102 -151,-222 -151,-361l0 -2351 -778 0 -1119 2579c-76,189 -215,284 -417,284l-3413 0c-126,0 -227,-38 -303,-114 -76,-75 -114,-164 -114,-265 0,-63 19,-133 57,-208l1744 -3129c-948,-594 -1422,-1479 -1422,-2655 0,-1087 389,-1940 1166,-2560 778,-619 1805,-929 3081,-929l5537 0zm-3925 2826l-1232 0c-506,0 -759,221 -759,663 0,455 253,683 759,683l1232 0 0 -1346zm14354 9120c-139,0 -259,-50 -360,-151 -101,-102 -152,-222 -152,-361l0 -1574 -7053 0c-139,0 -259,-50 -361,-151 -101,-102 -151,-222 -151,-361l0 -8836c0,-139 50,-259 151,-360 102,-101 222,-152 361,-152l3394 0c139,0 259,51 360,152 101,101 152,221 152,360l0 6030 1896 0 0 -6030c0,-139 50,-259 152,-360 101,-101 221,-152 360,-152l3394 0c139,0 259,51 360,152 101,101 152,221 152,360l0 6030 739 0c139,0 259,51 360,152 102,101 152,221 152,360l0 4380c0,139 -50,259 -152,361 -101,101 -221,151 -360,151l-3394 0zm5499 -2086c-139,0 -259,-50 -360,-151 -101,-102 -152,-222 -152,-361l0 -8836c0,-139 51,-259 152,-360 101,-101 221,-152 360,-152l3413 0c139,0 259,51 361,152 101,101 151,221 151,360l0 2352 1517 0c1277,0 2304,313 3081,938 778,626 1167,1482 1167,2569 0,1087 -389,1941 -1167,2560 -777,620 -1804,929 -3081,929l-5442 0zm5063 -2825c505,0 758,-221 758,-664 0,-455 -253,-682 -758,-682l-1233 0 0 1346 1233 0z"/>
 </g>
</svg>
