<?xml version="1.0" encoding="utf-8"?>
<!-- Generator: Adobe Illustrator 24.3.0, SVG Export Plug-In . SVG Version: 6.00 Build 0)  -->
<svg version="1.1" id="Layer_1" xmlns="http://www.w3.org/2000/svg" xmlns:xlink="http://www.w3.org/1999/xlink" x="0px" y="0px"
	 viewBox="0 0 177.8 10.5" style="enable-background:new 0 0 177.8 10.5;" xml:space="preserve">
<style type="text/css">
	.st0{enable-background:new    ;}
	.st1{fill:#FEFEFE;}
</style>
<g transform="matrix(0.863844 0 0 1 -1785.36 -3670.38)">
	<g class="st0">
		<path class="st1" d="M2078,3670.8v9.1h-1.3v-8.1h-4.8v8.1h-1.3v-9.1H2078z"/>
		<path class="st1" d="M2080.7,3670.8l2,3.9c0.3,0.5,0.5,1.1,0.7,1.6h0c0.2-0.5,0.4-1,0.6-1.6l1.6-3.8h1.4l-2.1,4.7
			c-0.6,1.2-1.2,2.6-1.9,3.4c-0.7,0.7-1.4,1.1-2.3,1.1c-0.3,0-0.6,0-0.7-0.1l0.1-1c0.1,0,0.3,0,0.5,0c1.1,0,1.7-0.9,2-1.6
			c0.1-0.2,0.1-0.3,0-0.6l-3.4-6.1H2080.7z"/>
		<path class="st1" d="M2094.8,3670.8v9.1h-1.3v-8.1h-3.4v2.7c0,2-0.1,4.2-1.5,5c-0.4,0.2-1,0.4-1.6,0.4l-0.2-0.9
			c0.4-0.1,0.8-0.3,1.1-0.5c0.8-0.7,0.9-2.5,0.9-3.9v-3.8H2094.8z"/>
		<path class="st1" d="M2098.4,3670.8v3.4c0.3,0,0.9-0.1,1.3-0.1c2.1,0,4,0.8,4,2.8c0,0.8-0.3,1.5-0.8,1.9c-0.8,0.8-2.3,1.1-3.7,1.1
			c-0.9,0-1.6-0.1-2.1-0.1v-9H2098.4z M2098.4,3679c0.3,0.1,0.6,0.1,1.1,0.1c1.5,0,2.7-0.6,2.7-2c0-1.4-1.3-2-2.8-2
			c-0.3,0-0.7,0-1.1,0.1V3679z"/>
		<path class="st1" d="M2106.2,3671.8h-3.1v-1h7.6v1h-3.1v8.1h-1.3V3671.8z"/>
		<path class="st1" d="M2120.1,3675.3c0,3.1-2.1,4.8-4.8,4.8c-2.7,0-4.6-1.9-4.6-4.6c0-2.9,2-4.8,4.8-4.8
			C2118.3,3670.7,2120.1,3672.6,2120.1,3675.3z M2112.1,3675.4c0,1.9,1.2,3.7,3.3,3.7c2.1,0,3.3-1.7,3.3-3.8c0-1.8-1.1-3.7-3.3-3.7
			C2113.2,3671.6,2112.1,3673.4,2112.1,3675.4z"/>
		<path class="st1" d="M2121.8,3671c0.6-0.1,1.5-0.2,2.4-0.2c1.3,0,2.2,0.2,2.8,0.7c0.5,0.3,0.9,0.9,0.9,1.6c0,0.9-0.7,1.6-1.7,2v0
			c1,0.2,2.1,0.9,2.1,2.3c0,0.8-0.3,1.4-0.9,1.8c-0.7,0.6-1.9,0.8-3.5,0.8c-0.9,0-1.6-0.1-2.1-0.1V3671z M2123.1,3674.7h1.2
			c1.4,0,2.2-0.6,2.2-1.5c0-1.1-0.9-1.5-2.3-1.5c-0.6,0-1,0-1.2,0.1V3674.7z M2123.1,3679c0.3,0,0.6,0.1,1.1,0.1
			c1.4,0,2.6-0.4,2.6-1.8c0-1.2-1.2-1.7-2.6-1.7h-1.1V3679z"/>
		<path class="st1" d="M2131.7,3677.1l-1.1,2.9h-1.4l3.5-9.1h1.6l3.5,9.1h-1.4l-1.1-2.9H2131.7z M2135.1,3676.1l-1-2.6
			c-0.2-0.6-0.4-1.1-0.5-1.7h0c-0.2,0.5-0.3,1.1-0.5,1.6l-1,2.6H2135.1z"/>
		<path class="st1" d="M2151.3,3675.3c0,3.1-2.1,4.8-4.8,4.8c-2.7,0-4.6-1.9-4.6-4.6c0-2.9,2-4.8,4.8-4.8
			C2149.5,3670.7,2151.3,3672.6,2151.3,3675.3z M2143.4,3675.4c0,1.9,1.2,3.7,3.3,3.7c2.1,0,3.3-1.7,3.3-3.8c0-1.8-1.1-3.7-3.3-3.7
			C2144.5,3671.6,2143.4,3673.4,2143.4,3675.4z"/>
		<path class="st1" d="M2158.2,3679.9l-1.3-2c-0.5-0.8-0.9-1.3-1.2-1.8h0c-0.3,0.5-0.6,1-1.1,1.8l-1.2,2h-1.5l3.1-4.6l-3-4.5h1.5
			l1.4,2.1c0.4,0.6,0.7,1.1,0.9,1.5h0c0.3-0.5,0.5-1,0.9-1.5l1.4-2.1h1.5l-3.1,4.4l3.2,4.7H2158.2z"/>
		<path class="st1" d="M2169.6,3675.3c0,3.1-2.1,4.8-4.8,4.8c-2.7,0-4.6-1.9-4.6-4.6c0-2.9,2-4.8,4.8-4.8
			C2167.8,3670.7,2169.6,3672.6,2169.6,3675.3z M2161.7,3675.4c0,1.9,1.2,3.7,3.3,3.7c2.1,0,3.3-1.7,3.3-3.8c0-1.8-1.1-3.7-3.3-3.7
			C2162.8,3671.6,2161.7,3673.4,2161.7,3675.4z"/>
		<path class="st1" d="M2171.4,3670.9c0.6-0.1,1.5-0.2,2.5-0.2c1.3,0,2.3,0.3,2.9,0.8c0.6,0.4,0.9,1.1,0.9,1.9
			c0,0.8-0.3,1.5-0.8,1.9c-0.7,0.7-1.8,1-3.1,1c-0.4,0-0.8,0-1.1-0.1v3.6h-1.3V3670.9z M2172.7,3675.3c0.3,0.1,0.7,0.1,1.1,0.1
			c1.6,0,2.6-0.7,2.6-1.9c0-1.2-1-1.8-2.4-1.8c-0.6,0-1,0-1.2,0.1V3675.3z"/>
		<path class="st1" d="M2188.1,3675.3c0,3.1-2.1,4.8-4.8,4.8c-2.7,0-4.6-1.9-4.6-4.6c0-2.9,2-4.8,4.8-4.8
			C2186.3,3670.7,2188.1,3672.6,2188.1,3675.3z M2180.1,3675.4c0,1.9,1.2,3.7,3.3,3.7c2.1,0,3.3-1.7,3.3-3.8c0-1.8-1.1-3.7-3.3-3.7
			C2181.2,3671.6,2180.1,3673.4,2180.1,3675.4z"/>
		<path class="st1" d="M2191.1,3670.8v3.8h5v-3.8h1.3v9.1h-1.3v-4.3h-5v4.3h-1.3v-9.1H2191.1z"/>
		<path class="st1" d="M2201.4,3677.1l-1.1,2.9h-1.4l3.5-9.1h1.6l3.5,9.1h-1.4l-1.1-2.9H2201.4z M2204.8,3676.1l-1-2.6
			c-0.2-0.6-0.4-1.1-0.5-1.7h0c-0.2,0.5-0.3,1.1-0.5,1.6l-1,2.6H2204.8z"/>
		<path class="st1" d="M2213.6,3670.8v4h0.4l3.5-4h1.6l-3.9,4.2c1.7,0.2,2.3,1.1,2.9,2.3c0.4,0.9,0.7,1.8,1.1,2.6h-1.4
			c-0.4-0.6-0.7-1.4-0.9-2.1c-0.5-1.2-1.1-2-2.9-2h-0.4v4.2h-1.3v-9.1H2213.6z"/>
		<path class="st1" d="M2220.5,3671c0.6-0.1,1.5-0.2,2.4-0.2c1.3,0,2.2,0.2,2.8,0.7c0.5,0.3,0.9,0.9,0.9,1.6c0,0.9-0.7,1.6-1.7,2v0
			c1,0.2,2.1,0.9,2.1,2.3c0,0.8-0.3,1.4-0.9,1.8c-0.7,0.6-1.9,0.8-3.5,0.8c-0.9,0-1.6-0.1-2.1-0.1V3671z M2221.8,3674.7h1.2
			c1.4,0,2.2-0.6,2.2-1.5c0-1.1-0.9-1.5-2.3-1.5c-0.6,0-1,0-1.2,0.1V3674.7z M2221.8,3679c0.3,0,0.6,0.1,1.1,0.1
			c1.4,0,2.6-0.4,2.6-1.8c0-1.2-1.2-1.7-2.6-1.7h-1.1V3679z"/>
		<path class="st1" d="M2230.4,3677.1l-1.1,2.9h-1.4l3.5-9.1h1.6l3.5,9.1h-1.4l-1.1-2.9H2230.4z M2233.8,3676.1l-1-2.6
			c-0.2-0.6-0.4-1.1-0.5-1.7h0c-0.2,0.5-0.3,1.1-0.5,1.6l-1,2.6H2233.8z"/>
		<path class="st1" d="M2238.1,3670.9c0.6-0.1,1.5-0.2,2.5-0.2c1.3,0,2.3,0.3,2.9,0.8c0.6,0.4,0.9,1.1,0.9,1.9
			c0,0.8-0.3,1.5-0.8,1.9c-0.7,0.7-1.8,1-3.1,1c-0.4,0-0.8,0-1.1-0.1v3.6h-1.3V3670.9z M2239.4,3675.3c0.3,0.1,0.7,0.1,1.1,0.1
			c1.6,0,2.6-0.7,2.6-1.9c0-1.2-1-1.8-2.4-1.8c-0.6,0-1,0-1.2,0.1V3675.3z"/>
		<path class="st1" d="M2248.1,3671.8h-3.1v-1h7.6v1h-3.1v8.1h-1.3V3671.8z"/>
		<path class="st1" d="M2255,3670.8v3.8c0,1.4,0,2.6-0.1,3.8l0,0c0.5-0.9,1.2-1.9,1.9-3l3.3-4.7h1.3v9.1h-1.2v-3.9
			c0-1.5,0-2.5,0.1-3.7l0,0c-0.5,1-1.2,2-1.9,3.1l-3.2,4.5h-1.4v-9.1H2255z"/>
		<path class="st1" d="M2263.7,3670.9c0.6-0.1,1.5-0.2,2.5-0.2c1.3,0,2.3,0.3,2.9,0.8c0.6,0.4,0.9,1.1,0.9,1.9
			c0,0.8-0.3,1.5-0.8,1.9c-0.7,0.7-1.8,1-3.1,1c-0.4,0-0.8,0-1.1-0.1v3.6h-1.3V3670.9z M2265.1,3675.3c0.3,0.1,0.7,0.1,1.1,0.1
			c1.6,0,2.6-0.7,2.6-1.9c0-1.2-1-1.8-2.4-1.8c-0.6,0-1,0-1.2,0.1V3675.3z"/>
	</g>
</g>
</svg>
