<?xml version="1.0" encoding="utf-8"?>
<!-- Generator: Adobe Illustrator 24.3.0, SVG Export Plug-In . SVG Version: 6.00 Build 0)  -->
<svg version="1.1" id="Layer_1" xmlns="http://www.w3.org/2000/svg" xmlns:xlink="http://www.w3.org/1999/xlink" x="0px" y="0px"
	 viewBox="0 0 177.8 10.5" style="enable-background:new 0 0 177.8 10.5;" xml:space="preserve">
<style type="text/css">
	.st0{enable-background:new    ;}
	.st1{fill:#FEFEFE;}
</style>
<g transform="matrix(0.863844 0 0 1 -1785.36 -3670.38)">
	<g class="st0">
		<path class="st1" d="M2077.1,3670.8v9.1h-1.1v-8.1h-4.2v8.1h-1.1v-9.1H2077.1z"/>
		<path class="st1" d="M2079.4,3670.8l1.7,3.9c0.3,0.5,0.4,1.1,0.6,1.6l0,0c0.2-0.5,0.3-1,0.5-1.6l1.4-3.8h1.2l-1.8,4.7
			c-0.5,1.2-1,2.6-1.7,3.4c-0.6,0.7-1.2,1.1-2,1.1c-0.3,0-0.5,0-0.6-0.1l0.1-1c0.1,0,0.3,0,0.4,0c1,0,1.5-0.9,1.7-1.6
			c0.1-0.2,0.1-0.3,0-0.6l-3-6.1h1.3V3670.8z"/>
		<path class="st1" d="M2091.8,3670.8v9.1h-1.1v-8.1h-3v2.7c0,2-0.1,4.2-1.3,5c-0.3,0.2-0.9,0.4-1.4,0.4l-0.2-0.9
			c0.3-0.1,0.7-0.3,1-0.5c0.7-0.7,0.8-2.5,0.8-3.9v-3.8H2091.8z"/>
		<path class="st1" d="M2094.9,3670.8v3.4c0.3,0,0.8-0.1,1.1-0.1c1.8,0,3.5,0.8,3.5,2.8c0,0.8-0.3,1.5-0.7,1.9
			c-0.7,0.8-2,1.1-3.2,1.1c-0.8,0-1.4-0.1-1.8-0.1v-9L2094.9,3670.8L2094.9,3670.8z M2094.9,3679c0.3,0.1,0.5,0.1,1,0.1
			c1.3,0,2.4-0.6,2.4-2s-1.1-2-2.4-2c-0.3,0-0.6,0-1,0.1L2094.9,3679L2094.9,3679z"/>
		<path class="st1" d="M2101.7,3671.8h-2.7v-1h6.6v1h-2.7v8.1h-1.1L2101.7,3671.8L2101.7,3671.8z"/>
		<path class="st1" d="M2113.9,3675.3c0,3.1-1.8,4.8-4.2,4.8c-2.4,0-4-1.9-4-4.6c0-2.9,1.7-4.8,4.2-4.8S2113.9,3672.6,2113.9,3675.3
			z M2106.9,3675.4c0,1.9,1,3.7,2.9,3.7c1.8,0,2.9-1.7,2.9-3.8c0-1.8-1-3.7-2.9-3.7C2107.9,3671.6,2106.9,3673.4,2106.9,3675.4z"/>
		<path class="st1" d="M2115.4,3671c0.5-0.1,1.3-0.2,2.1-0.2c1.1,0,1.9,0.2,2.4,0.7c0.4,0.3,0.8,0.9,0.8,1.6c0,0.9-0.6,1.6-1.5,2
			l0,0c0.9,0.2,1.8,0.9,1.8,2.3c0,0.8-0.3,1.4-0.8,1.8c-0.6,0.6-1.7,0.8-3.1,0.8c-0.8,0-1.4-0.1-1.8-0.1V3671z M2116.5,3674.7h1
			c1.2,0,1.9-0.6,1.9-1.5c0-1.1-0.8-1.5-2-1.5c-0.5,0-0.9,0-1,0.1L2116.5,3674.7L2116.5,3674.7z M2116.5,3679c0.3,0,0.5,0.1,1,0.1
			c1.2,0,2.3-0.4,2.3-1.8c0-1.2-1-1.7-2.3-1.7h-1V3679z"/>
		<path class="st1" d="M2124,3677.1l-1,2.9h-1.2l3.1-9.1h1.4l3.1,9.1h-1.2l-1-2.9H2124z M2127,3676.1l-0.9-2.6
			c-0.2-0.6-0.3-1.1-0.4-1.7l0,0c-0.2,0.5-0.3,1.1-0.4,1.6l-0.9,2.6L2127,3676.1L2127,3676.1z"/>
		<path class="st1" d="M2141.2,3675.3c0,3.1-1.8,4.8-4.2,4.8c-2.4,0-4-1.9-4-4.6c0-2.9,1.7-4.8,4.2-4.8S2141.2,3672.6,2141.2,3675.3
			z M2134.3,3675.4c0,1.9,1,3.7,2.9,3.7c1.8,0,2.9-1.7,2.9-3.8c0-1.8-1-3.7-2.9-3.7C2135.2,3671.6,2134.3,3673.4,2134.3,3675.4z"/>
		<path class="st1" d="M2147.2,3679.9l-1.1-2c-0.4-0.8-0.8-1.3-1-1.8l0,0c-0.3,0.5-0.5,1-1,1.8l-1,2h-1.3l2.7-4.6l-2.6-4.5h1.3
			l1.2,2.1c0.3,0.6,0.6,1.1,0.8,1.5l0,0c0.3-0.5,0.4-1,0.8-1.5l1.2-2.1h1.3l-2.7,4.4l2.8,4.7L2147.2,3679.9L2147.2,3679.9z"/>
		<path class="st1" d="M2157.2,3675.3c0,3.1-1.8,4.8-4.2,4.8c-2.4,0-4-1.9-4-4.6c0-2.9,1.7-4.8,4.2-4.8S2157.2,3672.6,2157.2,3675.3
			z M2150.3,3675.4c0,1.9,1,3.7,2.9,3.7c1.8,0,2.9-1.7,2.9-3.8c0-1.8-1-3.7-2.9-3.7C2151.2,3671.6,2150.3,3673.4,2150.3,3675.4z"/>
		<path class="st1" d="M2158.8,3670.9c0.5-0.1,1.3-0.2,2.2-0.2c1.1,0,2,0.3,2.5,0.8c0.5,0.4,0.8,1.1,0.8,1.9c0,0.8-0.3,1.5-0.7,1.9
			c-0.6,0.7-1.6,1-2.7,1c-0.3,0-0.7,0-1-0.1v3.6h-1.1L2158.8,3670.9L2158.8,3670.9z M2159.9,3675.3c0.3,0.1,0.6,0.1,1,0.1
			c1.4,0,2.3-0.7,2.3-1.9s-0.9-1.8-2.1-1.8c-0.5,0-0.9,0-1,0.1L2159.9,3675.3L2159.9,3675.3z"/>
		<path class="st1" d="M2173.4,3675.3c0,3.1-1.8,4.8-4.2,4.8c-2.4,0-4-1.9-4-4.6c0-2.9,1.7-4.8,4.2-4.8
			C2171.8,3670.7,2173.4,3672.6,2173.4,3675.3z M2166.4,3675.4c0,1.9,1,3.7,2.9,3.7c1.8,0,2.9-1.7,2.9-3.8c0-1.8-1-3.7-2.9-3.7
			C2167.3,3671.6,2166.4,3673.4,2166.4,3675.4z"/>
		<path class="st1" d="M2176,3670.8v3.8h4.4v-3.8h1.1v9.1h-1.1v-4.3h-4.4v4.3h-1.1v-9.1H2176z"/>
		<path class="st1" d="M2185,3677.1l-1,2.9h-1.2l3.1-9.1h1.4l3.1,9.1h-1.2l-1-2.9H2185z M2188,3676.1l-0.9-2.6
			c-0.2-0.6-0.3-1.1-0.4-1.7l0,0c-0.2,0.5-0.3,1.1-0.4,1.6l-0.9,2.6L2188,3676.1L2188,3676.1z"/>
		<path class="st1" d="M2195.7,3670.8v4h0.3l3.1-4h1.4l-3.4,4.2c1.5,0.2,2,1.1,2.5,2.3c0.3,0.9,0.6,1.8,1,2.6h-1.2
			c-0.3-0.6-0.6-1.4-0.8-2.1c-0.4-1.2-1-2-2.5-2h-0.3v4.2h-1.1v-9.1L2195.7,3670.8L2195.7,3670.8z"/>
		<path class="st1" d="M2201.7,3671c0.5-0.1,1.3-0.2,2.1-0.2c1.1,0,1.9,0.2,2.4,0.7c0.4,0.3,0.8,0.9,0.8,1.6c0,0.9-0.6,1.6-1.5,2
			l0,0c0.9,0.2,1.8,0.9,1.8,2.3c0,0.8-0.3,1.4-0.8,1.8c-0.6,0.6-1.7,0.8-3.1,0.8c-0.8,0-1.4-0.1-1.8-0.1V3671z M2202.8,3674.7h1
			c1.2,0,1.9-0.6,1.9-1.5c0-1.1-0.8-1.5-2-1.5c-0.5,0-0.9,0-1,0.1L2202.8,3674.7L2202.8,3674.7z M2202.8,3679c0.3,0,0.5,0.1,1,0.1
			c1.2,0,2.3-0.4,2.3-1.8c0-1.2-1-1.7-2.3-1.7h-1V3679z"/>
		<path class="st1" d="M2210.4,3677.1l-1,2.9h-1.2l3.1-9.1h1.4l3.1,9.1h-1.2l-1-2.9H2210.4z M2213.3,3676.1l-0.9-2.6
			c-0.2-0.6-0.3-1.1-0.4-1.7l0,0c-0.2,0.5-0.3,1.1-0.4,1.6l-0.9,2.6L2213.3,3676.1L2213.3,3676.1z"/>
		<path class="st1" d="M2217.1,3670.9c0.5-0.1,1.3-0.2,2.2-0.2c1.1,0,2,0.3,2.5,0.8c0.5,0.4,0.8,1.1,0.8,1.9c0,0.8-0.3,1.5-0.7,1.9
			c-0.6,0.7-1.6,1-2.7,1c-0.3,0-0.7,0-1-0.1v3.6h-1.1L2217.1,3670.9L2217.1,3670.9z M2218.2,3675.3c0.3,0.1,0.6,0.1,1,0.1
			c1.4,0,2.3-0.7,2.3-1.9s-0.9-1.8-2.1-1.8c-0.5,0-0.9,0-1,0.1L2218.2,3675.3L2218.2,3675.3z"/>
		<path class="st1" d="M2225.8,3671.8h-2.7v-1h6.6v1h-2.7v8.1h-1.1L2225.8,3671.8L2225.8,3671.8z"/>
		<path class="st1" d="M2231.9,3670.8v3.8c0,1.4,0,2.6-0.1,3.8l0,0c0.4-0.9,1-1.9,1.7-3l2.9-4.7h1.1v9.1h-1v-3.9
			c0-1.5,0-2.5,0.1-3.7l0,0c-0.4,1-1,2-1.7,3.1l-2.8,4.5h-1.2v-9.1L2231.9,3670.8L2231.9,3670.8z"/>
		<path class="st1" d="M2239.5,3670.9c0.5-0.1,1.3-0.2,2.2-0.2c1.1,0,2,0.3,2.5,0.8c0.5,0.4,0.8,1.1,0.8,1.9c0,0.8-0.3,1.5-0.7,1.9
			c-0.6,0.7-1.6,1-2.7,1c-0.3,0-0.7,0-1-0.1v3.6h-1.1L2239.5,3670.9L2239.5,3670.9z M2240.7,3675.3c0.3,0.1,0.6,0.1,1,0.1
			c1.4,0,2.3-0.7,2.3-1.9s-0.9-1.8-2.1-1.8c-0.5,0-0.9,0-1,0.1L2240.7,3675.3L2240.7,3675.3z"/>
	</g>
</g>
</svg>
