<?xml version="1.0" encoding="UTF-8"?>
<!DOCTYPE svg PUBLIC "-//W3C//DTD SVG 1.1//EN" "http://www.w3.org/Graphics/SVG/1.1/DTD/svg11.dtd">
<!-- Creator: CorelDRAW X7 -->
<svg xmlns="http://www.w3.org/2000/svg" xml:space="preserve" width="46.7276mm" height="5.3411mm" version="1.1" style="shape-rendering:geometricPrecision; text-rendering:geometricPrecision; image-rendering:optimizeQuality; fill-rule:evenodd; clip-rule:evenodd"
viewBox="0 0 1173 134"
 xmlns:xlink="http://www.w3.org/1999/xlink">
 <defs>
  <style type="text/css">
   <![CDATA[
    .str0 {stroke:#1DDD6D;stroke-width:4.42825;stroke-linecap:round;stroke-linejoin:round}
    .fil0 {fill:none;fill-rule:nonzero}
    .fil1 {fill:#1DDD6D;fill-rule:nonzero}
   ]]>
  </style>
 </defs>
 <g id="Слой_x0020_1">
  <metadata id="CorelCorpID_0Corel-Layer"/>
  <g>
   <path class="fil0 str0" d="M5 107c-1,0 -1,-1 -2,-1 0,-1 -1,-2 -1,-2l0 -63c0,-1 1,-2 1,-3 1,0 1,0 2,0l28 0c8,0 14,1 18,5 4,3 7,7 7,13 0,4 -1,7 -3,9 -1,2 -3,4 -6,5 3,2 6,4 7,7 2,3 3,6 3,10 0,6 -2,11 -7,15 -4,3 -10,5 -18,5l-29 0zm27 -40c4,0 8,-1 10,-3 3,-2 4,-4 4,-8 0,-6 -5,-9 -14,-9l-18 0 0 20 18 0zm1 30c4,0 8,-1 10,-2 3,-2 4,-5 4,-8 0,-4 -1,-6 -3,-8 -3,-2 -6,-2 -11,-2l-19 0 0 20 19 0zm45 -72c0,0 -1,-1 -2,-1 0,-1 -1,-2 -1,-3l0 -6c0,-1 1,-2 1,-3 1,0 2,-1 2,-1l8 0c1,0 2,1 3,1 0,1 0,2 0,3l0 6c0,1 0,2 0,3 -1,0 -2,1 -3,1l-8 0zm2 82c-1,0 -2,-1 -3,-1 0,-1 -1,-2 -1,-2l0 -63c0,-1 1,-2 1,-3 1,0 2,0 3,0l5 0c1,0 2,0 3,0 0,1 0,2 0,3l0 63c0,0 0,1 0,2 -1,0 -2,1 -3,1l-5 0zm24 14c-1,0 -1,0 -2,-1 -1,0 -1,-1 -1,-2l0 -19c0,-1 0,-1 1,-2 1,0 1,-1 2,-1l1 0c4,0 6,-3 8,-9 2,-6 3,-16 3,-29l0 -17c0,-1 0,-2 1,-3 1,0 1,0 2,0l42 0c1,0 2,0 2,0 1,1 1,2 1,3l0 55 7 0c0,0 1,0 2,1 0,0 1,1 1,2l0 19c0,1 -1,2 -1,2 -1,1 -2,1 -2,1l-6 0c-1,0 -2,0 -2,-1 -1,0 -1,-1 -1,-2l0 -11 -49 0 0 11c0,1 0,2 -1,2 0,1 -1,1 -2,1l-6 0zm48 -25l0 -48 -24 0 0 11c0,18 -3,30 -8,37l32 0zm68 11c-1,0 -2,-1 -2,-1 -1,-1 -1,-2 -1,-2l0 -4c0,-2 1,-4 3,-6l29 -29c7,-6 11,-10 14,-14 2,-3 3,-7 3,-11 0,-5 -1,-9 -4,-12 -3,-3 -7,-5 -13,-5 -5,0 -9,2 -12,5 -3,3 -5,7 -6,12 0,1 -1,2 -1,3 -1,0 -2,0 -2,0l-7 0c-1,0 -1,0 -2,0 0,-1 -1,-2 -1,-2 1,-5 2,-9 4,-14 2,-4 6,-8 11,-11 4,-2 10,-4 16,-4 10,0 18,3 23,8 5,5 7,12 7,20 0,5 -1,10 -4,15 -3,4 -7,9 -13,14l-26 26 42 0c1,0 2,1 2,1 1,1 1,2 1,3l0 5c0,0 0,1 -1,2 0,0 -1,1 -2,1l-58 0zm107 1c-7,0 -13,-1 -18,-4 -5,-2 -8,-5 -11,-9 -2,-4 -4,-8 -4,-12l0 -1c0,0 0,-1 1,-1 0,-1 1,-1 2,-1l6 0c2,0 3,1 4,3 1,5 4,8 7,11 4,2 8,3 13,3 6,0 11,-2 15,-5 4,-4 6,-9 6,-16 0,-6 -2,-10 -6,-14 -4,-3 -9,-5 -15,-5 -4,0 -6,0 -8,1 -2,1 -4,2 -6,4 -1,0 -2,1 -3,2 -1,0 -2,0 -2,0l-7 0c-1,0 -1,0 -2,-1 -1,0 -1,-1 -1,-2l4 -44c1,-2 2,-3 4,-3l46 0c1,0 1,0 2,0 1,1 1,2 1,3l0 5c0,0 -1,1 -1,2 -1,0 -1,1 -2,1l-39 0 -2 26c4,-3 10,-4 17,-4 6,0 12,1 16,3 5,3 9,6 12,11 3,4 4,9 4,16 0,6 -1,12 -4,17 -3,4 -7,8 -12,10 -5,3 -11,4 -17,4zm82 0c-12,0 -20,-3 -25,-10 -6,-7 -9,-16 -9,-26l0 -12 0 -12c0,-10 3,-19 9,-26 5,-6 13,-10 25,-10 11,0 19,4 25,10 5,7 8,16 8,26 0,3 0,7 0,12 0,5 0,9 0,12 0,10 -3,19 -8,26 -6,7 -14,10 -25,10zm0 -11c6,0 12,-2 15,-7 3,-4 5,-11 5,-19 1,-3 1,-6 1,-11 0,-5 0,-9 -1,-11 0,-8 -2,-14 -5,-19 -4,-5 -9,-7 -15,-7 -7,0 -12,2 -16,7 -3,5 -5,11 -5,19l0 11 0 11c0,8 2,15 5,19 4,5 9,7 16,7zm87 10c-1,0 -1,-1 -2,-1 0,-1 -1,-2 -1,-2l0 -63c0,-1 1,-2 1,-3 1,0 1,0 2,0l40 0c1,0 1,0 2,0 0,1 1,2 1,3l0 4c0,1 -1,1 -1,2 -1,1 -1,1 -2,1l-31 0 0 56c0,0 0,1 -1,2 0,0 -1,1 -2,1l-6 0zm58 25c-1,0 -2,0 -3,-1 0,0 -1,-1 -1,-2l0 -88c0,-1 1,-2 1,-3 1,0 2,0 3,0l5 0c1,0 2,0 2,0 1,1 1,2 1,3l0 5c5,-6 13,-10 22,-10 9,0 16,3 21,9 5,6 7,13 7,23 0,1 0,2 0,4 0,2 0,4 0,5 0,9 -2,16 -7,22 -5,6 -12,9 -21,9 -9,0 -17,-3 -21,-10l0 31c0,1 -1,1 -1,2 -1,1 -2,1 -3,1l-5 0zm28 -34c6,0 11,-2 13,-6 3,-4 5,-10 5,-16 0,-1 0,-2 0,-4 0,-17 -6,-25 -18,-25 -7,0 -11,2 -14,6 -4,4 -5,9 -5,14 -1,1 -1,3 -1,5 0,3 0,5 1,6 0,5 1,10 5,14 3,4 8,6 14,6zm50 9c-1,0 -1,-1 -2,-1 0,-1 -1,-2 -1,-2l0 -63c0,-1 1,-2 1,-3 1,0 1,0 2,0l6 0c1,0 2,0 2,0 1,1 1,2 1,3l0 25 37 0 0 -25c0,-1 0,-2 1,-3 0,0 1,0 2,0l6 0c1,0 1,0 2,0 1,1 1,2 1,3l0 63c0,0 0,1 -1,2 -1,0 -1,1 -2,1l-6 0c-1,0 -2,-1 -2,-1 -1,-1 -1,-2 -1,-2l0 -28 -37 0 0 28c0,0 0,1 -1,2 0,0 -1,1 -2,1l-6 0zm74 11c-1,0 -1,0 -2,-1 0,-1 -1,-1 -1,-2 0,0 0,-1 1,-1l45 -110c1,-1 2,-2 4,-2l5 0c0,0 1,0 1,1 1,1 1,1 1,2 0,0 0,1 0,1l-46 110c0,0 0,1 -1,1 0,1 -1,1 -2,1l-5 0zm130 -80c1,0 2,0 2,0 1,1 1,1 1,2l0 64c0,1 0,1 -1,2 0,0 -1,1 -2,1l-6 0c-1,0 -1,-1 -2,-1 0,-1 -1,-1 -1,-2l0 -45 -17 33c-1,1 -1,2 -2,3 0,0 -1,1 -2,1l-4 0c-1,0 -2,-1 -2,-1 -1,-1 -1,-2 -2,-3l-17 -32 0 44c0,1 -1,1 -1,2 -1,0 -1,1 -2,1l-6 0c-1,0 -2,-1 -2,-1 -1,-1 -1,-1 -1,-2l0 -64c0,-1 0,-1 1,-2 0,0 1,0 1,0l7 0c1,0 2,0 3,2l23 42 23 -42c1,-2 2,-2 3,-2l6 0zm25 -13c-1,0 -1,-1 -2,-1 -1,-1 -1,-2 -1,-3l0 -6c0,-1 0,-2 1,-3 1,0 1,-1 2,-1l8 0c1,0 2,1 2,1 1,1 1,2 1,3l0 6c0,1 0,2 -1,3 0,0 -1,1 -2,1l-8 0zm1 82c-1,0 -1,-1 -2,-1 -1,-1 -1,-2 -1,-2l0 -63c0,-1 0,-2 1,-3 1,0 1,0 2,0l6 0c1,0 2,0 2,0 1,1 1,2 1,3l0 63c0,0 0,1 -1,2 0,0 -1,1 -2,1l-6 0zm57 1c-10,0 -17,-3 -23,-8 -5,-5 -8,-13 -8,-23l0 -5 0 -5c0,-10 3,-17 8,-23 6,-5 13,-8 23,-8 6,0 11,1 16,4 4,2 7,5 10,8 2,3 3,7 3,10 0,1 0,2 -1,2 0,1 -1,1 -2,1l-6 0c-1,0 -1,0 -2,0 0,-1 -1,-2 -1,-3 -2,-4 -4,-7 -7,-9 -2,-2 -6,-3 -10,-3 -6,0 -10,2 -13,6 -4,3 -6,8 -6,15l0 5 0 5c0,7 2,12 6,16 3,3 7,5 13,5 4,0 8,-1 10,-3 3,-2 5,-5 7,-9 0,-1 1,-2 1,-2 1,-1 1,-1 2,-1l6 0c1,0 2,0 2,1 1,1 1,1 1,2 0,3 -1,7 -3,10 -3,3 -6,6 -10,9 -5,2 -10,3 -16,3zm94 -70c1,0 2,0 2,0 1,1 1,2 1,3l0 63c0,0 0,1 -1,2 0,0 -1,1 -2,1l-6 0c-1,0 -2,-1 -2,-1 -1,-1 -1,-2 -1,-2l0 -22 -14 0 -16 23c0,0 -1,1 -1,1 -1,0 -1,1 -2,1l-6 0c-1,0 -1,-1 -2,-1 0,-1 -1,-1 -1,-2 0,-1 1,-2 1,-3l15 -21c-5,-2 -8,-5 -10,-8 -3,-4 -4,-8 -4,-13 0,-7 2,-13 7,-16 4,-4 11,-5 20,-5l22 0zm-9 9l-14 0c-5,0 -9,1 -11,3 -2,2 -4,5 -4,9 0,4 2,7 4,10 2,2 5,3 10,3l15 0 0 -25zm91 76c-1,0 -2,0 -2,0 -1,-1 -1,-2 -1,-3l0 -13 -53 0c-1,0 -1,-1 -2,-1 -1,-1 -1,-2 -1,-2l0 -63c0,-1 0,-2 1,-3 1,0 1,0 2,0l6 0c1,0 2,0 2,0 1,1 1,2 1,3l0 55 35 0 0 -55c0,-1 0,-2 0,-3 1,0 2,0 3,0l6 0c0,0 1,0 2,0 0,1 0,2 0,3l0 55 7 0c1,0 1,1 2,1 1,1 1,1 1,2l0 21c0,1 0,2 -1,3 -1,0 -1,0 -2,0l-6 0zm26 -16c-1,0 -2,-1 -2,-1 -1,-1 -1,-2 -1,-2l0 -63c0,-1 0,-2 1,-3 0,0 1,0 2,0l6 0c1,0 1,0 2,0 1,1 1,2 1,3l0 19 15 0c9,0 15,2 19,6 5,4 7,10 7,18 0,8 -2,13 -7,17 -4,4 -11,6 -21,6l-22 0zm23 -10c5,0 9,-1 12,-3 2,-2 4,-5 4,-10 0,-5 -2,-8 -4,-11 -3,-2 -7,-3 -12,-3l-14 0 0 27 14 0z"/>
   <path id="1" class="fil1" d="M5 107c-1,0 -1,-1 -2,-1 0,-1 -1,-2 -1,-2l0 -63c0,-1 1,-2 1,-3 1,0 1,0 2,0l28 0c8,0 14,1 18,5 4,3 7,7 7,13 0,4 -1,7 -3,9 -1,2 -3,4 -6,5 3,2 6,4 7,7 2,3 3,6 3,10 0,6 -2,11 -7,15 -4,3 -10,5 -18,5l-29 0zm27 -40c4,0 8,-1 10,-3 3,-2 4,-4 4,-8 0,-6 -5,-9 -14,-9l-18 0 0 20 18 0zm1 30c4,0 8,-1 10,-2 3,-2 4,-5 4,-8 0,-4 -1,-6 -3,-8 -3,-2 -6,-2 -11,-2l-19 0 0 20 19 0zm45 -72c0,0 -1,-1 -2,-1 0,-1 -1,-2 -1,-3l0 -6c0,-1 1,-2 1,-3 1,0 2,-1 2,-1l8 0c1,0 2,1 3,1 0,1 0,2 0,3l0 6c0,1 0,2 0,3 -1,0 -2,1 -3,1l-8 0zm2 82c-1,0 -2,-1 -3,-1 0,-1 -1,-2 -1,-2l0 -63c0,-1 1,-2 1,-3 1,0 2,0 3,0l5 0c1,0 2,0 3,0 0,1 0,2 0,3l0 63c0,0 0,1 0,2 -1,0 -2,1 -3,1l-5 0zm24 14c-1,0 -1,0 -2,-1 -1,0 -1,-1 -1,-2l0 -19c0,-1 0,-1 1,-2 1,0 1,-1 2,-1l1 0c4,0 6,-3 8,-9 2,-6 3,-16 3,-29l0 -17c0,-1 0,-2 1,-3 1,0 1,0 2,0l42 0c1,0 2,0 2,0 1,1 1,2 1,3l0 55 7 0c0,0 1,0 2,1 0,0 1,1 1,2l0 19c0,1 -1,2 -1,2 -1,1 -2,1 -2,1l-6 0c-1,0 -2,0 -2,-1 -1,0 -1,-1 -1,-2l0 -11 -49 0 0 11c0,1 0,2 -1,2 0,1 -1,1 -2,1l-6 0zm48 -25l0 -48 -24 0 0 11c0,18 -3,30 -8,37l32 0zm68 11c-1,0 -2,-1 -2,-1 -1,-1 -1,-2 -1,-2l0 -4c0,-2 1,-4 3,-6l29 -29c7,-6 11,-10 14,-14 2,-3 3,-7 3,-11 0,-5 -1,-9 -4,-12 -3,-3 -7,-5 -13,-5 -5,0 -9,2 -12,5 -3,3 -5,7 -6,12 0,1 -1,2 -1,3 -1,0 -2,0 -2,0l-7 0c-1,0 -1,0 -2,0 0,-1 -1,-2 -1,-2 1,-5 2,-9 4,-14 2,-4 6,-8 11,-11 4,-2 10,-4 16,-4 10,0 18,3 23,8 5,5 7,12 7,20 0,5 -1,10 -4,15 -3,4 -7,9 -13,14l-26 26 42 0c1,0 2,1 2,1 1,1 1,2 1,3l0 5c0,0 0,1 -1,2 0,0 -1,1 -2,1l-58 0zm107 1c-7,0 -13,-1 -18,-4 -5,-2 -8,-5 -11,-9 -2,-4 -4,-8 -4,-12l0 -1c0,0 0,-1 1,-1 0,-1 1,-1 2,-1l6 0c2,0 3,1 4,3 1,5 4,8 7,11 4,2 8,3 13,3 6,0 11,-2 15,-5 4,-4 6,-9 6,-16 0,-6 -2,-10 -6,-14 -4,-3 -9,-5 -15,-5 -4,0 -6,0 -8,1 -2,1 -4,2 -6,4 -1,0 -2,1 -3,2 -1,0 -2,0 -2,0l-7 0c-1,0 -1,0 -2,-1 -1,0 -1,-1 -1,-2l4 -44c1,-2 2,-3 4,-3l46 0c1,0 1,0 2,0 1,1 1,2 1,3l0 5c0,0 -1,1 -1,2 -1,0 -1,1 -2,1l-39 0 -2 26c4,-3 10,-4 17,-4 6,0 12,1 16,3 5,3 9,6 12,11 3,4 4,9 4,16 0,6 -1,12 -4,17 -3,4 -7,8 -12,10 -5,3 -11,4 -17,4zm82 0c-12,0 -20,-3 -25,-10 -6,-7 -9,-16 -9,-26l0 -12 0 -12c0,-10 3,-19 9,-26 5,-6 13,-10 25,-10 11,0 19,4 25,10 5,7 8,16 8,26 0,3 0,7 0,12 0,5 0,9 0,12 0,10 -3,19 -8,26 -6,7 -14,10 -25,10zm0 -11c6,0 12,-2 15,-7 3,-4 5,-11 5,-19 1,-3 1,-6 1,-11 0,-5 0,-9 -1,-11 0,-8 -2,-14 -5,-19 -4,-5 -9,-7 -15,-7 -7,0 -12,2 -16,7 -3,5 -5,11 -5,19l0 11 0 11c0,8 2,15 5,19 4,5 9,7 16,7zm87 10c-1,0 -1,-1 -2,-1 0,-1 -1,-2 -1,-2l0 -63c0,-1 1,-2 1,-3 1,0 1,0 2,0l40 0c1,0 1,0 2,0 0,1 1,2 1,3l0 4c0,1 -1,1 -1,2 -1,1 -1,1 -2,1l-31 0 0 56c0,0 0,1 -1,2 0,0 -1,1 -2,1l-6 0zm58 25c-1,0 -2,0 -3,-1 0,0 -1,-1 -1,-2l0 -88c0,-1 1,-2 1,-3 1,0 2,0 3,0l5 0c1,0 2,0 2,0 1,1 1,2 1,3l0 5c5,-6 13,-10 22,-10 9,0 16,3 21,9 5,6 7,13 7,23 0,1 0,2 0,4 0,2 0,4 0,5 0,9 -2,16 -7,22 -5,6 -12,9 -21,9 -9,0 -17,-3 -21,-10l0 31c0,1 -1,1 -1,2 -1,1 -2,1 -3,1l-5 0zm28 -34c6,0 11,-2 13,-6 3,-4 5,-10 5,-16 0,-1 0,-2 0,-4 0,-17 -6,-25 -18,-25 -7,0 -11,2 -14,6 -4,4 -5,9 -5,14 -1,1 -1,3 -1,5 0,3 0,5 1,6 0,5 1,10 5,14 3,4 8,6 14,6zm50 9c-1,0 -1,-1 -2,-1 0,-1 -1,-2 -1,-2l0 -63c0,-1 1,-2 1,-3 1,0 1,0 2,0l6 0c1,0 2,0 2,0 1,1 1,2 1,3l0 25 37 0 0 -25c0,-1 0,-2 1,-3 0,0 1,0 2,0l6 0c1,0 1,0 2,0 1,1 1,2 1,3l0 63c0,0 0,1 -1,2 -1,0 -1,1 -2,1l-6 0c-1,0 -2,-1 -2,-1 -1,-1 -1,-2 -1,-2l0 -28 -37 0 0 28c0,0 0,1 -1,2 0,0 -1,1 -2,1l-6 0zm74 11c-1,0 -1,0 -2,-1 0,-1 -1,-1 -1,-2 0,0 0,-1 1,-1l45 -110c1,-1 2,-2 4,-2l5 0c0,0 1,0 1,1 1,1 1,1 1,2 0,0 0,1 0,1l-46 110c0,0 0,1 -1,1 0,1 -1,1 -2,1l-5 0zm130 -80c1,0 2,0 2,0 1,1 1,1 1,2l0 64c0,1 0,1 -1,2 0,0 -1,1 -2,1l-6 0c-1,0 -1,-1 -2,-1 0,-1 -1,-1 -1,-2l0 -45 -17 33c-1,1 -1,2 -2,3 0,0 -1,1 -2,1l-4 0c-1,0 -2,-1 -2,-1 -1,-1 -1,-2 -2,-3l-17 -32 0 44c0,1 -1,1 -1,2 -1,0 -1,1 -2,1l-6 0c-1,0 -2,-1 -2,-1 -1,-1 -1,-1 -1,-2l0 -64c0,-1 0,-1 1,-2 0,0 1,0 1,0l7 0c1,0 2,0 3,2l23 42 23 -42c1,-2 2,-2 3,-2l6 0zm25 -13c-1,0 -1,-1 -2,-1 -1,-1 -1,-2 -1,-3l0 -6c0,-1 0,-2 1,-3 1,0 1,-1 2,-1l8 0c1,0 2,1 2,1 1,1 1,2 1,3l0 6c0,1 0,2 -1,3 0,0 -1,1 -2,1l-8 0zm1 82c-1,0 -1,-1 -2,-1 -1,-1 -1,-2 -1,-2l0 -63c0,-1 0,-2 1,-3 1,0 1,0 2,0l6 0c1,0 2,0 2,0 1,1 1,2 1,3l0 63c0,0 0,1 -1,2 0,0 -1,1 -2,1l-6 0zm57 1c-10,0 -17,-3 -23,-8 -5,-5 -8,-13 -8,-23l0 -5 0 -5c0,-10 3,-17 8,-23 6,-5 13,-8 23,-8 6,0 11,1 16,4 4,2 7,5 10,8 2,3 3,7 3,10 0,1 0,2 -1,2 0,1 -1,1 -2,1l-6 0c-1,0 -1,0 -2,0 0,-1 -1,-2 -1,-3 -2,-4 -4,-7 -7,-9 -2,-2 -6,-3 -10,-3 -6,0 -10,2 -13,6 -4,3 -6,8 -6,15l0 5 0 5c0,7 2,12 6,16 3,3 7,5 13,5 4,0 8,-1 10,-3 3,-2 5,-5 7,-9 0,-1 1,-2 1,-2 1,-1 1,-1 2,-1l6 0c1,0 2,0 2,1 1,1 1,1 1,2 0,3 -1,7 -3,10 -3,3 -6,6 -10,9 -5,2 -10,3 -16,3zm94 -70c1,0 2,0 2,0 1,1 1,2 1,3l0 63c0,0 0,1 -1,2 0,0 -1,1 -2,1l-6 0c-1,0 -2,-1 -2,-1 -1,-1 -1,-2 -1,-2l0 -22 -14 0 -16 23c0,0 -1,1 -1,1 -1,0 -1,1 -2,1l-6 0c-1,0 -1,-1 -2,-1 0,-1 -1,-1 -1,-2 0,-1 1,-2 1,-3l15 -21c-5,-2 -8,-5 -10,-8 -3,-4 -4,-8 -4,-13 0,-7 2,-13 7,-16 4,-4 11,-5 20,-5l22 0zm-9 9l-14 0c-5,0 -9,1 -11,3 -2,2 -4,5 -4,9 0,4 2,7 4,10 2,2 5,3 10,3l15 0 0 -25zm91 76c-1,0 -2,0 -2,0 -1,-1 -1,-2 -1,-3l0 -13 -53 0c-1,0 -1,-1 -2,-1 -1,-1 -1,-2 -1,-2l0 -63c0,-1 0,-2 1,-3 1,0 1,0 2,0l6 0c1,0 2,0 2,0 1,1 1,2 1,3l0 55 35 0 0 -55c0,-1 0,-2 0,-3 1,0 2,0 3,0l6 0c0,0 1,0 2,0 0,1 0,2 0,3l0 55 7 0c1,0 1,1 2,1 1,1 1,1 1,2l0 21c0,1 0,2 -1,3 -1,0 -1,0 -2,0l-6 0zm26 -16c-1,0 -2,-1 -2,-1 -1,-1 -1,-2 -1,-2l0 -63c0,-1 0,-2 1,-3 0,0 1,0 2,0l6 0c1,0 1,0 2,0 1,1 1,2 1,3l0 19 15 0c9,0 15,2 19,6 5,4 7,10 7,18 0,8 -2,13 -7,17 -4,4 -11,6 -21,6l-22 0zm23 -10c5,0 9,-1 12,-3 2,-2 4,-5 4,-10 0,-5 -2,-8 -4,-11 -3,-2 -7,-3 -12,-3l-14 0 0 27 14 0z"/>
  </g>
 </g>
</svg>
