<?xml version="1.0" encoding="UTF-8"?>
<!DOCTYPE svg PUBLIC "-//W3C//DTD SVG 1.1//EN" "http://www.w3.org/Graphics/SVG/1.1/DTD/svg11.dtd">
<!-- Creator: CorelDRAW X7 -->
<svg xmlns="http://www.w3.org/2000/svg" xml:space="preserve" width="24.2002mm" height="15.5093mm" version="1.1" style="shape-rendering:geometricPrecision; text-rendering:geometricPrecision; image-rendering:optimizeQuality; fill-rule:evenodd; clip-rule:evenodd"
viewBox="0 0 379 243"
 xmlns:xlink="http://www.w3.org/1999/xlink">
 <defs>
  <style type="text/css">
   <![CDATA[
    .str0 {stroke:#2B2A29;stroke-width:2.76175}
    .fil0 {fill:#2B2A29;fill-rule:nonzero}
   ]]>
  </style>
 </defs>
 <g id="Слой_x0020_1">
  <metadata id="CorelCorpID_0Corel-Layer"/>
  <path class="fil0 str0" d="M35 45c0,1 0,1 0,1 0,1 0,1 0,1 -1,1 -1,1 -1,1l-4 0c-1,0 -1,-1 -2,-1l-12 -20 -8 0 0 19c0,1 -1,1 -1,1 0,1 -1,1 -1,1l-3 0c-1,0 -1,0 -1,-1 0,0 -1,0 -1,-1l0 -43c0,-1 1,-1 1,-1 0,0 0,-1 1,-1l3 0c1,0 1,1 1,1 0,0 1,0 1,1l0 18 7 0 12 -19c1,0 1,-1 2,-1l4 0c0,0 1,1 1,1 0,0 0,0 0,1 0,0 0,0 0,1l-13 20 14 21zm22 3c-5,0 -9,-1 -12,-4 -2,-2 -4,-6 -4,-11l0 -2 0 -3c0,-5 2,-9 5,-11 2,-3 6,-4 11,-4 4,0 8,1 11,4 3,2 4,6 4,11 0,1 0,2 0,3 0,0 0,1 0,2 0,5 -1,9 -4,11 -3,3 -6,4 -11,4zm0 -5c3,0 5,0 6,-2 2,-2 3,-5 3,-8 0,0 0,-1 0,-2 0,-2 0,-3 0,-3 0,-3 -1,-6 -3,-8 -1,-1 -3,-2 -6,-2 -3,0 -5,1 -7,2 -2,2 -3,5 -3,8l0 3 0 2c0,3 1,6 3,8 2,2 4,2 7,2zm57 -30c1,0 1,0 1,1 1,0 1,0 1,1l0 31c0,1 0,1 -1,1 0,1 0,1 -1,1l-3 0c0,0 -1,0 -1,-1 0,0 0,0 0,-1l0 -22 -9 16c0,1 0,2 -1,2 0,0 0,0 -1,0l-2 0c0,0 -1,0 -1,0 0,0 -1,-1 -1,-2l-8 -15 0 21c0,1 -1,1 -1,1 0,1 0,1 -1,1l-3 0c0,0 -1,0 -1,-1 0,0 0,0 0,-1l0 -31c0,-1 0,-1 0,-1 0,-1 1,-1 1,-1l3 0c1,0 1,1 2,1l11 22 12 -22c0,0 0,-1 1,-1l3 0zm13 35c0,0 -1,0 -1,-1 0,0 0,0 0,-1l0 -31c0,-1 0,-1 0,-1 0,-1 1,-1 1,-1l26 0c1,0 1,0 1,1 1,0 1,0 1,1l0 31c0,1 0,1 -1,1 0,1 0,1 -1,1l-3 0c0,0 0,0 -1,-1 0,0 0,0 0,-1l0 -28 -17 0 0 28c0,1 0,1 -1,1 0,1 0,1 -1,1l-3 0zm36 0c0,0 -1,0 -1,-1 0,0 0,0 0,-1l0 -2c0,-1 0,-1 0,-1 0,0 1,-1 1,-1 2,0 4,-1 5,-4 1,-3 1,-8 1,-15l0 -8c0,-1 0,-1 1,-1 0,-1 0,-1 1,-1l21 0c0,0 1,0 1,1 0,0 0,0 0,1l0 31c0,1 0,1 0,1 -1,1 -1,1 -1,1l-3 0c-1,0 -1,0 -1,-1 -1,0 -1,0 -1,-1l0 -28 -12 0 0 6c0,8 -1,14 -3,18 -2,4 -5,6 -9,6zm54 0c-5,0 -8,-1 -11,-4 -3,-3 -4,-6 -4,-11l0 -3 0 -2c0,-4 1,-8 4,-11 3,-3 6,-4 11,-4 5,0 8,1 11,4 3,3 4,8 4,13l0 1c0,1 0,1 0,1 -1,0 -1,1 -1,1l-23 0 0 0c0,3 1,6 2,8 2,2 4,3 7,3 2,0 4,-1 5,-2 1,0 2,-1 3,-2 0,-1 1,-1 1,-1 0,0 0,0 1,0l3 0c0,0 1,0 1,0 0,0 0,1 0,1 0,1 0,2 -2,3 -1,2 -2,3 -5,4 -2,1 -4,1 -7,1zm9 -20l0 0c0,-3 -1,-6 -2,-8 -2,-2 -4,-3 -7,-3 -3,0 -5,1 -7,3 -2,2 -2,5 -2,8l0 0 18 0zm43 18c0,0 0,0 0,1 0,0 0,1 -1,1l-4 0c-1,0 -1,-1 -2,-1l-10 -14 -6 0 0 13c0,1 0,1 0,1 -1,1 -1,1 -1,1l-3 0c-1,0 -1,0 -1,-1 -1,0 -1,0 -1,-1l0 -31c0,-1 0,-1 1,-1 0,-1 0,-1 1,-1l3 0c0,0 0,0 1,1 0,0 0,0 0,1l0 13 6 0 9 -14c1,0 1,-1 2,-1l3 0c1,0 1,0 1,1 1,0 1,0 1,0 0,0 0,1 0,1 0,0 -1,0 -1,0l-10 15 12 16zm19 2c-5,0 -9,-1 -11,-4 -3,-2 -4,-6 -4,-11l-1 -2 1 -3c0,-5 1,-9 4,-11 2,-3 6,-4 11,-4 3,0 6,0 8,1 2,1 4,3 5,5 1,1 1,3 1,5 1,0 0,0 0,1 0,0 -1,0 -1,0l-3 0c0,0 -1,0 -1,0 0,0 0,-1 -1,-1 0,-2 -2,-4 -3,-5 -1,-1 -3,-1 -5,-1 -3,0 -5,1 -7,2 -1,2 -2,5 -2,8l-1 3 1 2c0,3 1,6 2,8 2,1 4,2 7,2 2,0 4,0 5,-1 2,-1 3,-2 3,-5 1,0 1,-1 1,-1 0,0 1,0 1,0l3 0c0,0 1,0 1,0 0,1 1,1 0,2 0,1 0,3 -1,4 -1,2 -3,4 -5,5 -2,1 -5,1 -8,1zm24 0c0,0 -1,0 -1,-1 0,0 -1,0 -1,-1l0 -31c0,-1 1,-1 1,-1 0,-1 1,-1 1,-1l3 0c0,0 1,0 1,1 0,0 0,0 0,1l0 13 19 0 0 -13c0,-1 0,-1 0,-1 0,-1 1,-1 1,-1l3 0c1,0 1,0 1,1 1,0 1,0 1,1l0 31c0,1 0,1 -1,1 0,1 0,1 -1,1l-3 0c0,0 -1,0 -1,-1 0,0 0,0 0,-1l0 -13 -19 0 0 13c0,1 0,1 0,1 0,1 -1,1 -1,1l-3 0zm48 0c-2,0 -4,0 -6,-1 -2,-1 -3,-2 -4,-3 -1,-2 -2,-4 -2,-6 0,-2 1,-5 4,-7 2,-2 5,-3 10,-3l9 -2 0 -2c0,-4 -2,-7 -7,-7 -2,0 -4,1 -5,2 -2,0 -2,1 -3,3 0,0 0,0 -1,0 0,1 0,1 0,1l-3 0c0,0 -1,0 -1,-1 0,0 0,0 0,-1 0,-1 0,-2 1,-3 1,-2 2,-3 4,-4 2,-1 5,-1 8,-1 5,0 8,1 10,3 2,2 4,5 4,9l0 21c0,1 -1,1 -1,1 0,1 -1,1 -1,1l-3 0c0,0 -1,0 -1,-1 0,0 0,0 0,-1l0 -3c-1,2 -3,3 -5,4 -1,1 -4,1 -7,1zm2 -4c2,0 5,-1 7,-3 2,-2 2,-5 2,-9l0 -1 -7 1c-3,0 -6,1 -8,2 -1,1 -2,2 -2,4 0,2 1,3 2,4 2,1 3,2 6,2zm-287 61c-5,0 -8,-2 -11,-5 -3,-2 -4,-6 -4,-10l0 -3 0 -3c0,-5 1,-8 4,-11 3,-3 6,-4 11,-4 5,0 9,1 11,4 3,3 4,6 5,11 0,1 0,2 0,3 0,1 0,2 0,3 -1,4 -2,8 -5,10 -2,3 -6,5 -11,5zm0 -5c3,0 5,-1 7,-3 1,-2 2,-4 3,-8 0,0 0,-1 0,-2 0,-2 0,-2 0,-3 -1,-3 -2,-6 -3,-8 -2,-1 -4,-2 -7,-2 -3,0 -5,1 -7,2 -1,2 -2,5 -2,8l0 3 0 2c0,4 1,6 2,8 2,2 4,3 7,3zm22 4c0,0 0,0 -1,0 0,-1 0,-1 0,-1 0,-1 0,-1 1,-2l11 -15 -11 -14c0,0 0,-1 0,-1 0,-1 0,-1 0,-1 0,0 1,-1 1,-1l3 0c1,0 2,1 2,2l9 11 9 -11c0,-1 0,-1 1,-1 0,0 0,-1 1,-1l3 0c0,0 0,1 1,1 0,0 0,0 0,1 0,0 0,1 0,1l-11 14 11 15c0,1 1,1 1,2 0,0 -1,0 -1,1 0,0 0,0 -1,0l-3 0c-1,0 -1,0 -2,-1l-9 -12 -10 12c0,0 0,1 0,1 -1,0 -1,0 -1,0l-4 0zm52 1c-5,0 -9,-2 -12,-5 -2,-2 -4,-6 -4,-10l0 -3 0 -3c0,-5 2,-8 4,-11 3,-3 7,-4 12,-4 4,0 8,1 11,4 2,3 4,6 4,11 0,1 0,2 0,3 0,1 0,2 0,3 0,4 -2,8 -4,10 -3,3 -7,5 -11,5zm0 -5c2,0 5,-1 6,-3 2,-2 3,-4 3,-8 0,0 0,-1 0,-2 0,-2 0,-2 0,-3 0,-3 -1,-6 -3,-8 -1,-1 -4,-2 -6,-2 -3,0 -5,1 -7,2 -2,2 -3,5 -3,8l0 3 0 2c0,4 1,6 3,8 2,2 4,3 7,3zm25 17c0,0 -1,-1 -1,-1 0,0 0,-1 0,-1l0 -44c0,0 0,-1 0,-1 0,0 1,-1 1,-1l3 0c0,0 1,1 1,1 0,0 0,1 0,1l0 3c3,-3 7,-5 11,-5 5,0 8,1 11,4 2,3 3,7 3,11 1,1 1,2 1,3 0,1 0,1 -1,2 0,4 -1,8 -3,11 -3,3 -6,5 -11,5 -4,0 -8,-2 -10,-5l0 15c0,0 -1,1 -1,1 0,0 0,1 -1,1l-3 0zm14 -18c3,0 6,-1 7,-3 2,-2 2,-4 2,-7 1,-1 1,-1 1,-2 0,-9 -4,-13 -10,-13 -3,0 -5,1 -7,3 -1,2 -2,5 -2,7 0,1 0,2 0,3 0,1 0,2 0,2 0,3 1,6 2,7 2,2 4,3 7,3zm38 6c-5,0 -9,-2 -11,-5 -3,-2 -4,-6 -5,-10l0 -3 0 -3c1,-5 2,-8 5,-11 2,-3 6,-4 11,-4 5,0 8,1 11,4 3,3 4,6 4,11 0,1 0,2 0,3 0,1 0,2 0,3 0,4 -1,8 -4,10 -3,3 -6,5 -11,5zm0 -5c3,0 5,-1 7,-3 1,-2 2,-4 2,-8 0,0 0,-1 0,-2 0,-2 0,-2 0,-3 0,-3 -1,-6 -2,-8 -2,-1 -4,-2 -7,-2 -3,0 -5,1 -7,2 -1,2 -2,5 -3,8l0 3 0 2c1,4 2,6 3,8 2,2 4,3 7,3zm25 4c0,0 0,0 -1,0 0,-1 0,-1 0,-2l0 -31c0,0 0,-1 0,-1 1,0 1,-1 1,-1l3 0c1,0 1,1 1,1 1,0 1,1 1,1l0 13 18 0 0 -13c0,0 0,-1 1,-1 0,0 0,-1 1,-1l3 0c0,0 0,1 1,1 0,0 0,1 0,1l0 31c0,1 0,1 0,2 -1,0 -1,0 -1,0l-3 0c-1,0 -1,0 -1,0 -1,-1 -1,-1 -1,-2l0 -13 -18 0 0 13c0,1 0,1 -1,2 0,0 0,0 -1,0l-3 0zm49 1c-3,0 -5,-1 -6,-2 -2,-1 -4,-2 -5,-3 -1,-2 -1,-4 -1,-5 0,-3 1,-6 3,-8 3,-1 6,-3 10,-3l10 -2 0 -2c0,-4 -3,-6 -8,-6 -2,0 -4,0 -5,1 -1,1 -2,2 -3,3 0,0 0,0 0,1 0,0 -1,0 -1,0l-3 0c0,0 0,0 -1,-1 0,0 0,0 0,-1 0,-1 0,-2 1,-3 1,-2 3,-3 5,-4 2,-1 4,-1 7,-1 5,0 9,1 11,3 2,3 3,5 3,9l0 21c0,1 0,1 -1,2 0,0 0,0 -1,0l-3 0c0,0 0,0 -1,0 0,-1 0,-1 0,-2l0 -2c-1,1 -2,2 -4,3 -2,1 -4,2 -7,2zm1 -5c3,0 5,-1 7,-3 2,-2 3,-5 3,-8l0 -2 -8 1c-3,0 -5,1 -7,2 -2,1 -3,3 -3,4 0,2 1,3 3,4 1,1 3,2 5,2z"/>
  <path class="fil0 str0" d="M138 166c0,1 0,1 0,1 0,0 0,1 0,1 0,0 0,0 -1,0l-4 0c0,0 0,0 -1,0 0,0 0,-1 0,-1l-10 -14 -5 0 0 14c0,0 0,0 -1,1 0,0 0,0 -1,0l-3 0c0,0 0,0 -1,0 0,-1 0,-1 0,-1l0 -14 -5 0 -10 14c-1,1 -1,1 -2,1l-4 0c0,0 0,0 -1,0 0,0 0,-1 0,-1 0,0 0,0 0,-1l12 -16 -10 -14c-1,-1 -1,-1 -1,-1 0,-1 0,-1 1,-1 0,0 0,0 1,0l3 0c1,0 1,0 2,1l9 13 5 0 0 -13c0,0 0,-1 0,-1 1,0 1,0 1,0l3 0c1,0 1,0 1,0 1,0 1,1 1,1l0 13 5 0 9 -13c0,-1 1,-1 2,-1l3 0c0,0 0,0 1,0 0,0 0,0 0,1 0,0 0,0 0,1l-10 14 11 16zm36 -32c0,0 1,0 1,0 0,0 0,1 0,1l0 32c0,0 0,0 0,1 0,0 -1,0 -1,0l-3 0c0,0 -1,0 -1,0 0,-1 0,-1 0,-1l0 -25 -19 25c-1,1 -1,1 -2,1l-3 0c0,0 0,0 -1,0 0,-1 0,-1 0,-1l0 -32c0,0 0,-1 0,-1 1,0 1,0 2,0l2 0c1,0 1,0 2,0 0,0 0,1 0,1l0 24 19 -24c0,-1 1,-1 1,-1l3 0zm22 34c-1,0 -1,0 -1,0 -1,-1 -1,-1 -1,-1l0 -28 -11 0c-1,0 -1,0 -1,-1 -1,0 -1,0 -1,-1l0 -2c0,0 0,-1 1,-1 0,0 0,0 1,0l29 0c0,0 1,0 1,0 0,0 0,1 0,1l0 2c0,1 0,1 0,1 0,1 -1,1 -1,1l-12 0 0 28c0,0 0,0 0,1 -1,0 -1,0 -1,0l-3 0zm21 0c0,0 0,0 -1,0 0,-1 0,-1 0,-1l0 -3c0,0 0,0 0,-1 0,0 1,0 1,0 2,0 4,-2 5,-5 1,-3 2,-8 2,-14l0 -9c0,0 0,-1 0,-1 0,0 1,0 1,0l21 0c0,0 1,0 1,0 0,0 0,1 0,1l0 32c0,0 0,0 0,1 0,0 -1,0 -1,0l-3 0c-1,0 -1,0 -1,0 0,-1 -1,-1 -1,-1l0 -28 -12 0 0 5c0,9 -1,15 -3,19 -2,3 -5,5 -9,5zm50 1c-2,0 -4,-1 -6,-1 -2,-1 -3,-3 -4,-4 -2,-2 -2,-3 -2,-5 0,-3 1,-5 4,-7 2,-2 5,-3 9,-4l10 -1 0 -2c0,-5 -2,-7 -8,-7 -2,0 -3,0 -5,1 -1,1 -2,2 -2,3 0,0 -1,1 -1,1 0,0 0,0 -1,0l-2 0c-1,0 -1,0 -1,0 -1,-1 -1,-1 -1,-1 0,-1 1,-3 2,-4 1,-1 2,-2 4,-3 2,-1 5,-2 7,-2 5,0 9,1 11,3 2,3 3,6 3,9l0 22c0,0 0,0 0,1 0,0 -1,0 -1,0l-3 0c-1,0 -1,0 -1,0 -1,-1 -1,-1 -1,-1l0 -3c-1,1 -2,2 -4,3 -2,1 -4,2 -7,2zm1 -5c3,0 6,-1 7,-3 2,-2 3,-5 3,-8l0 -2 -8 1c-3,1 -5,1 -7,2 -1,1 -2,3 -2,4 0,2 1,4 2,5 1,1 3,1 5,1zm-209 24c0,0 -1,0 -1,-1 0,0 -1,0 -1,-1l0 -3c0,-1 1,-1 1,-1 0,-1 1,-1 1,-1l4 0c0,0 1,0 1,1 0,0 0,0 0,1l0 3c0,1 0,1 0,1 0,1 -1,1 -1,1l-4 0zm1 41c-1,0 -1,0 -2,-1 0,0 0,0 0,-1l0 -31c0,-1 0,-1 0,-1 1,0 1,-1 2,-1l2 0c1,0 1,1 2,1 0,0 0,0 0,1l0 31c0,1 0,1 0,1 -1,1 -1,1 -2,1l-2 0zm60 -18c0,0 0,1 0,2 0,1 0,1 0,2 0,4 -1,8 -4,10 -3,3 -6,5 -11,5 -5,0 -9,-2 -12,-5 -2,-3 -4,-6 -4,-11l0 -8c0,-7 1,-11 3,-15 1,-3 4,-5 7,-6 3,-2 8,-3 14,-5l2 -1 1 0c0,0 0,1 0,1 1,0 1,0 1,1l1 2 0 1c0,0 -1,1 -1,1 -1,0 -2,0 -4,1 -5,1 -9,2 -11,3 -2,1 -4,2 -5,4 -1,2 -2,5 -2,8 1,-1 3,-2 4,-3 2,-1 5,-2 7,-2 4,0 8,1 10,4 3,3 4,6 4,11zm-6 3c0,0 0,0 0,-1 0,-1 0,-1 0,-2 0,-3 -1,-6 -2,-8 -2,-1 -4,-2 -7,-2 -3,0 -5,1 -7,2 -2,2 -3,5 -3,8l0 2 0 1c0,4 1,6 3,8 2,2 4,3 7,3 3,0 5,-1 6,-3 2,-2 3,-4 3,-8zm16 -26c-1,0 -1,0 -1,-1 -1,0 -1,0 -1,-1l0 -3c0,-1 0,-1 1,-1 0,-1 0,-1 1,-1l4 0c0,0 0,0 1,1 0,0 0,0 0,1l0 3c0,1 0,1 0,1 -1,1 -1,1 -1,1l-4 0zm0 41c0,0 -1,0 -1,-1 0,0 0,0 0,-1l0 -31c0,-1 0,-1 0,-1 0,0 1,-1 1,-1l3 0c1,0 1,1 1,1 0,0 1,0 1,1l0 31c0,1 -1,1 -1,1 0,1 0,1 -1,1l-3 0zm26 1c-3,0 -5,-1 -8,-2 -2,-1 -3,-2 -4,-4 -1,-1 -2,-3 -2,-4 0,0 1,-1 1,-1 0,0 0,0 1,0l3 0c0,0 0,0 1,0 0,0 0,0 0,1 1,2 2,3 3,4 2,0 4,1 6,1 2,0 4,-1 6,-2 1,-1 2,-2 2,-4 0,-4 -2,-6 -7,-6l-3 0c-1,0 -1,0 -1,0 -1,0 -1,-1 -1,-1l0 -2c0,0 0,-1 1,-1 0,0 0,0 1,0l3 0c4,0 6,-2 6,-5 0,-1 -1,-3 -2,-4 -1,-1 -3,-1 -6,-1 -2,0 -4,0 -5,1 -1,1 -2,2 -2,4 -1,1 -1,1 -2,1l-3 0c0,0 0,0 -1,0 0,0 0,-1 0,-1 0,-2 0,-4 1,-5 2,-2 3,-3 5,-4 2,-1 4,-1 7,-1 3,0 6,0 8,1 2,1 3,2 4,4 1,1 2,3 2,4 0,2 -1,4 -1,5 -1,1 -2,2 -4,3 2,0 4,1 5,3 0,1 1,3 1,5 0,4 -2,6 -4,8 -3,2 -6,3 -11,3zm24 -1c-1,0 -1,0 -1,-1 -1,0 -1,0 -1,-1l0 -31c0,-1 0,-1 1,-1 0,0 0,-1 1,-1l3 0c0,0 1,1 1,1 0,0 0,0 0,1l0 13 19 0 0 -13c0,-1 0,-1 0,-1 0,0 1,-1 1,-1l3 0c1,0 1,1 1,1 0,0 1,0 1,1l0 31c0,1 -1,1 -1,1 0,1 -1,1 -1,1l-3 0c0,0 -1,0 -1,-1 0,0 0,0 0,-1l0 -13 -19 0 0 13c0,1 0,1 0,1 0,1 -1,1 -1,1l-3 0zm52 1c-4,0 -8,-2 -11,-5 -2,-3 -4,-6 -4,-11l0 -2 0 -3c0,-4 2,-8 4,-11 3,-3 7,-4 11,-4 5,0 9,1 12,4 2,3 4,8 4,13l0 1c0,1 -1,1 -1,1 0,1 -1,1 -1,1l-23 0 0 0c0,3 1,6 3,8 1,2 3,3 6,3 2,0 4,-1 5,-2 2,0 3,-1 3,-2 1,-1 1,-1 1,-1 0,0 1,0 1,0l3 0c1,0 1,0 1,0 0,0 1,1 1,1 0,1 -1,2 -2,3 -1,2 -3,3 -5,4 -2,1 -5,2 -8,2zm10 -21l0 0c0,-3 -1,-6 -3,-8 -2,-2 -4,-3 -7,-3 -3,0 -5,1 -7,3 -1,2 -2,5 -2,8l0 0 19 0zm27 21c-4,0 -8,-2 -11,-5 -2,-2 -4,-6 -4,-11l0 -2 0 -3c0,-5 2,-9 4,-11 3,-3 7,-4 11,-4 4,0 6,0 8,1 3,2 4,3 5,5 1,1 2,3 2,5 0,0 0,0 0,1 -1,0 -1,0 -1,0l-3 0c-1,0 -1,0 -1,0 -1,0 -1,-1 -1,-1 -1,-2 -2,-4 -3,-5 -2,-1 -3,-1 -6,-1 -2,0 -5,1 -6,2 -2,2 -3,5 -3,8l0 3 0 2c0,3 1,6 3,8 1,2 4,2 6,2 3,0 4,0 6,-1 1,-1 2,-2 3,-5 0,0 0,0 1,-1 0,0 0,0 1,0l3 0c0,0 0,0 1,1 0,0 0,0 0,1 0,1 -1,3 -2,5 -1,1 -2,3 -5,4 -2,1 -4,2 -8,2zm51 -36c0,0 1,1 1,1 0,0 1,0 1,1 0,0 -1,0 -1,1l-12 30 -1 1c-1,3 -2,5 -3,7 -1,2 -2,3 -4,5 -1,1 -3,1 -5,1l-2 0c-1,0 -1,0 -2,0 0,0 0,-1 0,-1l0 -2c0,-1 0,-1 0,-1 1,-1 1,-1 2,-1l1 0c1,0 2,0 3,0 0,-1 1,-1 1,-2 1,-1 2,-2 2,-4l1 -3 -13 -30c0,-1 0,-1 0,-1 0,-1 0,-1 1,-1 0,0 0,-1 1,-1l2 0c1,0 2,1 2,1l10 25 11 -25c0,0 1,-1 1,-1l3 0z"/>
 </g>
</svg>
