<?xml version="1.0" encoding="UTF-8"?>
<!DOCTYPE svg PUBLIC "-//W3C//DTD SVG 1.1//EN" "http://www.w3.org/Graphics/SVG/1.1/DTD/svg11.dtd">
<!-- Creator: CorelDRAW X7 -->
<svg xmlns="http://www.w3.org/2000/svg" xml:space="preserve" width="34.3382mm" height="7.3311mm" version="1.1" style="shape-rendering:geometricPrecision; text-rendering:geometricPrecision; image-rendering:optimizeQuality; fill-rule:evenodd; clip-rule:evenodd"
viewBox="0 0 880 188"
 xmlns:xlink="http://www.w3.org/1999/xlink">
 <defs>
  <style type="text/css">
   <![CDATA[
    .str1 {stroke:#FEFEFE;stroke-width:9.04122;stroke-linecap:round;stroke-linejoin:round}
    .str0 {stroke:#2B2A29;stroke-width:9.04122;stroke-linecap:round;stroke-linejoin:round}
    .fil0 {fill:none;fill-rule:nonzero}
    .fil1 {fill:#FFED00;fill-rule:nonzero}
    .fil2 {fill:black;fill-rule:nonzero}
   ]]>
  </style>
 </defs>
 <g id="Слой_x0020_1">
  <metadata id="CorelCorpID_0Corel-Layer"/>
  <g>
   <path class="fil0 str0" d="M42 89c-12,0 -20,-3 -27,-9 -6,-5 -9,-12 -10,-21 0,-3 0,-7 0,-12 0,-6 0,-10 0,-13 0,-6 2,-11 5,-15 3,-5 7,-8 13,-11 5,-2 11,-3 19,-3 7,0 13,1 19,3 5,3 9,6 12,11 3,4 5,9 5,15 1,3 1,7 1,13 0,5 0,9 -1,12 0,9 -4,16 -10,21 -6,6 -15,9 -26,9zm0 -23c4,0 6,-3 6,-8 0,-2 0,-6 0,-12 0,-5 0,-9 0,-11 0,-5 -2,-8 -6,-8 -4,0 -6,3 -7,8 0,4 0,8 0,11 0,4 0,8 0,12 1,5 3,8 7,8zm83 23c-8,0 -15,-1 -21,-4 -6,-2 -10,-6 -12,-10 -3,-4 -4,-8 -4,-13 0,-4 1,-7 3,-10 2,-4 4,-6 7,-8 -5,-3 -7,-8 -7,-15 0,-4 1,-8 3,-12 3,-4 6,-7 11,-9 6,-2 12,-3 20,-3 12,0 21,2 26,6 6,5 8,11 8,18 0,7 -2,12 -7,15 4,2 6,4 8,8 2,3 3,6 3,10 0,5 -1,9 -4,13 -3,4 -7,8 -12,10 -6,3 -13,4 -22,4zm0 -52c3,0 4,-1 6,-2 1,-1 2,-3 2,-4 0,-2 -1,-4 -2,-5 -2,-1 -3,-2 -6,-2 -2,0 -4,1 -5,2 -1,1 -2,3 -2,5 0,1 1,3 2,4 1,1 3,2 5,2zm0 32c3,0 5,-1 6,-2 2,-1 2,-3 2,-5 0,-2 0,-4 -2,-5 -1,-1 -3,-2 -6,-2 -2,0 -4,1 -6,2 -1,1 -2,3 -2,5 0,2 1,4 2,5 2,1 4,2 6,2zm84 20c-11,0 -20,-3 -26,-9 -7,-5 -10,-12 -11,-21 0,-3 0,-7 0,-12 0,-6 0,-10 0,-13 1,-6 2,-11 5,-15 3,-5 8,-8 13,-11 5,-2 12,-3 19,-3 7,0 14,1 19,3 5,3 10,6 13,11 3,4 4,9 5,15 0,3 0,7 0,13 0,5 0,9 0,12 -1,9 -4,16 -11,21 -6,6 -15,9 -26,9zm0 -23c4,0 6,-3 6,-8 0,-2 1,-6 1,-12 0,-5 -1,-9 -1,-11 0,-5 -2,-8 -6,-8 -4,0 -6,3 -6,8 -1,4 -1,8 -1,11 0,4 0,8 1,12 0,5 2,8 6,8zm84 23c-11,0 -20,-3 -26,-9 -7,-5 -10,-12 -11,-21 0,-3 0,-7 0,-12 0,-6 0,-10 0,-13 1,-6 2,-11 5,-15 3,-5 8,-8 13,-11 5,-2 12,-3 19,-3 7,0 14,1 19,3 5,3 10,6 13,11 3,4 4,9 5,15 0,3 0,7 0,13 0,5 0,9 0,12 -1,9 -4,16 -11,21 -6,6 -15,9 -26,9zm0 -23c4,0 6,-3 6,-8 0,-2 1,-6 1,-12 0,-5 -1,-9 -1,-11 0,-5 -2,-8 -6,-8 -4,0 -6,3 -6,8 0,4 -1,8 -1,11 0,4 1,8 1,12 0,5 2,8 6,8zm105 23c-9,0 -16,-2 -22,-4 -6,-3 -10,-6 -12,-10 -3,-3 -4,-7 -4,-11 0,0 0,-1 0,-1 1,-1 1,-1 2,-1l24 0c1,0 1,0 2,0 0,1 1,1 2,2 0,1 1,1 3,1 1,1 2,1 5,1 2,0 4,-1 6,-2 1,-1 1,-2 1,-4 0,-4 -2,-5 -7,-5l-15 0c-1,0 -1,-1 -2,-1 -1,-1 -1,-2 -1,-2l0 -10c0,-1 0,-2 1,-3 0,-1 1,-1 1,-2l17 -8 -31 0c-1,0 -2,-1 -2,-1 -1,-1 -1,-2 -1,-3l0 -16c0,-1 0,-2 1,-2 0,-1 1,-1 2,-1l60 0c1,0 1,0 2,1 1,0 1,1 1,2l0 15c0,1 0,2 -1,2 0,1 -1,2 -1,2l-14 10 0 0c14,3 21,11 21,24 0,5 -2,10 -5,14 -3,4 -8,7 -14,9 -5,3 -12,4 -19,4zm84 0c-12,0 -20,-3 -27,-9 -6,-5 -9,-12 -10,-21 0,-3 0,-7 0,-12 0,-6 0,-10 0,-13 0,-6 2,-11 5,-15 3,-5 7,-8 13,-11 5,-2 12,-3 19,-3 7,0 13,1 19,3 5,3 9,6 12,11 3,4 5,9 6,15 0,3 0,7 0,13 0,5 0,9 0,12 -1,9 -5,16 -11,21 -6,6 -15,9 -26,9zm0 -23c4,0 6,-3 6,-8 0,-2 0,-6 0,-12 0,-5 0,-9 0,-11 0,-5 -2,-8 -6,-8 -4,0 -6,3 -7,8 0,4 0,8 0,11 0,4 0,8 0,12 1,5 3,8 7,8zm108 22c-1,0 -2,-1 -2,-1 -1,-1 -1,-2 -1,-3l0 -9 -35 0c-1,0 -2,-1 -2,-1 -1,-1 -1,-2 -1,-3l0 -16c0,-2 0,-3 1,-4l33 -43c1,-2 3,-2 4,-2l25 0c1,0 1,0 2,1 1,0 1,1 1,2l0 42 10 0c1,0 2,0 2,1 1,0 1,1 1,2l0 17c0,1 0,2 -1,3 0,0 -1,1 -2,1l-10 0 0 9c0,1 0,2 -1,3 -1,0 -1,1 -2,1l-22 0zm-15 -36l13 0 0 -17 -13 17zm69 36c-1,0 -1,-1 -2,-1 0,-1 -1,-1 -1,-2 0,0 0,-1 1,-1l25 -54 -32 0c-1,0 -2,-1 -3,-1 0,-1 -1,-2 -1,-2l0 -18c0,-1 1,-2 1,-2 1,-1 2,-1 3,-1l60 0c1,0 2,0 2,1 1,0 1,1 1,2l0 15c0,1 0,2 0,3 0,1 -1,2 -1,3l-26 55c-1,2 -2,3 -5,3l-22 0zm95 0c-1,0 -2,-1 -2,-1 -1,-1 -1,-1 -1,-2 0,0 0,-1 0,-1l26 -54 -32 0c-1,0 -2,-1 -3,-1 0,-1 -1,-2 -1,-2l0 -18c0,-1 1,-2 1,-2 1,-1 2,-1 3,-1l60 0c1,0 2,0 2,1 1,0 1,1 1,2l0 15c0,1 0,2 0,3 0,1 -1,2 -1,3l-26 55c-1,2 -2,3 -5,3l-22 0zm98 0c-1,0 -2,-1 -2,-1 -1,-1 -1,-2 -1,-3l0 -9 -35 0c-1,0 -2,-1 -2,-1 -1,-1 -1,-2 -1,-3l0 -16c0,-2 0,-3 1,-4l33 -43c1,-2 3,-2 5,-2l24 0c1,0 1,0 2,1 1,0 1,1 1,2l0 42 10 0c1,0 2,0 3,1 0,0 0,1 0,2l0 17c0,1 0,2 0,3 -1,0 -2,1 -3,1l-10 0 0 9c0,1 0,2 -1,3 -1,0 -1,1 -2,1l-22 0zm-15 -36l13 0 0 -17 -13 17z"/>
   <path id="1" class="fil1" d="M42 89c-12,0 -20,-3 -27,-9 -6,-5 -9,-12 -10,-21 0,-3 0,-7 0,-12 0,-6 0,-10 0,-13 0,-6 2,-11 5,-15 3,-5 7,-8 13,-11 5,-2 11,-3 19,-3 7,0 13,1 19,3 5,3 9,6 12,11 3,4 5,9 5,15 1,3 1,7 1,13 0,5 0,9 -1,12 0,9 -4,16 -10,21 -6,6 -15,9 -26,9zm0 -23c4,0 6,-3 6,-8 0,-2 0,-6 0,-12 0,-5 0,-9 0,-11 0,-5 -2,-8 -6,-8 -4,0 -6,3 -7,8 0,4 0,8 0,11 0,4 0,8 0,12 1,5 3,8 7,8zm83 23c-8,0 -15,-1 -21,-4 -6,-2 -10,-6 -12,-10 -3,-4 -4,-8 -4,-13 0,-4 1,-7 3,-10 2,-4 4,-6 7,-8 -5,-3 -7,-8 -7,-15 0,-4 1,-8 3,-12 3,-4 6,-7 11,-9 6,-2 12,-3 20,-3 12,0 21,2 26,6 6,5 8,11 8,18 0,7 -2,12 -7,15 4,2 6,4 8,8 2,3 3,6 3,10 0,5 -1,9 -4,13 -3,4 -7,8 -12,10 -6,3 -13,4 -22,4zm0 -52c3,0 4,-1 6,-2 1,-1 2,-3 2,-4 0,-2 -1,-4 -2,-5 -2,-1 -3,-2 -6,-2 -2,0 -4,1 -5,2 -1,1 -2,3 -2,5 0,1 1,3 2,4 1,1 3,2 5,2zm0 32c3,0 5,-1 6,-2 2,-1 2,-3 2,-5 0,-2 0,-4 -2,-5 -1,-1 -3,-2 -6,-2 -2,0 -4,1 -6,2 -1,1 -2,3 -2,5 0,2 1,4 2,5 2,1 4,2 6,2zm84 20c-11,0 -20,-3 -26,-9 -7,-5 -10,-12 -11,-21 0,-3 0,-7 0,-12 0,-6 0,-10 0,-13 1,-6 2,-11 5,-15 3,-5 8,-8 13,-11 5,-2 12,-3 19,-3 7,0 14,1 19,3 5,3 10,6 13,11 3,4 4,9 5,15 0,3 0,7 0,13 0,5 0,9 0,12 -1,9 -4,16 -11,21 -6,6 -15,9 -26,9zm0 -23c4,0 6,-3 6,-8 0,-2 1,-6 1,-12 0,-5 -1,-9 -1,-11 0,-5 -2,-8 -6,-8 -4,0 -6,3 -6,8 -1,4 -1,8 -1,11 0,4 0,8 1,12 0,5 2,8 6,8zm84 23c-11,0 -20,-3 -26,-9 -7,-5 -10,-12 -11,-21 0,-3 0,-7 0,-12 0,-6 0,-10 0,-13 1,-6 2,-11 5,-15 3,-5 8,-8 13,-11 5,-2 12,-3 19,-3 7,0 14,1 19,3 5,3 10,6 13,11 3,4 4,9 5,15 0,3 0,7 0,13 0,5 0,9 0,12 -1,9 -4,16 -11,21 -6,6 -15,9 -26,9zm0 -23c4,0 6,-3 6,-8 0,-2 1,-6 1,-12 0,-5 -1,-9 -1,-11 0,-5 -2,-8 -6,-8 -4,0 -6,3 -6,8 0,4 -1,8 -1,11 0,4 1,8 1,12 0,5 2,8 6,8zm105 23c-9,0 -16,-2 -22,-4 -6,-3 -10,-6 -12,-10 -3,-3 -4,-7 -4,-11 0,0 0,-1 0,-1 1,-1 1,-1 2,-1l24 0c1,0 1,0 2,0 0,1 1,1 2,2 0,1 1,1 3,1 1,1 2,1 5,1 2,0 4,-1 6,-2 1,-1 1,-2 1,-4 0,-4 -2,-5 -7,-5l-15 0c-1,0 -1,-1 -2,-1 -1,-1 -1,-2 -1,-2l0 -10c0,-1 0,-2 1,-3 0,-1 1,-1 1,-2l17 -8 -31 0c-1,0 -2,-1 -2,-1 -1,-1 -1,-2 -1,-3l0 -16c0,-1 0,-2 1,-2 0,-1 1,-1 2,-1l60 0c1,0 1,0 2,1 1,0 1,1 1,2l0 15c0,1 0,2 -1,2 0,1 -1,2 -1,2l-14 10 0 0c14,3 21,11 21,24 0,5 -2,10 -5,14 -3,4 -8,7 -14,9 -5,3 -12,4 -19,4zm84 0c-12,0 -20,-3 -27,-9 -6,-5 -9,-12 -10,-21 0,-3 0,-7 0,-12 0,-6 0,-10 0,-13 0,-6 2,-11 5,-15 3,-5 7,-8 13,-11 5,-2 12,-3 19,-3 7,0 13,1 19,3 5,3 9,6 12,11 3,4 5,9 6,15 0,3 0,7 0,13 0,5 0,9 0,12 -1,9 -5,16 -11,21 -6,6 -15,9 -26,9zm0 -23c4,0 6,-3 6,-8 0,-2 0,-6 0,-12 0,-5 0,-9 0,-11 0,-5 -2,-8 -6,-8 -4,0 -6,3 -7,8 0,4 0,8 0,11 0,4 0,8 0,12 1,5 3,8 7,8zm108 22c-1,0 -2,-1 -2,-1 -1,-1 -1,-2 -1,-3l0 -9 -35 0c-1,0 -2,-1 -2,-1 -1,-1 -1,-2 -1,-3l0 -16c0,-2 0,-3 1,-4l33 -43c1,-2 3,-2 4,-2l25 0c1,0 1,0 2,1 1,0 1,1 1,2l0 42 10 0c1,0 2,0 2,1 1,0 1,1 1,2l0 17c0,1 0,2 -1,3 0,0 -1,1 -2,1l-10 0 0 9c0,1 0,2 -1,3 -1,0 -1,1 -2,1l-22 0zm-15 -36l13 0 0 -17 -13 17zm69 36c-1,0 -1,-1 -2,-1 0,-1 -1,-1 -1,-2 0,0 0,-1 1,-1l25 -54 -32 0c-1,0 -2,-1 -3,-1 0,-1 -1,-2 -1,-2l0 -18c0,-1 1,-2 1,-2 1,-1 2,-1 3,-1l60 0c1,0 2,0 2,1 1,0 1,1 1,2l0 15c0,1 0,2 0,3 0,1 -1,2 -1,3l-26 55c-1,2 -2,3 -5,3l-22 0zm95 0c-1,0 -2,-1 -2,-1 -1,-1 -1,-1 -1,-2 0,0 0,-1 0,-1l26 -54 -32 0c-1,0 -2,-1 -3,-1 0,-1 -1,-2 -1,-2l0 -18c0,-1 1,-2 1,-2 1,-1 2,-1 3,-1l60 0c1,0 2,0 2,1 1,0 1,1 1,2l0 15c0,1 0,2 0,3 0,1 -1,2 -1,3l-26 55c-1,2 -2,3 -5,3l-22 0zm98 0c-1,0 -2,-1 -2,-1 -1,-1 -1,-2 -1,-3l0 -9 -35 0c-1,0 -2,-1 -2,-1 -1,-1 -1,-2 -1,-3l0 -16c0,-2 0,-3 1,-4l33 -43c1,-2 3,-2 5,-2l24 0c1,0 1,0 2,1 1,0 1,1 1,2l0 42 10 0c1,0 2,0 3,1 0,0 0,1 0,2l0 17c0,1 0,2 0,3 -1,0 -2,1 -3,1l-10 0 0 9c0,1 0,2 -1,3 -1,0 -1,1 -2,1l-22 0zm-15 -36l13 0 0 -17 -13 17z"/>
  </g>
  <g>
   <path class="fil0 str1" d="M337 183c-5,0 -8,-1 -11,-4 -3,-2 -5,-6 -6,-12 -1,-5 -2,-13 -2,-22 0,-9 1,-16 2,-22 1,-5 3,-9 6,-12 3,-2 6,-4 11,-4 0,0 1,0 1,1 1,0 1,1 1,1l0 3c0,0 0,1 -1,1 0,0 0,1 -1,1 -3,0 -5,1 -7,3 -2,2 -3,5 -4,10 -1,4 -1,10 -1,18 0,8 0,14 1,19 1,5 2,8 4,10 2,2 4,3 7,3 1,0 1,0 1,1 1,0 1,0 1,1l0 2c0,1 0,1 -1,2 0,0 -1,0 -1,0zm47 -35c0,1 0,2 0,3 0,1 0,2 0,2 -1,6 -2,10 -6,13 -3,4 -7,5 -13,5 -6,0 -11,-2 -14,-5 -3,-3 -5,-8 -5,-14l0 -10c0,-8 1,-14 3,-17 2,-4 5,-7 8,-9 4,-2 10,-4 18,-6l3 0 0 0c0,0 1,0 1,0 0,0 1,1 1,1l0 3 0 1c0,1 0,1 -1,1 -1,1 -2,1 -4,1 -6,2 -11,3 -14,4 -2,1 -4,3 -6,5 -1,3 -2,6 -2,11 1,-2 3,-4 5,-5 3,-1 5,-2 8,-2 5,0 10,2 13,5 3,3 4,8 5,13zm-8 5c0,-1 0,-1 0,-2 0,-1 0,-2 0,-2 0,-4 -1,-8 -3,-10 -2,-2 -4,-3 -8,-3 -3,0 -6,1 -8,3 -3,2 -4,6 -4,10l0 2 0 2c0,4 1,7 3,9 2,2 5,3 9,3 3,0 6,-1 8,-3 2,-2 3,-5 3,-9zm35 18c-6,0 -10,-2 -13,-5 -4,-3 -6,-8 -6,-14l0 -3 0 -3c0,-5 2,-10 6,-14 3,-3 7,-5 13,-5 6,0 10,2 14,6 3,4 5,9 5,15l0 2c0,0 -1,1 -1,1 0,1 -1,1 -1,1l-28 0 0 0c0,4 1,7 3,10 2,2 4,3 8,3 2,0 4,0 6,-1 2,-1 3,-2 4,-3 0,-1 0,-1 1,-2 0,0 0,0 1,0l4 0c0,0 1,0 1,1 0,0 0,0 0,1 0,1 0,2 -2,4 -1,2 -3,3 -6,4 -3,2 -6,2 -9,2zm11 -25l0 0c0,-4 -1,-7 -3,-9 -2,-3 -5,-4 -8,-4 -4,0 -6,1 -8,4 -2,2 -3,5 -3,9l0 0 22 0zm32 25c-4,0 -7,0 -10,-2 -2,-1 -4,-2 -5,-4 -1,-2 -2,-4 -2,-6 0,0 0,0 0,-1 1,0 1,0 2,0l3 0c1,0 1,0 1,0 1,0 1,1 1,1 1,3 2,4 4,5 2,1 4,1 7,1 3,0 5,0 7,-2 2,-1 2,-2 2,-5 0,-4 -2,-7 -7,-7l-5 0c0,0 -1,0 -1,0 -1,0 -1,-1 -1,-1l0 -2c0,-1 0,-1 1,-2 0,0 1,0 1,0l4 0c5,0 7,-2 7,-6 0,-2 -1,-3 -2,-5 -2,-1 -4,-2 -7,-2 -3,0 -5,1 -6,2 -2,1 -3,2 -3,5 -1,1 -1,1 -2,1l-4 0c0,0 -1,0 -1,0 0,0 0,-1 0,-1 0,-3 0,-5 1,-7 2,-1 4,-3 6,-4 3,-1 6,-2 9,-2 4,0 7,1 9,2 3,1 5,3 6,5 1,1 1,3 1,5 0,2 0,4 -1,6 -1,1 -2,2 -4,3 3,1 4,2 5,4 1,2 2,4 2,7 0,4 -2,7 -5,9 -3,2 -8,3 -13,3zm62 -3c0,0 0,1 0,1 0,1 0,1 -1,1l-5 0c-1,0 -1,0 -2,-1l-12 -17 -8 0 0 17c0,0 0,1 0,1 -1,0 -1,0 -2,0l-3 0c-1,0 -1,0 -1,0 -1,0 -1,-1 -1,-1l0 -39c0,-1 0,-1 1,-1 0,-1 0,-1 1,-1l3 0c1,0 2,0 2,1 0,0 0,0 0,1l0 16 8 0 11 -17c1,-1 1,-1 2,-1l4 0c1,0 1,0 1,0 1,1 1,1 1,1 0,0 0,1 0,1 0,0 0,0 -1,0l-12 18 14 20zm24 3c-6,0 -11,-1 -14,-5 -3,-3 -5,-8 -5,-13l0 -4 0 -3c0,-6 2,-10 5,-14 3,-3 8,-5 14,-5 6,0 10,2 13,5 4,4 5,8 6,14 0,1 0,2 0,3 0,1 0,3 0,4 -1,5 -2,10 -5,13 -4,4 -8,5 -14,5zm0 -6c3,0 6,-1 8,-3 2,-2 3,-6 3,-10 0,0 0,-1 0,-3 0,-1 0,-2 0,-3 0,-4 -1,-7 -3,-9 -2,-3 -5,-4 -8,-4 -4,0 -7,1 -9,4 -2,2 -3,5 -3,9l0 3 0 3c0,4 1,8 3,10 2,2 5,3 9,3zm31 5c-1,0 -1,0 -1,0 -1,0 -1,-1 -1,-1l0 -39c0,-1 0,-1 1,-1 0,-1 0,-1 1,-1l3 0c1,0 1,0 2,1 0,0 0,0 0,1l0 34 15 0 0 -34c0,-1 1,-1 1,-1 0,-1 1,-1 1,-1l4 0c0,0 1,0 1,1 0,0 0,0 0,1l0 34 16 0 0 -34c0,-1 0,-1 0,-1 0,-1 1,-1 1,-1l4 0c0,0 1,0 1,1 1,0 1,0 1,1l0 39c0,0 0,1 -1,1 0,0 -1,0 -1,0l-48 0zm75 0c-1,0 -1,0 -1,0 -1,0 -1,-1 -1,-1l0 -35 -14 0c-1,0 -1,0 -2,0 0,0 0,-1 0,-1l0 -3c0,-1 0,-1 0,-1 1,-1 1,-1 2,-1l36 0c0,0 1,0 1,1 0,0 0,0 0,1l0 3c0,0 0,1 0,1 0,0 -1,0 -1,0l-15 0 0 35c0,0 0,1 0,1 -1,0 -1,0 -2,0l-3 0zm46 1c-6,0 -11,-1 -14,-5 -3,-3 -5,-8 -5,-13l0 -4 0 -3c0,-6 2,-10 5,-14 3,-3 8,-5 14,-5 6,0 10,2 14,5 3,4 5,8 5,14 0,1 0,2 0,3 0,1 0,3 0,4 0,5 -2,10 -5,13 -4,4 -8,5 -14,5zm0 -6c3,0 6,-1 8,-3 2,-2 3,-6 3,-10 0,0 0,-1 0,-3 0,-1 0,-2 0,-3 0,-4 -1,-7 -3,-9 -2,-3 -5,-4 -8,-4 -4,0 -6,1 -8,4 -3,2 -4,5 -4,9l0 3 0 3c0,4 1,8 4,10 2,2 4,3 8,3zm31 5c0,0 -1,0 -1,0 -1,0 -1,-1 -1,-1l0 -39c0,-1 0,-1 1,-1 0,-1 1,-1 1,-1l17 0c5,0 9,1 11,3 3,2 4,5 4,8 0,3 0,5 -1,6 -1,1 -2,2 -4,3 2,1 3,2 4,4 1,2 2,4 2,6 0,4 -1,7 -4,9 -3,2 -7,3 -12,3l-17 0zm16 -24c3,0 5,0 7,-2 1,-1 2,-2 2,-5 0,-3 -3,-5 -9,-5l-11 0 0 12 11 0zm1 19c3,0 5,-1 6,-2 2,-1 3,-3 3,-5 0,-2 -1,-3 -2,-4 -2,-1 -4,-2 -7,-2l-12 0 0 13 12 0zm29 5c-1,0 -1,0 -2,0 0,0 0,-1 0,-1l0 -39c0,-1 0,-1 0,-1 1,-1 1,-1 2,-1l3 0c1,0 1,0 1,1 1,0 1,0 1,1l0 16 22 0 0 -16c0,-1 1,-1 1,-1 0,-1 1,-1 1,-1l4 0c1,0 1,0 1,1 1,0 1,0 1,1l0 39c0,0 0,1 -1,1 0,0 -1,0 -1,0l-4 0c0,0 -1,0 -1,0 0,0 -1,-1 -1,-1l0 -17 -22 0 0 17c0,0 0,1 -1,1 0,0 0,0 -1,0l-3 0zm64 1c-6,0 -10,-1 -14,-5 -3,-3 -4,-8 -5,-13l0 -4 0 -3c1,-6 2,-10 6,-14 3,-3 7,-5 13,-5 6,0 11,2 14,5 3,4 5,8 5,14 0,1 0,2 0,3 0,1 0,3 0,4 0,5 -2,10 -5,13 -3,4 -8,5 -14,5zm0 -6c4,0 7,-1 9,-3 2,-2 3,-6 3,-10 0,0 0,-1 0,-3 0,-1 0,-2 0,-3 0,-4 -1,-7 -3,-9 -2,-3 -5,-4 -9,-4 -3,0 -6,1 -8,4 -2,2 -3,5 -3,9l0 3 0 3c0,4 1,8 3,10 2,2 5,3 8,3zm24 18c-1,0 -1,0 -2,0 0,-1 0,-1 0,-2l0 -2c0,-1 0,-1 0,-1 1,-1 1,-1 1,-1 4,0 6,-1 8,-3 1,-2 3,-5 3,-10 1,-5 2,-11 2,-19 0,-8 -1,-14 -2,-18 0,-5 -2,-8 -3,-10 -2,-2 -4,-3 -8,-3 0,0 0,-1 -1,-1 0,0 0,-1 0,-1l0 -3c0,0 0,-1 0,-1 1,-1 1,-1 2,-1 4,0 8,2 11,4 3,3 4,7 6,12 1,6 1,13 1,22 0,9 0,17 -1,22 -2,6 -3,10 -6,12 -3,3 -7,4 -11,4z"/>
   <path id="1" class="fil2" d="M337 183c-5,0 -8,-1 -11,-4 -3,-2 -5,-6 -6,-12 -1,-5 -2,-13 -2,-22 0,-9 1,-16 2,-22 1,-5 3,-9 6,-12 3,-2 6,-4 11,-4 0,0 1,0 1,1 1,0 1,1 1,1l0 3c0,0 0,1 -1,1 0,0 0,1 -1,1 -3,0 -5,1 -7,3 -2,2 -3,5 -4,10 -1,4 -1,10 -1,18 0,8 0,14 1,19 1,5 2,8 4,10 2,2 4,3 7,3 1,0 1,0 1,1 1,0 1,0 1,1l0 2c0,1 0,1 -1,2 0,0 -1,0 -1,0zm47 -35c0,1 0,2 0,3 0,1 0,2 0,2 -1,6 -2,10 -6,13 -3,4 -7,5 -13,5 -6,0 -11,-2 -14,-5 -3,-3 -5,-8 -5,-14l0 -10c0,-8 1,-14 3,-17 2,-4 5,-7 8,-9 4,-2 10,-4 18,-6l3 0 0 0c0,0 1,0 1,0 0,0 1,1 1,1l0 3 0 1c0,1 0,1 -1,1 -1,1 -2,1 -4,1 -6,2 -11,3 -14,4 -2,1 -4,3 -6,5 -1,3 -2,6 -2,11 1,-2 3,-4 5,-5 3,-1 5,-2 8,-2 5,0 10,2 13,5 3,3 4,8 5,13zm-8 5c0,-1 0,-1 0,-2 0,-1 0,-2 0,-2 0,-4 -1,-8 -3,-10 -2,-2 -4,-3 -8,-3 -3,0 -6,1 -8,3 -3,2 -4,6 -4,10l0 2 0 2c0,4 1,7 3,9 2,2 5,3 9,3 3,0 6,-1 8,-3 2,-2 3,-5 3,-9zm35 18c-6,0 -10,-2 -13,-5 -4,-3 -6,-8 -6,-14l0 -3 0 -3c0,-5 2,-10 6,-14 3,-3 7,-5 13,-5 6,0 10,2 14,6 3,4 5,9 5,15l0 2c0,0 -1,1 -1,1 0,1 -1,1 -1,1l-28 0 0 0c0,4 1,7 3,10 2,2 4,3 8,3 2,0 4,0 6,-1 2,-1 3,-2 4,-3 0,-1 0,-1 1,-2 0,0 0,0 1,0l4 0c0,0 1,0 1,1 0,0 0,0 0,1 0,1 0,2 -2,4 -1,2 -3,3 -6,4 -3,2 -6,2 -9,2zm11 -25l0 0c0,-4 -1,-7 -3,-9 -2,-3 -5,-4 -8,-4 -4,0 -6,1 -8,4 -2,2 -3,5 -3,9l0 0 22 0zm32 25c-4,0 -7,0 -10,-2 -2,-1 -4,-2 -5,-4 -1,-2 -2,-4 -2,-6 0,0 0,0 0,-1 1,0 1,0 2,0l3 0c1,0 1,0 1,0 1,0 1,1 1,1 1,3 2,4 4,5 2,1 4,1 7,1 3,0 5,0 7,-2 2,-1 2,-2 2,-5 0,-4 -2,-7 -7,-7l-5 0c0,0 -1,0 -1,0 -1,0 -1,-1 -1,-1l0 -2c0,-1 0,-1 1,-2 0,0 1,0 1,0l4 0c5,0 7,-2 7,-6 0,-2 -1,-3 -2,-5 -2,-1 -4,-2 -7,-2 -3,0 -5,1 -6,2 -2,1 -3,2 -3,5 -1,1 -1,1 -2,1l-4 0c0,0 -1,0 -1,0 0,0 0,-1 0,-1 0,-3 0,-5 1,-7 2,-1 4,-3 6,-4 3,-1 6,-2 9,-2 4,0 7,1 9,2 3,1 5,3 6,5 1,1 1,3 1,5 0,2 0,4 -1,6 -1,1 -2,2 -4,3 3,1 4,2 5,4 1,2 2,4 2,7 0,4 -2,7 -5,9 -3,2 -8,3 -13,3zm62 -3c0,0 0,1 0,1 0,1 0,1 -1,1l-5 0c-1,0 -1,0 -2,-1l-12 -17 -8 0 0 17c0,0 0,1 0,1 -1,0 -1,0 -2,0l-3 0c-1,0 -1,0 -1,0 -1,0 -1,-1 -1,-1l0 -39c0,-1 0,-1 1,-1 0,-1 0,-1 1,-1l3 0c1,0 2,0 2,1 0,0 0,0 0,1l0 16 8 0 11 -17c1,-1 1,-1 2,-1l4 0c1,0 1,0 1,0 1,1 1,1 1,1 0,0 0,1 0,1 0,0 0,0 -1,0l-12 18 14 20zm24 3c-6,0 -11,-1 -14,-5 -3,-3 -5,-8 -5,-13l0 -4 0 -3c0,-6 2,-10 5,-14 3,-3 8,-5 14,-5 6,0 10,2 13,5 4,4 5,8 6,14 0,1 0,2 0,3 0,1 0,3 0,4 -1,5 -2,10 -5,13 -4,4 -8,5 -14,5zm0 -6c3,0 6,-1 8,-3 2,-2 3,-6 3,-10 0,0 0,-1 0,-3 0,-1 0,-2 0,-3 0,-4 -1,-7 -3,-9 -2,-3 -5,-4 -8,-4 -4,0 -7,1 -9,4 -2,2 -3,5 -3,9l0 3 0 3c0,4 1,8 3,10 2,2 5,3 9,3zm31 5c-1,0 -1,0 -1,0 -1,0 -1,-1 -1,-1l0 -39c0,-1 0,-1 1,-1 0,-1 0,-1 1,-1l3 0c1,0 1,0 2,1 0,0 0,0 0,1l0 34 15 0 0 -34c0,-1 1,-1 1,-1 0,-1 1,-1 1,-1l4 0c0,0 1,0 1,1 0,0 0,0 0,1l0 34 16 0 0 -34c0,-1 0,-1 0,-1 0,-1 1,-1 1,-1l4 0c0,0 1,0 1,1 1,0 1,0 1,1l0 39c0,0 0,1 -1,1 0,0 -1,0 -1,0l-48 0zm75 0c-1,0 -1,0 -1,0 -1,0 -1,-1 -1,-1l0 -35 -14 0c-1,0 -1,0 -2,0 0,0 0,-1 0,-1l0 -3c0,-1 0,-1 0,-1 1,-1 1,-1 2,-1l36 0c0,0 1,0 1,1 0,0 0,0 0,1l0 3c0,0 0,1 0,1 0,0 -1,0 -1,0l-15 0 0 35c0,0 0,1 0,1 -1,0 -1,0 -2,0l-3 0zm46 1c-6,0 -11,-1 -14,-5 -3,-3 -5,-8 -5,-13l0 -4 0 -3c0,-6 2,-10 5,-14 3,-3 8,-5 14,-5 6,0 10,2 14,5 3,4 5,8 5,14 0,1 0,2 0,3 0,1 0,3 0,4 0,5 -2,10 -5,13 -4,4 -8,5 -14,5zm0 -6c3,0 6,-1 8,-3 2,-2 3,-6 3,-10 0,0 0,-1 0,-3 0,-1 0,-2 0,-3 0,-4 -1,-7 -3,-9 -2,-3 -5,-4 -8,-4 -4,0 -6,1 -8,4 -3,2 -4,5 -4,9l0 3 0 3c0,4 1,8 4,10 2,2 4,3 8,3zm31 5c0,0 -1,0 -1,0 -1,0 -1,-1 -1,-1l0 -39c0,-1 0,-1 1,-1 0,-1 1,-1 1,-1l17 0c5,0 9,1 11,3 3,2 4,5 4,8 0,3 0,5 -1,6 -1,1 -2,2 -4,3 2,1 3,2 4,4 1,2 2,4 2,6 0,4 -1,7 -4,9 -3,2 -7,3 -12,3l-17 0zm16 -24c3,0 5,0 7,-2 1,-1 2,-2 2,-5 0,-3 -3,-5 -9,-5l-11 0 0 12 11 0zm1 19c3,0 5,-1 6,-2 2,-1 3,-3 3,-5 0,-2 -1,-3 -2,-4 -2,-1 -4,-2 -7,-2l-12 0 0 13 12 0zm29 5c-1,0 -1,0 -2,0 0,0 0,-1 0,-1l0 -39c0,-1 0,-1 0,-1 1,-1 1,-1 2,-1l3 0c1,0 1,0 1,1 1,0 1,0 1,1l0 16 22 0 0 -16c0,-1 1,-1 1,-1 0,-1 1,-1 1,-1l4 0c1,0 1,0 1,1 1,0 1,0 1,1l0 39c0,0 0,1 -1,1 0,0 -1,0 -1,0l-4 0c0,0 -1,0 -1,0 0,0 -1,-1 -1,-1l0 -17 -22 0 0 17c0,0 0,1 -1,1 0,0 0,0 -1,0l-3 0zm64 1c-6,0 -10,-1 -14,-5 -3,-3 -4,-8 -5,-13l0 -4 0 -3c1,-6 2,-10 6,-14 3,-3 7,-5 13,-5 6,0 11,2 14,5 3,4 5,8 5,14 0,1 0,2 0,3 0,1 0,3 0,4 0,5 -2,10 -5,13 -3,4 -8,5 -14,5zm0 -6c4,0 7,-1 9,-3 2,-2 3,-6 3,-10 0,0 0,-1 0,-3 0,-1 0,-2 0,-3 0,-4 -1,-7 -3,-9 -2,-3 -5,-4 -9,-4 -3,0 -6,1 -8,4 -2,2 -3,5 -3,9l0 3 0 3c0,4 1,8 3,10 2,2 5,3 8,3zm24 18c-1,0 -1,0 -2,0 0,-1 0,-1 0,-2l0 -2c0,-1 0,-1 0,-1 1,-1 1,-1 1,-1 4,0 6,-1 8,-3 1,-2 3,-5 3,-10 1,-5 2,-11 2,-19 0,-8 -1,-14 -2,-18 0,-5 -2,-8 -3,-10 -2,-2 -4,-3 -8,-3 0,0 0,-1 -1,-1 0,0 0,-1 0,-1l0 -3c0,0 0,-1 0,-1 1,-1 1,-1 2,-1 4,0 8,2 11,4 3,3 4,7 6,12 1,6 1,13 1,22 0,9 0,17 -1,22 -2,6 -3,10 -6,12 -3,3 -7,4 -11,4z"/>
  </g>
 </g>
</svg>
