<?xml version="1.0" encoding="UTF-8"?>
<!DOCTYPE svg PUBLIC "-//W3C//DTD SVG 1.1//EN" "http://www.w3.org/Graphics/SVG/1.1/DTD/svg11.dtd">
<!-- Creator: CorelDRAW X7 -->
<svg xmlns="http://www.w3.org/2000/svg" xml:space="preserve" width="44.1582mm" height="29.8417mm" version="1.1" style="shape-rendering:geometricPrecision; text-rendering:geometricPrecision; image-rendering:optimizeQuality; fill-rule:evenodd; clip-rule:evenodd"
viewBox="0 0 3186 2153"
 xmlns:xlink="http://www.w3.org/1999/xlink">
 <defs>
  <style type="text/css">
   <![CDATA[
    .fil1 {fill:#FEFEFE;fill-rule:nonzero}
    .fil0 {fill:#1DDD6D;fill-rule:nonzero}
   ]]>
  </style>
 </defs>
 <g id="Слой_x0020_1">
  <metadata id="CorelCorpID_0Corel-Layer"/>
  <g id="_851427760">
   <path class="fil0" d="M36 139c-6,0 -12,-2 -18,-5 -5,-4 -10,-8 -13,-13 -3,-6 -5,-12 -5,-19 0,-6 2,-12 5,-18 3,-5 8,-10 13,-13 6,-3 12,-5 18,-5 7,0 13,2 18,5 6,3 10,8 14,13 3,6 4,12 4,18 0,7 -1,13 -4,19 -4,5 -8,9 -14,13 -5,3 -11,5 -18,5zm0 273c-6,0 -12,-2 -18,-5 -5,-3 -10,-8 -13,-13 -3,-6 -5,-12 -5,-19 0,-6 2,-12 5,-18 3,-5 8,-10 13,-13 6,-3 12,-5 18,-5 7,0 13,2 18,5 6,3 10,8 14,13 3,6 4,12 4,18 0,7 -1,13 -4,19 -4,5 -8,10 -14,13 -5,3 -11,5 -18,5zm0 273c-6,0 -12,-2 -18,-5 -5,-3 -10,-8 -13,-13 -3,-6 -5,-12 -5,-19 0,-6 2,-12 5,-18 3,-5 8,-10 13,-13 6,-3 12,-5 18,-5 7,0 13,2 18,5 6,3 10,8 14,13 3,6 4,12 4,18 0,7 -1,13 -4,19 -4,5 -8,10 -14,13 -5,3 -11,5 -18,5zm0 273c-6,0 -12,-2 -18,-5 -5,-3 -10,-8 -13,-13 -3,-6 -5,-12 -5,-19 0,-6 2,-12 5,-18 3,-5 8,-10 13,-13 6,-3 12,-5 18,-5 7,0 13,2 18,5 6,3 10,8 14,13 3,6 4,12 4,18 0,7 -1,13 -4,19 -4,5 -8,10 -14,13 -5,3 -11,5 -18,5zm0 273c-6,0 -12,-2 -18,-5 -5,-3 -10,-8 -13,-13 -3,-6 -5,-12 -5,-19 0,-6 2,-12 5,-18 3,-5 8,-10 13,-13 6,-3 12,-5 18,-5 7,0 13,2 18,5 6,3 10,8 14,13 3,6 4,12 4,18 0,7 -1,13 -4,19 -4,5 -8,10 -14,13 -5,3 -11,5 -18,5zm0 273c-6,0 -12,-2 -18,-5 -5,-3 -10,-8 -13,-13 -3,-6 -5,-12 -5,-19 0,-6 2,-12 5,-18 3,-5 8,-10 13,-13 6,-3 12,-5 18,-5 7,0 13,2 18,5 6,3 10,8 14,13 3,6 4,12 4,18 0,7 -1,13 -4,19 -4,5 -8,10 -14,13 -5,3 -11,5 -18,5zm0 546c-6,0 -12,-2 -18,-5 -5,-3 -10,-8 -13,-13 -3,-6 -5,-12 -5,-18 0,-7 2,-13 5,-19 3,-5 8,-10 13,-13 6,-3 12,-5 18,-5 7,0 13,2 18,5 6,3 10,8 14,13 3,6 4,12 4,19 0,6 -1,12 -4,18 -4,5 -8,10 -14,13 -5,3 -11,5 -18,5z"/>
   <path class="fil1" d="M209 196c-19,0 -34,-6 -44,-16 -11,-11 -16,-25 -17,-43l0 -11 0 -11c1,-18 7,-32 17,-43 10,-11 25,-16 44,-16 18,0 33,5 43,16 11,11 16,25 17,43 0,3 0,7 0,11 0,3 0,7 0,11 -1,18 -6,32 -17,43 -10,10 -24,16 -43,16zm0 -20c11,0 19,-3 26,-10 6,-7 10,-17 10,-30 0,-2 1,-5 1,-10 0,-5 -1,-8 -1,-10 0,-13 -4,-23 -10,-30 -7,-7 -15,-11 -26,-11 -11,0 -20,4 -27,11 -6,7 -10,17 -10,30l0 10 0 10c0,13 4,23 10,30 7,7 16,10 27,10zm147 20c-19,0 -33,-6 -43,-16 -11,-10 -16,-25 -17,-44l0 -10 0 -11c1,-18 6,-33 17,-43 10,-11 24,-16 43,-16 12,0 23,2 31,6 9,5 15,10 19,17 5,6 7,13 7,20 0,1 0,3 -1,4 -2,1 -3,2 -5,2l-11 0c-2,0 -3,-1 -4,-2 -1,0 -2,-2 -3,-4 -3,-8 -7,-14 -12,-18 -6,-3 -13,-5 -21,-5 -11,0 -19,3 -26,10 -6,7 -10,17 -10,31l0 9 0 9c0,14 4,24 10,31 7,6 15,10 26,10 8,0 15,-2 21,-6 5,-3 9,-9 12,-18 1,-2 2,-3 3,-4 1,-1 2,-1 4,-1l11 0c2,0 3,1 5,2 1,1 1,2 1,4 0,6 -2,13 -7,19 -4,7 -10,12 -19,17 -8,4 -19,7 -31,7zm143 0c-19,0 -34,-6 -44,-16 -10,-11 -16,-25 -16,-43l-1 -11 1 -11c0,-18 6,-32 16,-43 11,-11 25,-16 44,-16 19,0 33,5 43,16 11,11 16,25 17,43 1,3 1,7 1,11 0,3 0,7 -1,11 -1,18 -6,32 -16,43 -11,10 -25,16 -44,16zm0 -20c11,0 20,-3 26,-10 7,-7 10,-17 11,-30 0,-2 0,-5 0,-10 0,-5 0,-8 0,-10 -1,-13 -4,-23 -11,-30 -6,-7 -15,-11 -26,-11 -11,0 -20,4 -26,11 -7,7 -10,17 -11,30l0 10 0 10c1,13 4,23 11,30 6,7 15,10 26,10zm210 -53c0,1 0,4 0,8 0,3 0,6 0,7 0,17 -6,31 -16,42 -11,10 -25,16 -44,16 -19,0 -34,-6 -44,-17 -10,-11 -16,-26 -17,-45l0 -31c0,-25 4,-43 10,-56 7,-12 16,-21 28,-26 11,-6 31,-12 57,-19l7 -2 1 0c2,0 3,0 4,1 1,1 1,2 2,4l2 9 0 2c0,3 -1,4 -4,5 -2,1 -7,2 -14,4 -19,4 -34,8 -42,12 -9,3 -16,9 -20,16 -5,7 -8,19 -8,33 4,-6 10,-11 18,-15 7,-4 15,-6 24,-6 17,0 31,5 41,16 9,10 15,24 15,42zm-24 14c1,-2 1,-3 1,-6 0,-3 0,-6 -1,-7 0,-13 -3,-23 -9,-30 -7,-7 -15,-10 -25,-10 -11,0 -20,3 -27,10 -7,7 -11,17 -12,30l0 7 0 6c1,13 4,23 11,30 6,6 15,10 26,10 11,0 20,-4 26,-10 7,-7 10,-17 10,-30zm171 -79c1,0 2,1 4,2 1,1 1,2 1,4l0 123c0,2 0,3 -1,4 -1,1 -3,2 -5,2l-11 0c-2,0 -3,-1 -4,-2 -1,-1 -2,-2 -2,-4l0 -95 -72 97c-2,3 -4,4 -7,4l-11 0c-2,0 -3,-1 -4,-2 -1,-1 -2,-2 -2,-3l0 -124c0,-1 1,-3 2,-4 1,-1 3,-2 4,-2l12 0c1,0 3,1 4,2 1,1 2,3 2,4l0 95 72 -97c2,-2 4,-4 7,-4l11 0zm97 138c-18,0 -33,-6 -43,-16 -10,-10 -16,-25 -16,-44l-1 -10 1 -11c0,-18 6,-33 16,-43 10,-11 25,-16 43,-16 13,0 23,2 32,6 8,5 15,10 19,17 4,6 6,13 7,20 0,1 -1,3 -2,4 -1,1 -3,2 -4,2l-12 0c-1,0 -3,-1 -4,-2 0,0 -1,-2 -2,-4 -3,-8 -8,-14 -13,-18 -5,-3 -12,-5 -21,-5 -10,0 -19,3 -25,10 -7,7 -10,17 -11,31l0 9 0 9c1,14 4,24 11,31 6,6 15,10 25,10 9,0 16,-2 21,-6 6,-3 10,-9 13,-18 1,-2 2,-3 2,-4 1,-1 3,-1 4,-1l12 0c1,0 3,1 4,2 1,1 2,2 2,4 -1,6 -3,13 -7,19 -4,7 -11,12 -19,17 -9,4 -19,7 -32,7zm130 -3c-2,0 -3,-1 -4,-2 -2,-1 -2,-2 -2,-4l0 -109 -45 0c-2,0 -4,0 -5,-1 -1,-1 -1,-3 -1,-4l0 -9c0,-1 0,-3 1,-4 1,-1 3,-2 5,-2l113 0c2,0 3,1 4,2 1,1 2,3 2,4l0 9c0,1 -1,3 -2,4 -1,1 -2,1 -4,1l-45 0 0 109c0,2 -1,3 -2,4 -1,1 -2,2 -4,2l-11 0zm128 3c-8,0 -16,-2 -23,-6 -7,-3 -13,-8 -17,-14 -5,-6 -7,-12 -7,-19 0,-12 5,-21 14,-28 10,-8 22,-12 38,-15l39 -5 0 -8c0,-18 -10,-26 -31,-26 -8,0 -14,1 -19,4 -5,4 -8,7 -10,12 -1,1 -2,2 -3,3 0,1 -1,1 -3,1l-10 0c-1,0 -3,-1 -4,-2 -1,-1 -2,-2 -2,-4 0,-4 2,-8 6,-14 4,-5 9,-9 17,-13 8,-4 17,-6 29,-6 19,0 33,4 41,13 9,9 13,21 13,34l0 84c0,2 -1,3 -2,4 -1,1 -2,2 -4,2l-12 0c-1,0 -3,-1 -4,-2 -1,-1 -1,-2 -1,-4l0 -11c-4,5 -10,10 -17,14 -7,4 -16,6 -28,6zm5 -19c12,0 21,-4 28,-11 8,-8 11,-19 11,-33l0 -7 -30 4c-12,2 -22,5 -28,9 -7,4 -10,10 -10,16 0,7 3,12 9,16 6,4 12,6 20,6zm219 19c-19,0 -34,-6 -44,-16 -11,-11 -16,-25 -17,-43l0 -11 0 -11c1,-18 6,-32 17,-43 10,-11 25,-16 44,-16 18,0 33,5 43,16 11,11 16,25 17,43 0,3 0,7 0,11 0,3 0,7 0,11 -1,18 -6,32 -17,43 -10,10 -25,16 -43,16zm0 -20c11,0 19,-3 26,-10 6,-7 10,-17 10,-30 0,-2 1,-5 1,-10 0,-5 -1,-8 -1,-10 0,-13 -4,-23 -10,-30 -7,-7 -15,-11 -26,-11 -12,0 -20,4 -27,11 -6,7 -10,17 -10,30l0 10 0 10c0,13 4,23 10,30 7,7 15,10 27,10zm87 17c-2,0 -3,0 -4,-2 -1,-1 -2,-2 -2,-3 0,-2 1,-4 2,-5l45 -59 -42 -55c-1,-2 -2,-4 -2,-5 0,-2 0,-3 2,-4 1,-1 2,-2 3,-2l13 0c2,0 5,2 6,5l35 45 35 -45c1,-2 2,-3 3,-3 1,-1 2,-2 4,-2l12 0c1,0 3,1 4,2 1,1 1,2 1,4 0,1 0,3 -2,5l-42 56 45 58c1,1 1,3 1,5 0,1 0,2 -1,3 -1,2 -2,2 -4,2l-13 0c-2,0 -5,-1 -6,-4l-37 -48 -37 48c-1,1 -2,2 -3,3 -1,1 -3,1 -4,1l-12 0zm199 3c-19,0 -33,-6 -43,-16 -11,-11 -16,-25 -17,-43l0 -11 0 -11c1,-18 6,-32 17,-43 10,-11 25,-16 43,-16 19,0 34,5 44,16 10,11 16,25 17,43 0,3 0,7 0,11 0,3 0,7 0,11 -1,18 -6,32 -17,43 -10,10 -25,16 -44,16zm0 -20c12,0 20,-3 27,-10 6,-7 10,-17 10,-30 0,-2 0,-5 0,-10 0,-5 0,-8 0,-10 0,-13 -4,-23 -10,-30 -7,-7 -15,-11 -27,-11 -11,0 -19,4 -26,11 -6,7 -10,17 -10,30l-1 10 1 10c0,13 4,23 10,30 7,7 15,10 26,10zm100 66c-2,0 -3,0 -4,-1 -1,-1 -2,-3 -2,-5l0 -172c0,-1 1,-3 2,-4 1,-1 2,-2 4,-2l11 0c2,0 3,1 4,2 1,1 2,3 2,4l0 12c10,-13 24,-20 43,-20 18,0 31,6 40,17 9,12 14,26 15,44 0,2 0,5 0,9 0,4 0,7 0,9 -1,17 -6,32 -15,43 -9,12 -22,18 -40,18 -19,0 -33,-7 -42,-20l0 60c0,2 -1,3 -2,5 -1,1 -3,1 -4,1l-12 0zm55 -67c12,0 21,-3 27,-11 6,-8 9,-18 9,-31 0,-1 0,-4 0,-7 0,-33 -12,-50 -36,-50 -12,0 -21,4 -28,12 -6,8 -9,18 -9,28 0,2 -1,6 -1,11 0,4 1,8 1,10 0,10 3,19 10,27 6,8 15,11 27,11zm147 21c-19,0 -33,-6 -44,-16 -10,-11 -15,-25 -16,-43l0 -11 0 -11c1,-18 6,-32 17,-43 10,-11 25,-16 43,-16 19,0 33,5 44,16 10,11 16,25 16,43 1,3 1,7 1,11 0,3 0,7 -1,11 0,18 -6,32 -16,43 -10,10 -25,16 -44,16zm0 -20c11,0 20,-3 26,-10 7,-7 10,-17 11,-30 0,-2 0,-5 0,-10 0,-5 0,-8 0,-10 -1,-13 -4,-23 -11,-30 -6,-7 -15,-11 -26,-11 -11,0 -20,4 -26,11 -7,7 -10,17 -11,30l0 10 0 10c1,13 4,23 11,30 6,7 15,10 26,10zm100 17c-2,0 -4,-1 -5,-2 -1,-1 -1,-2 -1,-4l0 -123c0,-1 0,-3 1,-4 1,-1 3,-2 5,-2l11 0c2,0 3,1 4,2 1,1 2,3 2,4l0 50 71 0 0 -50c0,-1 1,-3 2,-4 1,-1 3,-2 4,-2l12 0c2,0 3,1 4,2 1,1 2,3 2,4l0 123c0,2 -1,3 -2,4 -1,1 -3,2 -4,2l-12 0c-1,0 -3,-1 -4,-2 -1,-1 -2,-2 -2,-4l0 -53 -71 0 0 53c0,2 -1,3 -2,4 -1,1 -2,2 -4,2l-11 0zm188 3c-9,0 -16,-2 -24,-6 -7,-3 -12,-8 -17,-14 -4,-6 -6,-12 -6,-19 0,-12 5,-21 14,-28 9,-8 22,-12 38,-15l39 -5 0 -8c0,-18 -10,-26 -31,-26 -8,0 -14,1 -19,4 -5,4 -8,7 -11,12 0,1 -1,2 -2,3 -1,1 -2,1 -3,1l-10 0c-2,0 -3,-1 -4,-2 -1,-1 -2,-2 -2,-4 0,-4 2,-8 6,-14 3,-5 9,-9 17,-13 8,-4 17,-6 28,-6 20,0 34,4 42,13 8,9 12,21 12,34l0 84c0,2 0,3 -1,4 -1,1 -3,2 -5,2l-11 0c-2,0 -3,-1 -4,-2 -1,-1 -2,-2 -2,-4l0 -11c-3,5 -9,10 -16,14 -7,4 -17,6 -28,6zm5 -19c11,0 21,-4 28,-11 7,-8 11,-19 11,-33l0 -7 -30 4c-13,2 -22,5 -29,9 -6,4 -9,10 -9,16 0,7 3,12 8,16 6,4 13,6 21,6zm-2156 289c-2,0 -3,-1 -4,-2 -1,-1 -2,-2 -2,-4l0 -123c0,-1 1,-3 2,-4 1,-1 2,-2 4,-2l102 0c2,0 3,1 4,2 1,1 2,3 2,4l0 123c0,2 -1,3 -2,4 -1,1 -2,2 -4,2l-12 0c-1,0 -3,-1 -4,-2 -1,-1 -1,-2 -1,-4l0 -109 -68 0 0 109c0,2 0,3 -1,4 -2,1 -3,2 -5,2l-11 0zm256 -135c2,0 3,1 4,2 1,1 2,2 2,4 0,0 -1,2 -2,4l-49 117 -2 5c-5,11 -9,20 -13,27 -4,7 -8,13 -14,18 -5,5 -12,7 -20,7l-9 0c-2,0 -4,0 -5,-1 -1,-2 -1,-3 -1,-5l0 -8c0,-1 0,-3 1,-4 1,-1 3,-2 5,-2l6 0c4,0 7,0 10,-2 2,-2 4,-4 6,-8 2,-3 5,-8 8,-16l4 -10 -50 -118c-1,-2 -2,-3 -2,-4 0,-2 1,-3 2,-4 1,-1 2,-2 4,-2l11 0c3,0 5,2 7,5l40 95 40 -95c1,-3 3,-5 6,-5l11 0zm17 135c-1,0 -3,-1 -4,-2 -1,-1 -2,-2 -2,-4l0 -9c0,-2 1,-3 2,-4 1,-1 2,-2 4,-2 8,0 14,-6 18,-18 4,-11 6,-30 6,-56l0 -34c0,-1 1,-3 2,-4 1,-1 3,-2 4,-2l82 0c2,0 3,1 4,2 1,1 2,3 2,4l0 123c0,2 -1,3 -2,4 -1,1 -3,2 -4,2l-12 0c-1,0 -3,-1 -4,-2 -1,-1 -2,-2 -2,-4l0 -109 -47 0 0 22c0,33 -4,57 -11,71 -8,15 -20,22 -36,22zm163 0c-2,0 -4,-1 -5,-2 -1,-1 -1,-2 -1,-4l0 -123c0,-1 0,-3 1,-4 1,-1 3,-2 5,-2l11 0c2,0 3,1 4,2 1,1 2,3 2,4l0 38 29 0c17,0 30,4 38,13 9,8 13,19 13,34 0,15 -5,26 -14,33 -8,7 -22,11 -40,11l-43 0zm44 -19c11,0 19,-2 23,-6 5,-4 8,-10 8,-19 0,-10 -3,-16 -8,-21 -4,-4 -12,-7 -23,-7l-27 0 0 53 27 0zm120 19c-2,0 -3,-1 -5,-2 -1,-1 -1,-2 -1,-4l0 -109 -46 0c-1,0 -3,0 -4,-1 -1,-1 -1,-3 -1,-4l0 -9c0,-1 0,-3 1,-4 1,-1 3,-2 4,-2l114 0c2,0 3,1 4,2 1,1 2,3 2,4l0 9c0,1 -1,3 -2,4 -1,1 -2,1 -4,1l-45 0 0 109c0,2 -1,3 -2,4 -1,1 -2,2 -4,2l-11 0zm145 3c-19,0 -33,-6 -43,-16 -11,-11 -16,-25 -17,-43l0 -11 0 -11c1,-18 6,-32 17,-43 10,-11 25,-16 43,-16 19,0 34,5 44,16 10,11 16,25 17,43 0,3 0,7 0,11 0,3 0,7 0,11 -1,18 -7,32 -17,43 -10,10 -25,16 -44,16zm0 -20c11,0 20,-3 27,-10 6,-7 10,-17 10,-30 0,-2 0,-5 0,-10 0,-5 0,-8 0,-10 0,-13 -4,-23 -10,-30 -7,-7 -16,-11 -27,-11 -11,0 -19,4 -26,11 -6,7 -10,17 -10,30l-1 10 1 10c0,13 4,23 10,30 7,7 15,10 26,10zm100 17c-2,0 -3,-1 -5,-2 -1,-1 -1,-2 -1,-4l0 -123c0,-1 0,-3 1,-4 2,-1 3,-2 5,-2l53 0c16,0 28,4 36,10 8,7 13,15 13,26 0,8 -2,14 -4,18 -3,4 -8,7 -13,10 6,3 11,7 14,13 4,6 6,13 6,20 0,12 -5,22 -13,28 -9,7 -21,10 -37,10l-55 0zm51 -77c9,0 16,-2 21,-6 5,-3 7,-9 7,-15 0,-12 -9,-18 -28,-18l-34 0 0 39 34 0zm2 59c9,0 16,-2 21,-5 5,-4 7,-9 7,-15 0,-7 -2,-12 -7,-16 -4,-3 -11,-4 -21,-4l-36 0 0 40 36 0zm123 21c-9,0 -17,-2 -24,-6 -7,-3 -13,-8 -17,-14 -4,-6 -6,-12 -6,-19 0,-12 4,-21 14,-28 9,-8 22,-12 38,-15l39 -5 0 -8c0,-18 -11,-26 -31,-26 -8,0 -14,1 -19,4 -5,4 -9,7 -11,12 -1,1 -1,2 -2,3 -1,1 -2,1 -3,1l-10 0c-2,0 -3,-1 -4,-2 -2,-1 -2,-2 -2,-4 0,-4 2,-8 5,-14 4,-5 10,-9 18,-13 7,-4 17,-6 28,-6 19,0 33,4 42,13 8,9 12,21 12,34l0 84c0,2 0,3 -1,4 -2,1 -3,2 -5,2l-11 0c-2,0 -3,-1 -4,-2 -1,-1 -2,-2 -2,-4l0 -11c-4,5 -9,10 -16,14 -8,4 -17,6 -28,6zm5 -19c11,0 21,-4 28,-11 7,-8 11,-19 11,-33l0 -7 -31 4c-12,2 -21,5 -28,9 -6,4 -9,10 -9,16 0,7 2,12 8,16 6,4 13,6 21,6zm218 19c-19,0 -34,-6 -44,-16 -10,-11 -16,-25 -16,-43l-1 -11 1 -11c0,-18 6,-32 16,-43 11,-11 25,-16 44,-16 19,0 33,5 44,16 10,11 16,25 16,43 1,3 1,7 1,11 0,3 0,7 -1,11 0,18 -6,32 -16,43 -10,10 -25,16 -44,16zm0 -20c11,0 20,-3 26,-10 7,-7 10,-17 11,-30 0,-2 0,-5 0,-10 0,-5 0,-8 0,-10 -1,-13 -4,-23 -11,-30 -6,-7 -15,-11 -26,-11 -11,0 -20,4 -26,11 -7,7 -10,17 -11,30l0 10 0 10c1,13 4,23 11,30 6,7 15,10 26,10z"/>
   <path class="fil1" d="M1491 466c-1,0 -3,0 -4,-2 -1,-1 -1,-2 -1,-3 0,-2 0,-4 2,-5l45 -59 -43 -55c-1,-2 -2,-4 -2,-5 0,-2 1,-3 2,-4 1,-1 2,-2 4,-2l12 0c3,0 5,2 7,5l35 45 35 -45c1,-2 2,-3 3,-3 1,-1 2,-2 3,-2l12 0c2,0 3,1 4,2 1,1 2,2 2,4 0,1 -1,3 -2,5l-43 56 45 58c1,1 2,3 2,5 0,1 -1,2 -2,3 -1,2 -2,2 -4,2l-12 0c-3,0 -5,-1 -7,-4l-37 -48 -37 48c-1,1 -2,2 -3,3 -1,1 -2,1 -4,1l-12 0zm200 3c-19,0 -34,-6 -44,-16 -10,-11 -16,-25 -16,-43l-1 -11 1 -11c0,-18 6,-32 16,-43 11,-11 25,-16 44,-16 19,0 33,5 44,16 10,11 16,25 16,43 1,3 1,7 1,11 0,3 0,7 -1,11 0,18 -6,32 -16,43 -10,10 -25,16 -44,16zm0 -20c11,0 20,-3 26,-10 7,-7 10,-17 11,-30 0,-2 0,-5 0,-10 0,-5 0,-8 0,-10 -1,-13 -4,-23 -11,-30 -6,-7 -15,-11 -26,-11 -11,0 -20,4 -26,11 -7,7 -10,17 -11,30l0 10 0 10c1,13 4,23 11,30 6,7 15,10 26,10zm100 66c-2,0 -4,0 -5,-1 -1,-1 -1,-3 -1,-5l0 -172c0,-1 0,-3 1,-4 1,-1 3,-2 5,-2l10 0c2,0 4,1 5,2 1,1 1,3 1,4l0 12c10,-13 25,-20 43,-20 18,0 32,6 41,17 9,12 14,26 14,44 0,2 0,5 0,9 0,4 0,7 0,9 0,17 -5,32 -14,43 -9,12 -23,18 -41,18 -18,0 -32,-7 -42,-20l0 60c0,2 0,3 -2,5 -1,1 -2,1 -4,1l-11 0zm54 -67c13,0 22,-3 27,-11 6,-8 9,-18 10,-31 0,-1 0,-4 0,-7 0,-33 -12,-50 -37,-50 -12,0 -21,4 -27,12 -6,8 -10,18 -10,28 0,2 0,6 0,11 0,4 0,8 0,10 0,10 4,19 10,27 6,8 15,11 27,11zm148 21c-19,0 -34,-6 -44,-16 -10,-11 -16,-25 -17,-43l0 -11 0 -11c1,-18 7,-32 17,-43 10,-11 25,-16 44,-16 18,0 33,5 43,16 11,11 16,25 17,43 0,3 0,7 0,11 0,3 0,7 0,11 -1,18 -6,32 -17,43 -10,10 -24,16 -43,16zm0 -20c11,0 19,-3 26,-10 6,-7 10,-17 10,-30 1,-2 1,-5 1,-10 0,-5 0,-8 -1,-10 0,-13 -4,-23 -10,-30 -7,-7 -15,-11 -26,-11 -11,0 -20,4 -27,11 -6,7 -10,17 -10,30l0 10 0 10c0,13 4,23 10,30 7,7 16,10 27,10zm99 17c-2,0 -3,-1 -4,-2 -1,-1 -2,-2 -2,-4l0 -123c0,-1 1,-3 2,-4 1,-1 2,-2 4,-2l11 0c2,0 4,1 5,2 1,1 1,3 1,4l0 50 72 0 0 -50c0,-1 0,-3 1,-4 2,-1 3,-2 5,-2l11 0c2,0 3,1 4,2 2,1 2,3 2,4l0 123c0,2 -1,3 -2,4 -1,1 -2,2 -4,2l-11 0c-2,0 -3,-1 -5,-2 -1,-1 -1,-2 -1,-4l0 -53 -72 0 0 53c0,2 0,3 -1,4 -1,1 -3,2 -5,2l-11 0zm188 3c-8,0 -16,-2 -23,-6 -7,-3 -13,-8 -17,-14 -4,-6 -6,-12 -6,-19 0,-12 4,-21 13,-28 10,-8 22,-12 39,-15l38 -5 0 -8c0,-18 -10,-26 -30,-26 -8,0 -15,1 -20,4 -4,4 -8,7 -10,12 -1,1 -2,2 -2,3 -1,1 -2,1 -4,1l-10 0c-1,0 -3,-1 -4,-2 -1,-1 -1,-2 -1,-4 0,-4 1,-8 5,-14 4,-5 10,-9 17,-13 8,-4 18,-6 29,-6 19,0 33,4 41,13 9,9 13,21 13,34l0 84c0,2 -1,3 -2,4 -1,1 -2,2 -4,2l-11 0c-2,0 -4,-1 -5,-2 -1,-1 -1,-2 -1,-4l0 -11c-4,5 -9,10 -17,14 -7,4 -16,6 -28,6zm6 -19c11,0 20,-4 27,-11 8,-8 11,-19 11,-33l0 -7 -30 4c-12,2 -22,5 -28,9 -7,4 -10,10 -10,16 0,7 3,12 9,16 6,4 13,6 21,6zm295 -119c1,0 2,1 3,2 1,1 2,2 2,3l0 124c0,2 -1,3 -2,4 -1,2 -2,2 -4,2l-11 0c-2,0 -4,0 -5,-2 -1,-1 -1,-2 -1,-4l0 -86 -34 64c-1,2 -2,4 -3,5 -1,1 -3,2 -5,2l-7 0c-2,0 -4,-1 -5,-2 -1,-1 -2,-3 -3,-5l-34 -63 0 85c0,2 0,3 -1,4 -1,2 -3,2 -5,2l-11 0c-2,0 -3,0 -4,-2 -1,-1 -2,-2 -2,-4l0 -124c0,-1 1,-2 2,-3 1,-1 2,-2 3,-2l13 0c2,0 4,2 6,5l44 83 45 -83c2,-3 4,-5 6,-5l13 0zm81 138c-8,0 -16,-2 -23,-6 -7,-3 -13,-8 -17,-14 -4,-6 -7,-12 -7,-19 0,-12 5,-21 14,-28 10,-8 22,-12 38,-15l39 -5 0 -8c0,-18 -10,-26 -31,-26 -7,0 -14,1 -19,4 -5,4 -8,7 -10,12 -1,1 -2,2 -2,3 -1,1 -2,1 -4,1l-10 0c-1,0 -3,-1 -4,-2 -1,-1 -2,-2 -2,-4 0,-4 2,-8 6,-14 4,-5 10,-9 17,-13 8,-4 18,-6 29,-6 19,0 33,4 41,13 9,9 13,21 13,34l0 84c0,2 -1,3 -2,4 -1,1 -2,2 -4,2l-12 0c-1,0 -3,-1 -4,-2 -1,-1 -1,-2 -1,-4l0 -11c-4,5 -10,10 -17,14 -7,4 -16,6 -28,6zm5 -19c12,0 21,-4 28,-11 8,-8 11,-19 11,-33l0 -7 -30 4c-12,2 -22,5 -28,9 -7,4 -10,10 -10,16 0,7 3,12 9,16 6,4 13,6 20,6zm214 -119c1,0 2,1 4,2 1,1 1,2 1,4l0 123c0,2 0,3 -1,4 -1,1 -3,2 -5,2l-11 0c-2,0 -3,-1 -4,-2 -1,-1 -2,-2 -2,-4l0 -95 -72 97c-2,3 -5,4 -7,4l-11 0c-2,0 -3,-1 -4,-2 -1,-1 -2,-2 -2,-3l0 -124c0,-1 1,-3 2,-4 1,-1 3,-2 4,-2l12 0c1,0 3,1 4,2 1,1 2,3 2,4l0 95 72 -97c2,-2 4,-4 7,-4l11 0zm-54 -17c-13,0 -23,-3 -29,-9 -6,-6 -9,-14 -9,-23 0,-2 0,-3 1,-4 1,-1 2,-1 4,-1l8 0c2,0 3,0 4,1 0,1 1,2 1,4 0,4 1,8 5,11 3,3 8,5 15,5 8,0 13,-2 16,-5 4,-3 5,-7 5,-11 0,-2 0,-3 1,-4 1,-1 2,-1 4,-1l8 0c2,0 3,0 4,1 1,1 1,2 1,4 0,9 -3,17 -9,23 -6,6 -16,9 -30,9zm103 152c-1,0 -3,-1 -4,-2 -1,-1 -2,-2 -2,-4l0 -123c0,-1 1,-3 2,-4 1,-1 3,-2 4,-2l12 0c1,0 3,1 4,2 1,1 2,3 2,4l0 50 71 0 0 -50c0,-1 1,-3 2,-4 1,-1 2,-2 4,-2l11 0c2,0 4,1 5,2 1,1 1,3 1,4l0 123c0,2 0,3 -1,4 -1,1 -3,2 -5,2l-11 0c-2,0 -3,-1 -4,-2 -1,-1 -2,-2 -2,-4l0 -53 -71 0 0 53c0,2 -1,3 -2,4 -1,1 -3,2 -4,2l-12 0zm189 3c-9,0 -17,-2 -24,-6 -7,-3 -13,-8 -17,-14 -4,-6 -6,-12 -6,-19 0,-12 5,-21 14,-28 9,-8 22,-12 38,-15l39 -5 0 -8c0,-18 -11,-26 -31,-26 -8,0 -14,1 -19,4 -5,4 -9,7 -11,12 -1,1 -1,2 -2,3 -1,1 -2,1 -3,1l-10 0c-2,0 -3,-1 -4,-2 -2,-1 -2,-2 -2,-4 0,-4 2,-8 5,-14 4,-5 10,-9 18,-13 7,-4 17,-6 28,-6 19,0 33,4 42,13 8,9 12,21 12,34l0 84c0,2 0,3 -1,4 -2,1 -3,2 -5,2l-11 0c-2,0 -3,-1 -4,-2 -1,-1 -2,-2 -2,-4l0 -11c-4,5 -9,10 -16,14 -8,4 -17,6 -28,6zm5 -19c11,0 21,-4 28,-11 7,-8 11,-19 11,-33l0 -7 -31 4c-12,2 -21,5 -28,9 -6,4 -9,10 -9,16 0,7 3,12 8,16 6,4 13,6 21,6zm-2929 289c-2,0 -3,-1 -4,-2 -1,-1 -2,-2 -2,-4l0 -109 -45 0c-2,0 -3,0 -4,-1 -2,-1 -2,-3 -2,-4l0 -9c0,-1 0,-3 2,-4 1,-1 2,-2 4,-2l113 0c2,0 4,1 5,2 1,1 1,3 1,4l0 9c0,1 0,3 -1,4 -1,1 -3,1 -5,1l-45 0 0 109c0,2 0,3 -2,4 -1,1 -2,2 -4,2l-11 0zm97 49c-1,0 -3,0 -4,-1 -1,-1 -2,-3 -2,-5l0 -172c0,-1 1,-3 2,-4 1,-1 3,-2 4,-2l11 0c2,0 4,1 5,2 1,1 1,3 1,4l0 12c10,-13 24,-20 43,-20 18,0 32,6 41,17 9,12 13,26 14,44 0,2 0,5 0,9 0,4 0,7 0,9 -1,17 -5,32 -14,43 -9,12 -23,18 -41,18 -19,0 -33,-7 -42,-20l0 60c0,2 -1,3 -2,5 -1,1 -2,1 -4,1l-12 0zm55 -67c12,0 21,-3 27,-11 6,-8 9,-18 9,-31 1,-1 1,-4 1,-7 0,-33 -13,-50 -37,-50 -12,0 -21,4 -27,12 -6,8 -10,18 -10,28 0,2 0,6 0,11 0,4 0,8 0,10 0,10 4,19 10,27 6,8 15,11 27,11zm206 -117c2,0 3,1 4,2 1,1 2,2 2,4l0 123c0,2 -1,3 -2,4 -1,1 -2,2 -4,2l-11 0c-2,0 -4,-1 -5,-2 -1,-1 -1,-2 -1,-4l0 -95 -73 97c-2,3 -4,4 -7,4l-11 0c-1,0 -2,-1 -3,-2 -2,-1 -2,-2 -2,-3l0 -124c0,-1 0,-3 2,-4 1,-1 2,-2 4,-2l11 0c2,0 3,1 4,2 2,1 2,3 2,4l0 95 73 -97c2,-2 4,-4 6,-4l11 0zm50 135c-2,0 -3,-1 -4,-2 -2,-1 -2,-2 -2,-4l0 -123c0,-1 0,-3 2,-4 1,-1 2,-2 4,-2l53 0c16,0 28,4 36,10 9,7 13,15 13,26 0,8 -2,14 -4,18 -3,4 -7,7 -13,10 6,3 11,7 14,13 4,6 6,13 6,20 0,12 -5,22 -13,28 -9,7 -21,10 -37,10l-55 0zm52 -77c8,0 15,-2 20,-6 5,-3 7,-9 7,-15 0,-12 -9,-18 -27,-18l-35 0 0 39 35 0zm1 59c9,0 16,-2 21,-5 5,-4 7,-9 7,-15 0,-7 -2,-12 -7,-16 -4,-3 -11,-4 -21,-4l-36 0 0 40 36 0zm140 21c-19,0 -33,-6 -44,-16 -10,-11 -15,-25 -16,-43l0 -11 0 -11c1,-18 6,-32 17,-43 10,-11 25,-16 43,-16 19,0 33,5 44,16 10,11 16,25 16,43 1,3 1,7 1,11 0,3 0,7 -1,11 0,18 -6,32 -16,43 -10,10 -25,16 -44,16zm0 -20c11,0 20,-3 26,-10 7,-7 10,-17 11,-30 0,-2 0,-5 0,-10 0,-5 0,-8 0,-10 -1,-13 -4,-23 -11,-30 -6,-7 -15,-11 -26,-11 -11,0 -20,4 -26,11 -7,7 -10,17 -11,30l0 10 0 10c1,13 4,23 11,30 6,7 15,10 26,10zm272 10c1,1 1,2 1,3 0,1 0,2 -1,3 -1,1 -2,1 -4,1l-15 0c-1,0 -2,0 -3,-1 -1,-1 -2,-2 -3,-3l-38 -55 -20 0 0 53c0,2 -1,3 -2,4 -1,1 -3,2 -4,2l-12 0c-1,0 -3,-1 -4,-2 -1,-1 -1,-2 -1,-4l0 -53 -21 0 -38 55c-2,3 -4,4 -7,4l-15 0c-1,0 -3,0 -3,-1 -1,-1 -2,-2 -2,-3 0,-1 1,-2 1,-3l45 -63 -39 -57c-1,-1 -1,-3 -1,-3 0,-2 0,-3 1,-3 1,-1 2,-2 4,-2l12 0c3,0 5,2 7,4l35 52 21 0 0 -50c0,-1 0,-3 1,-4 1,-1 3,-2 4,-2l12 0c1,0 3,1 4,2 1,1 2,3 2,4l0 50 19 0 35 -52c2,-2 4,-4 7,-4l13 0c1,0 3,1 4,2 1,0 1,1 1,3 0,0 0,1 -1,3l-39 57 44 63zm33 7c-2,0 -3,-1 -5,-2 -1,-1 -1,-2 -1,-4l0 -123c0,-1 0,-3 1,-4 2,-1 3,-2 5,-2l11 0c2,0 3,1 4,2 1,1 2,3 2,4l0 50 71 0 0 -50c0,-1 1,-3 2,-4 1,-1 3,-2 4,-2l12 0c2,0 3,1 4,2 1,1 2,3 2,4l0 123c0,2 -1,3 -2,4 -1,1 -2,2 -4,2l-12 0c-1,0 -3,-1 -4,-2 -1,-1 -2,-2 -2,-4l0 -53 -71 0 0 53c0,2 -1,3 -2,4 -1,1 -2,2 -4,2l-11 0zm188 3c-8,0 -16,-2 -23,-6 -7,-3 -13,-8 -17,-14 -5,-6 -7,-12 -7,-19 0,-12 5,-21 14,-28 10,-8 22,-12 38,-15l39 -5 0 -8c0,-18 -10,-26 -31,-26 -8,0 -14,1 -19,4 -5,4 -8,7 -10,12 -1,1 -2,2 -3,3 0,1 -2,1 -3,1l-10 0c-2,0 -3,-1 -4,-2 -1,-1 -2,-2 -2,-4 0,-4 2,-8 6,-14 4,-5 9,-9 17,-13 8,-4 17,-6 29,-6 19,0 33,4 41,13 8,9 13,21 13,34l0 84c0,2 -1,3 -2,4 -1,1 -3,2 -4,2l-12 0c-1,0 -3,-1 -4,-2 -1,-1 -1,-2 -1,-4l0 -11c-4,5 -10,10 -17,14 -7,4 -17,6 -28,6zm5 -19c12,0 21,-4 28,-11 7,-8 11,-19 11,-33l0 -7 -30 4c-13,2 -22,5 -28,9 -7,4 -10,10 -10,16 0,7 3,12 9,16 5,4 12,6 20,6zm275 9c1,1 1,2 1,3 0,3 -2,4 -5,4l-15 0c-2,0 -4,-1 -7,-4l-38 -54 -24 0 0 52c0,2 -1,3 -2,4 -1,1 -2,2 -4,2l-11 0c-2,0 -3,-1 -5,-2 -1,-1 -1,-2 -1,-4l0 -123c0,-1 0,-3 1,-4 2,-1 3,-2 5,-2l11 0c2,0 3,1 4,2 1,1 2,3 2,4l0 50 24 0 35 -52c2,-2 4,-4 7,-4l13 0c1,0 3,1 4,2 1,0 1,1 1,3 0,0 0,0 0,1 -1,1 -1,1 -1,2l-39 57 44 63zm33 7c-2,0 -3,-1 -5,-2 -1,-1 -1,-2 -1,-4l0 -123c0,-1 0,-3 1,-4 2,-1 3,-2 5,-2l11 0c2,0 3,1 4,2 1,1 2,3 2,4l0 50 71 0 0 -50c0,-1 1,-3 2,-4 1,-1 3,-2 4,-2l12 0c2,0 3,1 4,2 1,1 2,3 2,4l0 123c0,2 -1,3 -2,4 -1,1 -3,2 -4,2l-12 0c-1,0 -3,-1 -4,-2 -1,-1 -2,-2 -2,-4l0 -53 -71 0 0 53c0,2 -1,3 -2,4 -1,1 -2,2 -4,2l-11 0zm205 3c-19,0 -33,-6 -43,-16 -11,-11 -16,-25 -17,-43l0 -11 0 -11c1,-18 6,-32 17,-43 10,-11 25,-16 43,-16 19,0 34,5 44,16 10,11 16,25 17,43 0,3 0,7 0,11 0,3 0,7 0,11 -1,18 -7,32 -17,43 -10,10 -25,16 -44,16zm0 -20c11,0 20,-3 27,-10 6,-7 10,-17 10,-30 0,-2 0,-5 0,-10 0,-5 0,-8 0,-10 0,-13 -4,-23 -10,-30 -7,-7 -16,-11 -27,-11 -11,0 -19,4 -26,11 -6,7 -10,17 -10,30l-1 10 1 10c0,13 4,23 10,30 7,7 15,10 26,10zm100 17c-2,0 -3,-1 -5,-2 -1,-1 -1,-2 -1,-4l0 -123c0,-1 0,-3 1,-4 2,-1 3,-2 5,-2l102 0c1,0 3,1 4,2 1,1 1,3 1,4l0 123c0,2 0,3 -1,4 -1,1 -3,2 -4,2l-12 0c-1,0 -3,-1 -4,-2 -1,-1 -2,-2 -2,-4l0 -109 -67 0 0 109c0,2 -1,3 -2,4 -1,1 -2,2 -4,2l-11 0zm258 -7c1,1 1,2 1,3 0,3 -2,4 -5,4l-15 0c-2,0 -5,-1 -7,-4l-38 -54 -24 0 0 52c0,2 -1,3 -2,4 -1,1 -3,2 -4,2l-11 0c-2,0 -4,-1 -5,-2 -1,-1 -1,-2 -1,-4l0 -123c0,-1 0,-3 1,-4 1,-1 3,-2 5,-2l11 0c2,0 3,1 4,2 1,1 2,3 2,4l0 50 24 0 35 -52c2,-2 4,-4 7,-4l13 0c1,0 2,1 4,2 1,0 1,1 1,3 0,0 0,0 0,1 -1,1 -1,1 -1,2l-39 57 44 63z"/>
   <path class="fil1" d="M2229 742c-9,0 -16,-2 -24,-6 -7,-3 -12,-8 -17,-14 -4,-6 -6,-12 -6,-19 0,-12 5,-21 14,-28 9,-8 22,-12 38,-15l39 -5 0 -8c0,-18 -10,-26 -31,-26 -8,0 -14,1 -19,4 -5,4 -8,7 -11,12 0,1 -1,2 -2,3 -1,1 -2,1 -3,1l-10 0c-2,0 -3,-1 -4,-2 -1,-1 -2,-2 -2,-4 0,-4 2,-8 6,-14 3,-5 9,-9 17,-13 8,-4 17,-6 28,-6 20,0 33,4 42,13 8,9 12,21 12,34l0 84c0,2 0,3 -1,4 -1,1 -3,2 -5,2l-11 0c-2,0 -3,-1 -4,-2 -1,-1 -2,-2 -2,-4l0 -11c-3,5 -9,10 -16,14 -7,4 -17,6 -28,6zm5 -19c11,0 21,-4 28,-11 7,-8 11,-19 11,-33l0 -7 -30 4c-13,2 -22,5 -29,9 -6,4 -9,10 -9,16 0,7 3,12 8,16 6,4 13,6 21,6zm-2013 338c-1,0 -3,0 -4,-1 -1,-1 -2,-3 -2,-5l0 -43c-21,0 -38,-5 -49,-16 -11,-10 -17,-24 -18,-42l0 -9 0 -9c1,-18 7,-32 18,-43 11,-10 28,-16 49,-16l0 -43c0,-2 1,-3 2,-4 1,-1 3,-2 4,-2l12 0c1,0 3,1 4,2 1,1 1,3 1,4l0 43c22,0 38,6 49,16 12,11 17,25 18,43 1,4 1,7 1,9 0,2 0,5 -1,9 -1,18 -6,32 -17,42 -11,11 -28,16 -50,16l0 43c0,2 0,3 -1,5 -1,1 -3,1 -4,1l-12 0zm-6 -164c-28,0 -42,13 -44,41l0 7 0 7c1,14 5,24 12,31 7,6 18,10 32,10l0 -96zm23 96c14,0 25,-4 32,-11 7,-6 11,-17 12,-30 0,-2 1,-4 1,-7 0,-3 -1,-6 -1,-7 -1,-28 -16,-41 -44,-41l0 96zm104 -141c-1,0 -3,0 -4,-2 -1,-1 -2,-2 -2,-4l0 -13c0,-2 1,-3 2,-5 1,-1 3,-1 4,-1l16 0c1,0 3,0 4,1 1,2 2,3 2,5l0 13c0,2 -1,3 -2,4 -1,2 -3,2 -4,2l-16 0zm2 160c-1,0 -3,-1 -4,-2 -1,-1 -2,-2 -2,-4l0 -123c0,-1 1,-3 2,-4 1,-1 3,-2 4,-2l12 0c2,0 3,1 4,2 1,1 2,3 2,4l0 123c0,2 -1,3 -2,4 -1,1 -2,2 -4,2l-12 0zm103 3c-13,0 -23,-2 -31,-6 -8,-4 -14,-9 -18,-15 -4,-5 -6,-11 -6,-17 0,-1 1,-2 2,-3 1,-1 2,-2 4,-2l11 0c2,0 3,1 4,1 1,1 2,2 2,4 2,7 6,12 12,14 5,3 13,4 22,4 9,0 16,-1 22,-5 6,-4 9,-9 9,-17 0,-14 -9,-21 -25,-21l-15 0c-1,0 -3,-1 -4,-2 -1,-1 -1,-2 -1,-4l0 -6c0,-2 0,-4 1,-5 1,-1 3,-1 4,-1l13 0c15,0 22,-6 22,-18 0,-6 -2,-11 -7,-16 -4,-4 -11,-6 -21,-6 -10,0 -17,2 -21,5 -4,3 -8,8 -9,16 -1,3 -3,4 -7,4l-11 0c-1,0 -2,0 -3,-1 -1,-1 -2,-2 -2,-3 0,-8 2,-14 6,-20 4,-6 10,-11 18,-15 8,-3 17,-5 29,-5 12,0 22,2 29,6 8,3 13,8 17,14 3,6 5,11 5,18 0,7 -1,12 -3,17 -3,4 -7,8 -13,11 8,3 13,7 16,13 3,5 5,13 5,21 0,13 -5,23 -16,29 -10,7 -23,11 -40,11zm199 -138c1,0 3,1 4,2 1,1 2,2 2,4l0 123c0,2 -1,3 -2,4 -1,1 -3,2 -4,2l-12 0c-2,0 -3,-1 -4,-2 -1,-1 -2,-2 -2,-4l0 -95 -72 97c-2,3 -4,4 -7,4l-11 0c-1,0 -3,-1 -4,-2 -1,-1 -1,-2 -1,-3l0 -124c0,-1 0,-3 1,-4 1,-1 3,-2 4,-2l12 0c2,0 3,1 4,2 1,1 2,3 2,4l0 95 72 -97c2,-2 4,-4 7,-4l11 0zm128 135c-2,0 -3,-1 -4,-2 -1,-1 -2,-2 -2,-4l0 -49c-9,8 -22,13 -39,13 -32,0 -48,-14 -48,-43l0 -44c0,-1 1,-3 2,-4 1,-1 2,-2 4,-2l12 0c1,0 3,1 4,2 1,1 2,3 2,4l0 43c0,8 2,14 6,17 5,4 12,5 22,5 11,0 20,-1 26,-4 6,-3 9,-7 9,-14l0 -47c0,-1 1,-3 2,-4 1,-1 2,-2 4,-2l12 0c2,0 3,1 5,2 1,1 1,3 1,4l0 123c0,2 0,3 -1,4 -2,1 -3,2 -5,2l-12 0zm63 0c-1,0 -3,-1 -4,-2 -1,-1 -2,-2 -2,-4l0 -123c0,-1 1,-3 2,-4 1,-1 3,-2 4,-2l12 0c1,0 3,1 4,2 1,1 2,3 2,4l0 50 71 0 0 -50c0,-1 1,-3 2,-4 1,-1 2,-2 4,-2l11 0c2,0 4,1 5,2 1,1 1,3 1,4l0 123c0,2 0,3 -1,4 -1,1 -3,2 -5,2l-11 0c-2,0 -3,-1 -4,-2 -1,-1 -2,-2 -2,-4l0 -53 -71 0 0 53c0,2 -1,3 -2,4 -1,1 -3,2 -4,2l-12 0zm189 3c-9,0 -17,-2 -24,-6 -7,-3 -13,-8 -17,-14 -4,-6 -6,-12 -6,-19 0,-12 5,-21 14,-28 9,-8 22,-12 38,-15l39 -5 0 -8c0,-18 -11,-26 -31,-26 -8,0 -14,1 -19,4 -5,4 -9,7 -11,12 -1,1 -1,2 -2,3 -1,1 -2,1 -3,1l-10 0c-2,0 -3,-1 -4,-2 -2,-1 -2,-2 -2,-4 0,-4 2,-8 5,-14 4,-5 10,-9 18,-13 7,-4 17,-6 28,-6 19,0 33,4 42,13 8,9 12,21 12,34l0 84c0,2 0,3 -1,4 -2,1 -3,2 -5,2l-11 0c-2,0 -3,-1 -4,-2 -1,-1 -2,-2 -2,-4l0 -11c-4,5 -9,10 -16,14 -8,4 -17,6 -28,6zm5 -19c11,0 21,-4 28,-11 7,-8 11,-19 11,-33l0 -7 -31 4c-12,2 -21,5 -28,9 -6,4 -9,10 -9,16 0,7 3,12 8,16 6,4 13,6 21,6zm218 19c-19,0 -34,-6 -44,-16 -10,-11 -16,-25 -16,-43l-1 -11 1 -11c0,-18 6,-32 16,-43 11,-11 25,-16 44,-16 19,0 33,5 44,16 10,11 16,25 16,43 1,3 1,7 1,11 0,3 0,7 -1,11 0,18 -6,32 -16,43 -10,10 -25,16 -44,16zm0 -20c11,0 20,-3 26,-10 7,-7 10,-17 11,-30 0,-2 0,-5 0,-10 0,-5 0,-8 0,-10 -1,-13 -4,-23 -11,-30 -6,-7 -15,-11 -26,-11 -11,0 -20,4 -26,11 -7,7 -10,17 -11,30l0 10 0 10c1,13 4,23 11,30 6,7 15,10 26,10zm87 17c-1,0 -3,0 -4,-2 -1,-1 -1,-2 -1,-3 0,-2 0,-4 2,-5l45 -59 -43 -55c-1,-2 -2,-4 -2,-5 0,-2 1,-3 2,-4 1,-1 2,-2 4,-2l12 0c3,0 5,2 7,5l35 45 35 -45c1,-2 2,-3 3,-3 1,-1 2,-2 4,-2l11 0c2,0 3,1 4,2 1,1 2,2 2,4 0,1 -1,3 -2,5l-43 56 45 58c1,1 2,3 2,5 0,1 -1,2 -2,3 -1,2 -2,2 -4,2l-12 0c-3,0 -5,-1 -7,-4l-37 -48 -37 48c-1,1 -2,2 -3,3 -1,1 -2,1 -4,1l-12 0zm200 3c-19,0 -34,-6 -44,-16 -10,-11 -16,-25 -16,-43l-1 -11 1 -11c0,-18 6,-32 16,-43 11,-11 25,-16 44,-16 19,0 33,5 44,16 10,11 16,25 16,43 1,3 1,7 1,11 0,3 0,7 -1,11 0,18 -6,32 -16,43 -10,10 -25,16 -44,16zm0 -20c11,0 20,-3 26,-10 7,-7 10,-17 11,-30 0,-2 0,-5 0,-10 0,-5 0,-8 0,-10 -1,-13 -4,-23 -11,-30 -6,-7 -15,-11 -26,-11 -11,0 -20,4 -26,11 -7,7 -10,17 -11,30l0 10 0 10c1,13 4,23 11,30 6,7 15,10 26,10zm100 66c-2,0 -4,0 -5,-1 -1,-1 -1,-3 -1,-5l0 -172c0,-1 0,-3 1,-4 1,-1 3,-2 5,-2l10 0c2,0 4,1 5,2 1,1 1,3 1,4l0 12c10,-13 25,-20 43,-20 18,0 32,6 41,17 9,12 14,26 14,44 0,2 0,5 0,9 0,4 0,7 0,9 0,17 -5,32 -14,43 -9,12 -23,18 -41,18 -18,0 -32,-7 -42,-20l0 60c0,2 0,3 -2,5 -1,1 -2,1 -4,1l-11 0zm54 -67c13,0 22,-3 27,-11 6,-8 9,-18 10,-31 0,-1 0,-4 0,-7 0,-33 -12,-50 -37,-50 -12,0 -21,4 -27,12 -6,8 -10,18 -10,28 0,2 0,6 0,11 0,4 0,8 0,10 0,10 4,19 10,27 6,8 15,11 27,11zm148 21c-19,0 -34,-6 -44,-16 -10,-11 -16,-25 -17,-43l0 -11 0 -11c1,-18 7,-32 17,-43 10,-11 25,-16 44,-16 18,0 33,5 43,16 11,11 16,25 17,43 0,3 0,7 0,11 0,3 0,7 0,11 -1,18 -6,32 -17,43 -10,10 -24,16 -43,16zm0 -20c11,0 19,-3 26,-10 6,-7 10,-17 10,-30 1,-2 1,-5 1,-10 0,-5 0,-8 -1,-10 0,-13 -4,-23 -10,-30 -7,-7 -15,-11 -26,-11 -11,0 -20,4 -27,11 -6,7 -10,17 -10,30l0 10 0 10c0,13 4,23 10,30 7,7 16,10 27,10zm99 17c-2,0 -3,-1 -4,-2 -1,-1 -2,-2 -2,-4l0 -123c0,-1 1,-3 2,-4 1,-1 2,-2 4,-2l11 0c2,0 4,1 5,2 1,1 1,3 1,4l0 50 72 0 0 -50c0,-1 0,-3 1,-4 2,-1 3,-2 5,-2l11 0c2,0 3,1 4,2 2,1 2,3 2,4l0 123c0,2 -1,3 -2,4 -1,1 -2,2 -4,2l-11 0c-2,0 -3,-1 -5,-2 -1,-1 -1,-2 -1,-4l0 -53 -72 0 0 53c0,2 0,3 -1,4 -1,1 -3,2 -5,2l-11 0zm188 3c-8,0 -16,-2 -23,-6 -7,-3 -13,-8 -17,-14 -4,-6 -6,-12 -6,-19 0,-12 4,-21 14,-28 9,-8 21,-12 38,-15l38 -5 0 -8c0,-18 -10,-26 -30,-26 -8,0 -15,1 -20,4 -4,4 -8,7 -10,12 -1,1 -2,2 -2,3 -1,1 -2,1 -4,1l-10 0c-1,0 -3,-1 -4,-2 -1,-1 -1,-2 -1,-4 0,-4 1,-8 5,-14 4,-5 10,-9 17,-13 8,-4 18,-6 29,-6 19,0 33,4 41,13 9,9 13,21 13,34l0 84c0,2 -1,3 -2,4 -1,1 -2,2 -4,2l-11 0c-2,0 -4,-1 -5,-2 -1,-1 -1,-2 -1,-4l0 -11c-4,5 -9,10 -17,14 -7,4 -16,6 -28,6zm6 -19c11,0 20,-4 27,-11 8,-8 11,-19 11,-33l0 -7 -30 4c-12,2 -22,5 -28,9 -7,4 -10,10 -10,16 0,7 3,12 9,16 6,4 13,6 21,6zm-1922 292c-19,0 -34,-6 -44,-16 -11,-11 -16,-25 -17,-43l0 -11 0 -11c1,-18 7,-32 17,-43 10,-11 25,-16 44,-16 18,0 33,5 43,16 11,11 16,25 17,43 0,3 0,7 0,11 0,3 0,7 0,11 -1,18 -6,32 -17,43 -10,10 -24,16 -43,16zm0 -20c11,0 19,-3 26,-10 6,-7 10,-17 10,-30 0,-2 1,-5 1,-10 0,-5 -1,-8 -1,-10 0,-13 -4,-23 -10,-30 -7,-7 -15,-11 -26,-11 -11,0 -20,4 -27,11 -6,7 -10,17 -10,30l0 10 0 10c0,13 4,23 10,30 7,7 16,10 27,10zm87 17c-2,0 -3,0 -4,-1 -1,-2 -2,-3 -2,-4 0,-2 1,-4 2,-5l45 -59 -42 -55c-1,-2 -2,-4 -2,-5 0,-2 0,-3 2,-4 1,-1 2,-1 3,-1l13 0c2,0 5,1 6,4l35 45 35 -45c1,-2 2,-3 3,-3 1,-1 3,-1 4,-1l12 0c1,0 3,0 4,1 1,1 1,2 1,4 0,1 0,3 -2,5l-42 56 45 58c1,1 1,3 1,5 0,1 0,2 -1,4 -1,1 -2,1 -4,1l-13 0c-2,0 -4,-1 -6,-4l-37 -48 -37 48c-1,1 -2,2 -3,3 -1,1 -3,1 -4,1l-12 0zm200 3c-19,0 -34,-6 -44,-16 -11,-11 -16,-25 -17,-43l0 -11 0 -11c1,-18 6,-32 17,-43 10,-11 25,-16 44,-16 18,0 33,5 43,16 11,11 16,25 17,43 0,3 0,7 0,11 0,3 0,7 0,11 -1,18 -6,32 -17,43 -10,10 -25,16 -43,16zm0 -20c11,0 19,-3 26,-10 6,-7 10,-17 10,-30 0,-2 1,-5 1,-10 0,-5 -1,-8 -1,-10 0,-13 -4,-23 -10,-30 -7,-7 -15,-11 -26,-11 -12,0 -20,4 -27,11 -6,7 -10,17 -10,30l0 10 0 10c0,13 4,23 10,30 7,7 15,10 27,10zm99 66c-2,0 -3,0 -4,-1 -1,-1 -2,-3 -2,-5l0 -172c0,-1 1,-3 2,-4 1,-1 2,-1 4,-1l11 0c2,0 3,0 4,1 1,1 2,3 2,4l0 12c10,-13 24,-20 43,-20 18,0 31,6 40,17 9,12 14,26 15,44 0,2 0,5 0,9 0,4 0,7 0,9 -1,17 -6,32 -15,43 -9,12 -22,18 -40,18 -19,0 -33,-7 -42,-20l0 60c0,2 -1,3 -2,5 -1,1 -3,1 -4,1l-12 0zm55 -67c12,0 21,-3 27,-11 6,-8 9,-18 9,-31 0,-1 0,-4 0,-7 0,-33 -12,-50 -36,-50 -12,0 -21,4 -28,12 -6,8 -9,18 -9,28 0,2 -1,6 -1,11 0,4 1,8 1,10 0,10 3,19 10,27 6,8 15,11 27,11zm147 21c-19,0 -33,-6 -44,-16 -10,-11 -15,-25 -16,-43l0 -11 0 -11c1,-18 6,-32 17,-43 10,-11 25,-16 43,-16 19,0 33,5 44,16 10,11 16,25 16,43 1,3 1,7 1,11 0,3 0,7 -1,11 0,18 -6,32 -16,43 -10,10 -25,16 -44,16zm0 -20c11,0 20,-3 26,-10 7,-7 10,-17 11,-30 0,-2 0,-5 0,-10 0,-5 0,-8 0,-10 -1,-13 -4,-23 -11,-30 -6,-7 -15,-11 -26,-11 -11,0 -20,4 -26,11 -7,7 -10,17 -11,30l0 10 0 10c1,13 4,23 11,30 6,7 15,10 26,10zm100 17c-2,0 -4,-1 -5,-2 -1,-1 -1,-2 -1,-4l0 -123c0,-1 0,-3 1,-4 1,-1 3,-1 5,-1l11 0c2,0 3,0 4,1 1,1 2,3 2,4l0 50 71 0 0 -50c0,-1 1,-3 2,-4 1,-1 3,-1 4,-1l12 0c2,0 3,0 4,1 1,1 2,3 2,4l0 123c0,2 -1,3 -2,4 -1,1 -3,2 -4,2l-12 0c-1,0 -3,-1 -4,-2 -1,-1 -2,-2 -2,-4l0 -53 -71 0 0 53c0,2 -1,3 -2,4 -1,1 -2,2 -4,2l-11 0zm188 3c-9,0 -16,-2 -23,-6 -8,-3 -13,-8 -18,-14 -4,-6 -6,-12 -6,-19 0,-12 5,-21 14,-28 9,-8 22,-12 38,-15l39 -5 0 -8c0,-18 -10,-26 -31,-26 -8,0 -14,1 -19,4 -5,4 -8,7 -11,12 0,1 -1,2 -2,3 -1,1 -2,1 -3,1l-10 0c-2,0 -3,-1 -4,-2 -1,-1 -2,-2 -2,-4 0,-4 2,-8 6,-14 3,-5 9,-9 17,-13 8,-4 17,-6 28,-6 20,0 34,4 42,13 8,9 12,21 12,34l0 84c0,2 0,3 -1,4 -1,1 -3,2 -4,2l-12 0c-2,0 -3,-1 -4,-2 -1,-1 -2,-2 -2,-4l0 -11c-3,5 -9,10 -16,14 -7,4 -17,6 -28,6zm5 -19c11,0 21,-4 28,-11 7,-8 11,-19 11,-33l0 -7 -30 4c-13,2 -22,5 -29,9 -6,4 -9,10 -9,16 0,7 3,12 9,16 5,4 12,6 20,6z"/>
   <path class="fil1" d="M1372 1288c-19,0 -34,-6 -44,-16 -10,-11 -16,-25 -16,-43l-1 -11 1 -11c0,-18 6,-32 16,-43 11,-11 25,-16 44,-16 19,0 33,5 43,16 11,11 16,25 17,43 1,3 1,7 1,11 0,3 0,7 -1,11 -1,18 -6,32 -16,43 -11,10 -25,16 -44,16zm0 -20c11,0 20,-3 26,-10 7,-7 10,-17 11,-30 0,-2 0,-5 0,-10 0,-5 0,-8 0,-10 -1,-13 -4,-23 -11,-30 -6,-7 -15,-11 -26,-11 -11,0 -20,4 -26,11 -7,7 -10,17 -11,30l0 10 0 10c1,13 4,23 11,30 6,7 15,10 26,10zm210 -53c0,1 1,4 1,8 0,3 -1,6 -1,7 0,17 -6,31 -16,42 -11,10 -25,16 -44,16 -19,0 -34,-6 -44,-17 -10,-11 -16,-26 -17,-45l0 -31c0,-25 4,-43 10,-56 7,-12 16,-21 28,-26 11,-6 31,-12 57,-19l7 -2 1 0c2,0 3,0 4,1 1,1 1,2 2,4l2 10 0 1c0,3 -1,4 -4,5 -2,1 -7,2 -14,4 -19,4 -34,8 -42,12 -9,3 -16,9 -20,16 -5,7 -8,19 -8,33 4,-6 10,-11 18,-15 7,-4 15,-6 24,-6 17,0 31,5 41,16 9,10 15,24 15,42zm-24 14c1,-2 1,-3 1,-6 0,-3 0,-5 -1,-7 0,-13 -3,-23 -9,-30 -7,-7 -15,-10 -25,-10 -11,0 -20,3 -27,10 -7,7 -11,17 -12,30l0 7 0 6c1,13 4,23 11,30 6,7 15,10 26,10 11,0 20,-3 26,-10 7,-7 10,-17 10,-30zm62 -71c-3,0 -5,-2 -5,-6l-4 -45 0 -1c0,-1 0,-3 1,-3 1,-1 2,-2 4,-2l16 0c2,0 3,1 4,2 1,1 2,3 1,4l-4 45c0,4 -2,6 -5,6l-8 0zm99 130c-19,0 -34,-6 -44,-16 -10,-10 -16,-25 -17,-44l0 -10 0 -11c1,-19 7,-33 17,-44 10,-10 25,-15 44,-15 12,0 22,2 30,6 8,4 14,9 19,16 4,6 6,12 7,19l0 1c0,1 -1,2 -2,3 -1,1 -2,2 -4,2l-10 0c-2,0 -3,-1 -4,-1 -1,-1 -2,-2 -2,-4 -4,-8 -8,-14 -14,-18 -5,-3 -12,-5 -20,-5 -11,0 -20,3 -27,10 -6,6 -10,17 -10,30l0 2 51 0c1,0 3,0 4,1 1,1 1,3 1,4l0 7c0,2 0,3 -1,4 -1,1 -3,2 -4,2l-51 0 0 1c0,14 4,24 10,31 7,6 16,9 27,9 8,0 15,-1 20,-5 6,-3 10,-9 14,-17 0,-2 1,-3 2,-4 1,-1 2,-1 3,-1l11 0c2,0 3,1 4,2 1,1 2,2 2,4 -1,6 -3,13 -7,19 -5,6 -11,12 -19,16 -8,4 -18,6 -30,6zm199 -10c1,1 1,2 1,3 0,3 -2,4 -5,4l-15 0c-2,0 -5,-1 -7,-4l-38 -54 -24 0 0 52c0,2 -1,3 -2,4 -1,1 -3,2 -4,2l-11 0c-2,0 -4,-1 -5,-2 -1,-1 -1,-2 -1,-4l0 -123c0,-1 0,-3 1,-4 1,-1 3,-1 5,-1l11 0c2,0 3,0 4,1 1,1 2,3 2,4l0 50 24 0 35 -52c2,-2 4,-3 7,-3l13 0c1,0 2,0 3,1 1,0 2,1 2,3 0,0 0,0 -1,1 0,1 0,1 0,2l-39 57 44 63zm68 7c-2,0 -3,-1 -5,-2 -1,-1 -1,-2 -1,-4l0 -109 -46 0c-1,0 -3,0 -4,-1 -1,-1 -2,-3 -2,-4l0 -9c0,-1 1,-3 2,-4 1,-1 3,-1 4,-1l114 0c2,0 3,0 4,1 1,1 2,3 2,4l0 9c0,1 -1,3 -2,4 -1,1 -2,1 -4,1l-45 0 0 109c0,2 -1,3 -2,4 -1,1 -2,2 -4,2l-11 0zm95 -160c-2,0 -4,0 -5,-2 -1,-1 -1,-2 -1,-4l0 -13c0,-2 0,-3 1,-5 1,-1 3,-1 5,-1l15 0c2,0 3,0 4,1 1,2 2,3 2,5l0 13c0,2 -1,3 -2,4 -1,2 -2,2 -4,2l-15 0zm2 160c-2,0 -3,-1 -5,-2 -1,-1 -1,-2 -1,-4l0 -123c0,-1 0,-3 1,-4 2,-1 3,-1 5,-1l11 0c2,0 3,0 4,1 1,1 2,3 2,4l0 123c0,2 -1,3 -2,4 -1,1 -2,2 -4,2l-11 0zm62 0c-2,0 -3,-1 -4,-2 -2,-1 -2,-2 -2,-4l0 -123c0,-1 0,-3 2,-4 1,-1 2,-1 4,-1l53 0c16,0 28,3 36,9 9,7 13,15 13,26 0,8 -2,14 -4,18 -3,4 -7,7 -13,10 6,3 11,7 14,13 4,6 6,13 6,20 0,12 -5,22 -13,28 -9,7 -21,10 -37,10l-55 0zm52 -77c8,0 15,-2 20,-6 5,-3 7,-9 7,-15 0,-12 -9,-18 -27,-18l-35 0 0 39 35 0zm1 59c9,0 16,-2 21,-5 5,-4 7,-9 7,-15 0,-7 -2,-12 -7,-16 -4,-3 -11,-4 -21,-4l-36 0 0 40 36 0zm-1989 294c-19,0 -34,-6 -44,-16 -11,-11 -16,-25 -17,-43l0 -11 0 -11c1,-18 7,-32 17,-43 10,-11 25,-16 44,-16 18,0 33,5 43,16 11,11 16,25 17,43 0,3 0,7 0,11 0,3 0,7 0,11 -1,18 -6,32 -17,43 -10,10 -24,16 -43,16zm0 -20c11,0 19,-3 26,-10 6,-7 10,-17 10,-30 0,-2 1,-5 1,-10 0,-5 -1,-8 -1,-10 0,-13 -4,-23 -10,-30 -7,-7 -15,-11 -26,-11 -11,0 -20,4 -27,11 -6,7 -10,17 -10,30l0 10 0 10c0,13 4,23 10,30 7,7 16,10 27,10zm87 17c-2,0 -3,0 -4,-1 -1,-2 -2,-3 -2,-4 0,-2 1,-4 2,-5l45 -59 -42 -55c-1,-2 -2,-4 -2,-5 0,-2 0,-3 2,-4 1,-1 2,-1 3,-1l13 0c2,0 5,1 6,4l35 45 35 -45c1,-2 2,-3 3,-3 1,-1 3,-1 4,-1l12 0c1,0 3,0 4,1 1,1 1,2 1,4 0,1 0,3 -2,5l-42 56 45 58c1,1 1,3 1,5 0,1 0,2 -1,4 -1,1 -2,1 -4,1l-13 0c-2,0 -4,-1 -6,-4l-37 -48 -37 48c-1,1 -2,2 -3,3 -1,1 -3,1 -4,1l-12 0zm200 3c-19,0 -34,-6 -44,-16 -11,-11 -16,-25 -17,-43l0 -11 0 -11c1,-18 6,-32 17,-43 10,-11 25,-16 44,-16 18,0 33,5 43,16 11,11 16,25 17,43 0,3 0,7 0,11 0,3 0,7 0,11 -1,18 -6,32 -17,43 -10,10 -25,16 -43,16zm0 -20c11,0 19,-3 26,-10 6,-7 10,-17 10,-30 0,-2 1,-5 1,-10 0,-5 -1,-8 -1,-10 0,-13 -4,-23 -10,-30 -7,-7 -15,-11 -26,-11 -12,0 -20,4 -27,11 -6,7 -10,17 -10,30l0 10 0 10c0,13 4,23 10,30 7,7 15,10 27,10zm99 66c-2,0 -3,0 -4,-1 -1,-1 -2,-3 -2,-5l0 -172c0,-1 1,-3 2,-4 1,-1 2,-1 4,-1l11 0c2,0 3,0 4,1 1,1 2,3 2,4l0 12c10,-13 24,-20 43,-20 18,0 31,6 40,17 9,12 14,26 15,44 0,2 0,5 0,9 0,4 0,7 0,9 -1,17 -6,32 -15,43 -9,12 -22,18 -40,18 -19,0 -33,-7 -42,-20l0 60c0,2 -1,3 -2,5 -1,1 -3,1 -4,1l-12 0zm55 -67c12,0 21,-3 27,-11 6,-8 9,-18 9,-31 0,-1 0,-4 0,-7 0,-33 -12,-50 -36,-50 -12,0 -21,4 -28,12 -6,8 -9,18 -9,28 0,2 -1,6 -1,11 0,4 1,8 1,10 0,10 3,19 10,27 6,8 15,11 27,11zm147 21c-19,0 -33,-6 -44,-16 -10,-11 -15,-25 -16,-43l0 -11 0 -11c1,-18 6,-32 17,-43 10,-11 25,-16 43,-16 19,0 33,5 44,16 10,11 16,25 16,43 1,3 1,7 1,11 0,3 0,7 -1,11 0,18 -6,32 -16,43 -10,10 -25,16 -44,16zm0 -20c11,0 20,-3 26,-10 7,-7 10,-17 11,-30 0,-2 0,-5 0,-10 0,-5 0,-8 0,-10 -1,-13 -4,-23 -11,-30 -6,-7 -15,-11 -26,-11 -11,0 -20,4 -26,11 -7,7 -10,17 -11,30l0 10 0 10c1,13 4,23 11,30 6,7 15,10 26,10zm100 17c-2,0 -4,-1 -5,-2 -1,-1 -1,-2 -1,-4l0 -123c0,-1 0,-3 1,-4 1,-1 3,-1 5,-1l11 0c2,0 3,0 4,1 1,1 2,3 2,4l0 50 71 0 0 -50c0,-1 1,-3 2,-4 1,-1 3,-1 4,-1l12 0c2,0 3,0 4,1 1,1 2,3 2,4l0 123c0,2 -1,3 -2,4 -1,1 -3,2 -4,2l-12 0c-1,0 -3,-1 -4,-2 -1,-1 -2,-2 -2,-4l0 -53 -71 0 0 53c0,2 -1,3 -2,4 -1,1 -2,2 -4,2l-11 0zm188 3c-9,0 -16,-2 -23,-6 -8,-3 -13,-8 -18,-14 -4,-6 -6,-12 -6,-19 0,-12 5,-21 14,-28 9,-8 22,-12 38,-15l39 -5 0 -8c0,-18 -10,-26 -31,-26 -8,0 -14,1 -19,4 -5,4 -8,7 -11,12 0,1 -1,2 -2,3 -1,1 -2,1 -3,1l-10 0c-2,0 -3,-1 -4,-2 -1,-1 -2,-2 -2,-4 0,-4 2,-8 6,-14 3,-5 9,-9 17,-13 8,-4 17,-6 28,-6 20,0 34,4 42,13 8,9 12,21 12,34l0 84c0,2 0,3 -1,4 -1,1 -3,2 -4,2l-12 0c-2,0 -3,-1 -4,-2 -1,-1 -2,-2 -2,-4l0 -11c-3,5 -9,10 -16,14 -7,4 -17,6 -28,6zm5 -19c11,0 21,-4 28,-11 7,-8 11,-19 11,-33l0 -7 -30 4c-13,2 -22,5 -29,9 -6,4 -9,10 -9,16 0,7 3,12 9,16 5,4 12,6 20,6zm295 -118c2,0 3,0 4,1 1,1 2,2 2,3l0 124c0,2 -1,3 -2,5 -1,1 -2,1 -4,1l-12 0c-2,0 -3,0 -4,-1 -1,-2 -2,-3 -2,-5l0 -86 -33 64c-1,2 -3,4 -4,5 -1,1 -2,2 -5,2l-6 0c-2,0 -4,-1 -5,-2 -1,-1 -2,-3 -4,-5l-33 -63 0 85c0,2 -1,3 -2,5 -1,1 -2,1 -4,1l-12 0c-1,0 -3,0 -4,-1 -1,-2 -1,-3 -1,-5l0 -124c0,-1 0,-2 1,-3 1,-1 2,-1 4,-1l12 0c3,0 5,1 6,4l45 83 45 -83c1,-3 3,-4 6,-4l12 0zm82 137c-9,0 -16,-2 -24,-6 -7,-3 -12,-8 -17,-14 -4,-6 -6,-12 -6,-19 0,-12 5,-21 14,-28 9,-8 22,-12 38,-15l39 -5 0 -8c0,-18 -10,-26 -31,-26 -8,0 -14,1 -19,4 -5,4 -8,7 -11,12 0,1 -1,2 -2,3 -1,1 -2,1 -3,1l-10 0c-2,0 -3,-1 -4,-2 -1,-1 -2,-2 -2,-4 0,-4 2,-8 6,-14 3,-5 9,-9 17,-13 8,-4 17,-6 28,-6 20,0 33,4 42,13 8,9 12,21 12,34l0 84c0,2 0,3 -1,4 -1,1 -3,2 -5,2l-11 0c-2,0 -3,-1 -4,-2 -1,-1 -2,-2 -2,-4l0 -11c-3,5 -9,10 -16,14 -7,4 -17,6 -28,6zm5 -19c11,0 21,-4 28,-11 7,-8 11,-19 11,-33l0 -7 -30 4c-13,2 -22,5 -29,9 -6,4 -9,10 -9,16 0,7 3,12 8,16 6,4 13,6 21,6zm154 19c-19,0 -33,-6 -43,-16 -11,-10 -16,-25 -17,-44l0 -10 0 -11c1,-18 6,-33 17,-43 10,-11 24,-16 43,-16 12,0 23,2 31,7 9,4 15,9 19,16 5,7 7,13 7,20 0,1 0,3 -2,4 -1,1 -2,2 -4,2l-11 0c-2,0 -3,-1 -4,-2 -1,0 -2,-2 -3,-4 -3,-8 -7,-14 -12,-18 -6,-3 -13,-5 -21,-5 -11,0 -20,3 -26,10 -6,7 -10,17 -10,31l0 9 0 9c0,14 4,24 10,31 6,6 15,10 26,10 8,0 15,-2 21,-6 5,-3 9,-9 12,-18 1,-2 2,-3 3,-4 1,-1 2,-1 4,-1l11 0c2,0 3,1 4,2 2,1 2,2 2,4 0,6 -2,13 -7,19 -4,7 -10,12 -19,17 -8,4 -19,7 -31,7zm143 0c-19,0 -34,-6 -44,-16 -10,-11 -16,-25 -16,-43l-1 -11 1 -11c0,-18 6,-32 16,-43 11,-11 25,-16 44,-16 18,0 33,5 43,16 11,11 16,25 17,43 0,3 1,7 1,11 0,3 -1,7 -1,11 -1,18 -6,32 -16,43 -11,10 -25,16 -44,16zm0 -20c11,0 20,-3 26,-10 7,-7 10,-17 11,-30 0,-2 0,-5 0,-10 0,-5 0,-8 0,-10 -1,-13 -4,-23 -11,-30 -6,-7 -15,-11 -26,-11 -11,0 -20,4 -26,11 -7,7 -10,17 -11,30l0 10 0 10c1,13 4,23 11,30 6,7 15,10 26,10zm99 17c-2,0 -3,-1 -4,-2 -1,-1 -2,-2 -2,-4l0 -123c0,-1 1,-3 2,-4 1,-1 2,-1 4,-1l54 0c15,0 27,3 36,9 8,7 12,15 12,26 0,8 -1,14 -4,18 -3,4 -7,7 -13,10 6,3 11,7 15,13 3,6 5,13 5,20 0,12 -4,22 -13,28 -9,7 -21,10 -36,10l-56 0zm52 -77c8,0 15,-2 20,-6 5,-3 8,-9 8,-15 0,-12 -10,-18 -28,-18l-35 0 0 39 35 0zm1 59c9,0 16,-2 21,-5 5,-4 8,-9 8,-15 0,-7 -3,-12 -7,-16 -5,-3 -12,-4 -22,-4l-36 0 0 40 36 0zm199 -116c2,0 3,0 4,1 1,1 2,2 2,4l0 123c0,2 -1,3 -2,4 -1,1 -2,2 -4,2l-11 0c-2,0 -4,-1 -5,-2 -1,-1 -1,-2 -1,-4l0 -95 -73 97c-2,3 -4,4 -7,4l-11 0c-1,0 -2,-1 -3,-2 -2,-1 -2,-2 -2,-3l0 -124c0,-1 0,-3 2,-4 1,-1 2,-1 4,-1l11 0c2,0 3,0 4,1 2,1 2,3 2,4l0 95 73 -97c2,-2 4,-3 6,-3l11 0zm38 134c-2,0 -3,0 -4,-1 -1,-2 -2,-3 -2,-4 0,-2 1,-4 2,-5l45 -59 -42 -55c-1,-2 -2,-4 -2,-5 0,-2 0,-3 2,-4 1,-1 2,-1 3,-1l13 0c2,0 5,1 6,4l35 45 35 -45c1,-2 2,-3 3,-3 1,-1 2,-1 4,-1l12 0c1,0 3,0 4,1 1,1 1,2 1,4 0,1 0,3 -2,5l-42 56 45 58c1,1 1,3 1,5 0,1 0,2 -1,4 -1,1 -2,1 -4,1l-13 0c-2,0 -4,-1 -6,-4l-37 -48 -37 48c-1,1 -2,2 -3,3 -1,1 -3,1 -4,1l-12 0zm-1915 276c-13,0 -23,-2 -31,-6 -8,-4 -14,-9 -18,-15 -4,-5 -6,-11 -6,-17 0,-1 1,-2 2,-3 1,-1 2,-2 4,-2l11 0c1,0 3,1 4,1 1,1 1,2 2,4 2,7 6,12 11,14 6,3 13,5 23,5 9,0 16,-2 22,-6 6,-4 9,-9 9,-16 0,-15 -9,-22 -26,-22l-14 0c-1,0 -3,-1 -4,-2 -1,-1 -1,-2 -1,-4l0 -6c0,-2 0,-3 1,-5 1,-1 3,-1 4,-1l13 0c15,0 22,-6 22,-18 0,-6 -2,-11 -7,-16 -4,-4 -11,-6 -21,-6 -10,0 -17,2 -21,5 -5,3 -8,8 -10,16 0,3 -3,4 -6,4l-11 0c-1,0 -2,0 -4,-1 -1,-1 -1,-2 -1,-3 0,-8 2,-14 6,-20 4,-6 10,-11 18,-15 8,-3 17,-5 29,-5 12,0 21,2 29,6 8,3 13,8 17,14 3,6 5,11 5,18 0,7 -1,12 -4,17 -2,4 -6,8 -12,11 8,3 13,7 16,13 3,5 5,13 5,21 0,13 -5,23 -16,29 -10,7 -24,11 -40,11z"/>
   <path class="fil1" d="M366 1834c-9,0 -17,-2 -24,-6 -7,-3 -13,-8 -17,-14 -4,-6 -6,-12 -6,-19 0,-12 4,-21 14,-28 9,-8 22,-12 38,-15l39 -5 0 -8c0,-18 -11,-26 -31,-26 -8,0 -14,1 -19,4 -5,4 -9,7 -11,12 -1,1 -1,2 -2,3 -1,1 -2,1 -3,1l-10 0c-2,0 -3,-1 -4,-2 -2,-1 -2,-2 -2,-4 0,-4 2,-8 5,-14 4,-5 10,-9 18,-13 7,-4 17,-6 28,-6 19,0 33,4 42,13 8,9 12,21 12,34l0 84c0,2 0,3 -2,4 -1,2 -2,2 -4,2l-11 0c-2,0 -3,0 -4,-2 -1,-1 -2,-2 -2,-4l0 -11c-4,5 -9,10 -16,14 -8,4 -17,6 -28,6zm5 -19c11,0 20,-4 28,-11 7,-8 11,-19 11,-33l0 -7 -31 4c-12,2 -21,5 -28,9 -6,4 -9,10 -9,16 0,7 2,12 8,16 6,4 13,6 21,6zm93 16c-1,0 -2,0 -3,-1 -1,-2 -2,-3 -2,-4 0,-2 1,-4 2,-5l45 -59 -42 -55c-2,-2 -2,-4 -2,-5 0,-2 0,-3 1,-4 1,-1 3,-1 4,-1l12 0c3,0 5,1 7,4l35 45 35 -45c1,-2 2,-3 3,-3 1,-1 2,-1 4,-1l12 0c1,0 2,0 3,1 1,1 2,2 2,4 0,1 -1,3 -2,5l-43 56 45 58c2,1 2,3 2,5 0,1 0,2 -1,4 -1,1 -3,1 -4,1l-13 0c-3,0 -5,-1 -7,-4l-37 -48 -37 48c-1,1 -2,2 -3,3 -1,1 -2,1 -3,1l-13 0zm200 3c-19,0 -33,-6 -44,-16 -10,-11 -15,-25 -16,-43l0 -11 0 -11c1,-18 6,-32 17,-43 10,-11 25,-16 43,-16 19,0 33,5 44,16 10,11 16,25 17,43 0,3 0,7 0,11 0,3 0,7 0,11 -1,18 -7,32 -17,43 -10,10 -25,16 -44,16zm0 -20c11,0 20,-3 26,-10 7,-7 10,-17 11,-30 0,-2 0,-5 0,-10 0,-5 0,-8 0,-10 -1,-13 -4,-23 -11,-30 -6,-7 -15,-11 -26,-11 -11,0 -20,4 -26,11 -7,7 -10,17 -11,30l0 10 0 10c1,13 4,23 11,30 6,7 15,10 26,10zm86 46c-2,0 -4,-1 -5,-2 -1,-1 -1,-3 -1,-4l0 -37c0,-2 0,-3 1,-4 1,-2 3,-2 5,-2l1 0c7,0 13,-6 16,-18 4,-12 6,-31 6,-57l0 -34c0,-1 0,-3 2,-4 1,-1 2,-1 4,-1l82 0c2,0 3,0 4,1 1,1 2,3 2,4l0 109 12 0c2,0 3,0 4,1 1,1 2,3 2,5l0 37c0,1 -1,3 -2,4 -1,1 -2,2 -4,2l-12 0c-1,0 -3,-1 -4,-2 -1,-1 -1,-3 -1,-4l0 -23 -95 0 0 23c0,1 -1,3 -2,4 -1,1 -2,2 -4,2l-11 0zm93 -49l0 -95 -47 0 0 22c0,35 -5,60 -15,73l62 0zm73 -140c-2,0 -3,0 -4,-2 -1,-1 -2,-2 -2,-4l0 -13c0,-2 1,-3 2,-5 1,-1 2,-1 4,-1l15 0c2,0 3,0 5,1 1,2 1,3 1,5l0 13c0,2 0,3 -1,4 -2,2 -3,2 -5,2l-15 0zm2 160c-2,0 -3,0 -4,-2 -1,-1 -2,-2 -2,-4l0 -123c0,-1 1,-3 2,-4 1,-1 2,-1 4,-1l11 0c2,0 4,0 5,1 1,1 1,3 1,4l0 123c0,2 0,3 -1,4 -1,2 -3,2 -5,2l-11 0zm62 0c-2,0 -3,0 -4,-2 -1,-1 -2,-2 -2,-4l0 -123c0,-1 1,-3 2,-4 1,-1 2,-1 4,-1l54 0c15,0 27,3 36,9 8,7 12,15 12,26 0,8 -1,14 -4,18 -3,4 -7,7 -13,10 6,3 11,7 15,13 3,6 5,13 5,20 0,12 -4,22 -13,28 -9,7 -21,10 -36,10l-56 0zm52 -77c8,0 15,-2 20,-6 5,-3 8,-9 8,-15 0,-12 -10,-18 -28,-18l-35 0 0 39 35 0zm1 59c9,0 16,-2 21,-5 5,-4 8,-9 8,-15 0,-7 -3,-12 -7,-15 -5,-4 -12,-5 -22,-5l-36 0 0 40 36 0zm-825 294c-19,0 -33,-6 -43,-16 -11,-10 -16,-25 -17,-44l0 -10 0 -11c1,-18 6,-33 17,-43 10,-11 24,-16 43,-16 12,0 23,2 31,7 9,4 15,9 19,16 5,7 7,13 7,20 0,1 0,3 -1,4 -2,1 -3,2 -5,2l-11 0c-2,0 -3,-1 -4,-2 -1,0 -2,-2 -3,-4 -3,-8 -7,-14 -12,-18 -6,-3 -13,-5 -21,-5 -11,0 -19,3 -26,10 -6,7 -10,17 -10,31l0 9 0 9c0,14 4,24 10,31 7,6 15,10 26,10 8,0 15,-2 21,-6 5,-3 9,-9 12,-18 1,-2 2,-3 3,-4 1,-1 2,-1 4,-1l11 0c2,0 3,1 5,2 1,1 1,2 1,4 0,6 -2,13 -7,19 -4,7 -10,12 -19,17 -8,4 -19,7 -31,7zm198 -137c1,0 2,0 3,1 2,1 2,2 2,4 0,0 0,2 -1,4l-50 117 -2 5c-5,11 -9,20 -12,27 -4,7 -9,13 -14,18 -6,5 -13,7 -20,7l-10 0c-2,0 -3,0 -4,-1 -1,-2 -2,-3 -2,-5l0 -8c0,-1 1,-3 2,-4 1,-1 2,-2 4,-2l7 0c3,0 7,0 9,-2 2,-2 5,-4 7,-8 2,-3 4,-8 7,-16l5 -10 -51 -118c-1,-2 -1,-3 -1,-4 0,-2 0,-3 1,-4 1,-1 3,-1 4,-1l12 0c2,0 5,1 6,4l40 95 40 -95c2,-3 4,-4 7,-4l11 0zm38 134c-2,0 -4,0 -5,-2 -1,-1 -1,-2 -1,-4l0 -123c0,-1 0,-3 1,-4 1,-1 3,-1 5,-1l101 0c2,0 4,0 5,1 1,1 1,3 1,4l0 123c0,2 0,3 -1,4 -1,2 -3,2 -5,2l-11 0c-2,0 -3,0 -4,-2 -1,-1 -2,-2 -2,-4l0 -109 -67 0 0 109c0,2 -1,3 -2,4 -1,2 -2,2 -4,2l-11 0zm153 49c-2,0 -3,0 -5,-1 -1,-1 -1,-3 -1,-5l0 -172c0,-1 0,-3 1,-4 2,-1 3,-1 5,-1l11 0c1,0 3,0 4,1 1,1 1,3 1,4l0 12c11,-13 25,-20 43,-20 18,0 32,6 41,17 9,12 14,26 14,44 0,2 1,5 1,9 0,4 -1,7 -1,9 0,17 -5,32 -14,43 -9,12 -23,18 -41,18 -18,0 -32,-7 -42,-20l0 60c0,2 0,3 -1,5 -2,1 -3,1 -5,1l-11 0zm54 -67c13,0 22,-3 27,-11 6,-8 9,-18 10,-31 0,-1 0,-4 0,-7 0,-33 -12,-50 -37,-50 -12,0 -21,4 -27,12 -6,8 -9,18 -10,28 0,2 0,6 0,11 0,4 0,8 0,10 1,10 4,19 10,27 7,8 16,11 27,11zm148 21c-19,0 -34,-6 -44,-16 -10,-11 -16,-25 -17,-43l0 -11 0 -11c1,-18 7,-32 17,-43 11,-11 25,-16 44,-16 18,0 33,5 43,16 11,11 16,25 17,43 0,3 1,7 1,11 0,3 -1,7 -1,11 -1,18 -6,32 -16,43 -11,10 -25,16 -44,16zm0 -20c11,0 20,-3 26,-10 6,-7 10,-17 11,-30 0,-2 0,-5 0,-10 0,-5 0,-8 0,-10 -1,-13 -5,-23 -11,-30 -6,-7 -15,-11 -26,-11 -11,0 -20,4 -27,11 -6,7 -9,17 -10,30l0 10 0 10c1,13 4,23 10,30 7,7 16,10 27,10zm99 17c-2,0 -3,0 -4,-2 -1,-1 -2,-2 -2,-4l0 -123c0,-1 1,-3 2,-4 1,-1 2,-1 4,-1l54 0c15,0 27,3 36,9 8,7 12,15 12,26 0,8 -1,14 -4,18 -3,4 -7,8 -13,10 6,3 11,7 15,13 3,6 5,13 5,20 0,12 -4,22 -13,28 -9,7 -21,10 -37,10l-55 0zm52 -77c8,0 15,-2 20,-6 5,-3 8,-9 8,-15 0,-12 -10,-18 -28,-18l-35 0 0 39 35 0zm1 59c9,0 16,-2 21,-5 5,-4 8,-9 8,-15 0,-7 -3,-12 -7,-15 -5,-4 -12,-5 -22,-5l-36 0 0 40 36 0zm90 -142c-2,0 -3,0 -5,-2 -1,-1 -1,-2 -1,-4l0 -13c0,-2 0,-3 1,-5 2,-1 3,-1 5,-1l15 0c2,0 3,0 4,1 2,2 2,3 2,5l0 13c0,2 0,3 -2,4 -1,2 -2,2 -4,2l-15 0zm2 160c-2,0 -3,0 -5,-2 -1,-1 -1,-2 -1,-4l0 -123c0,-1 0,-3 1,-4 2,-1 3,-1 5,-1l11 0c2,0 3,0 4,1 2,1 2,3 2,4l0 123c0,2 0,3 -2,4 -1,2 -2,2 -4,2l-11 0zm48 29c-2,0 -3,-1 -4,-2 -1,-1 -2,-3 -2,-4l0 -37c0,-2 1,-3 2,-4 1,-2 2,-2 4,-2l1 0c7,0 13,-6 17,-18 3,-12 5,-31 5,-57l0 -34c0,-1 1,-3 2,-4 1,-1 2,-1 4,-1l82 0c2,0 3,0 4,1 1,1 2,3 2,4l0 109 12 0c2,0 3,0 4,1 1,1 2,3 2,5l0 37c0,1 -1,3 -2,4 -1,1 -2,2 -4,2l-11 0c-2,0 -3,-1 -5,-2 -1,-1 -1,-3 -1,-4l0 -23 -95 0 0 23c0,1 0,3 -1,4 -2,1 -3,2 -5,2l-11 0zm94 -49l0 -95 -48 0 0 22c0,35 -5,60 -15,73l63 0zm138 20c-2,0 -3,0 -4,-2 -1,-1 -2,-2 -2,-4l0 -123c0,-1 1,-3 2,-4 1,-1 2,-1 4,-1l54 0c15,0 27,3 35,9 9,7 13,15 13,26 0,8 -1,14 -4,18 -3,4 -7,8 -13,10 6,3 11,7 14,13 4,6 6,13 6,20 0,12 -5,22 -13,28 -9,7 -21,10 -37,10l-55 0zm52 -77c8,0 15,-2 20,-6 5,-3 7,-9 7,-15 0,-12 -9,-18 -27,-18l-35 0 0 39 35 0zm1 59c9,0 16,-2 21,-5 5,-4 7,-9 7,-15 0,-7 -2,-12 -6,-15 -5,-4 -12,-5 -22,-5l-36 0 0 40 36 0zm123 21c-9,0 -16,-2 -23,-6 -8,-3 -13,-8 -18,-14 -4,-6 -6,-12 -6,-19 0,-12 5,-21 14,-28 9,-8 22,-12 38,-15l39 -5 0 -8c0,-18 -10,-26 -31,-26 -8,0 -14,1 -19,4 -5,4 -8,7 -11,12 0,1 -1,2 -2,3 -1,1 -2,1 -3,1l-10 0c-2,0 -3,-1 -4,-2 -1,-1 -2,-2 -2,-4 0,-4 2,-8 6,-14 3,-5 9,-9 17,-13 8,-4 17,-6 28,-6 20,0 34,4 42,13 8,9 12,21 12,34l0 84c0,2 0,3 -1,4 -1,2 -3,2 -4,2l-12 0c-2,0 -3,0 -4,-2 -1,-1 -2,-2 -2,-4l0 -11c-3,5 -9,10 -16,14 -7,4 -17,6 -28,6zm5 -19c11,0 21,-4 28,-11 7,-8 11,-19 11,-33l0 -7 -30 4c-13,2 -22,5 -29,9 -6,4 -9,10 -9,16 0,7 3,12 9,16 5,4 12,6 20,6zm106 16c-2,0 -3,0 -4,-2 -1,-1 -2,-2 -2,-4l0 -123c0,-1 1,-3 2,-4 1,-1 2,-1 4,-1l11 0c2,0 3,0 5,1 1,1 1,3 1,4l0 50 72 0 0 -50c0,-1 0,-3 1,-4 1,-1 3,-1 5,-1l11 0c2,0 3,0 4,1 1,1 2,3 2,4l0 123c0,2 -1,3 -2,4 -1,2 -2,2 -4,2l-11 0c-2,0 -4,0 -5,-2 -1,-1 -1,-2 -1,-4l0 -53 -72 0 0 53c0,2 0,3 -1,4 -2,2 -3,2 -5,2l-11 0zm192 0c-2,0 -3,0 -4,-2 -1,-1 -2,-2 -2,-4l0 -109 -45 0c-2,0 -3,0 -4,-1 -1,-1 -2,-3 -2,-4l0 -9c0,-1 1,-3 2,-4 1,-1 2,-1 4,-1l114 0c1,0 3,0 4,1 1,1 1,3 1,4l0 9c0,1 0,3 -1,4 -1,1 -3,1 -4,1l-46 0 0 109c0,2 0,3 -1,4 -2,2 -3,2 -5,2l-11 0zm129 3c-9,0 -17,-2 -24,-6 -7,-3 -13,-8 -17,-14 -4,-6 -6,-12 -6,-19 0,-12 4,-21 14,-28 9,-8 22,-12 38,-15l39 -5 0 -8c0,-18 -11,-26 -31,-26 -8,0 -15,1 -19,4 -5,4 -9,7 -11,12 -1,1 -1,2 -2,3 -1,1 -2,1 -3,1l-11 0c-1,0 -2,-1 -4,-2 -1,-1 -1,-2 -1,-4 0,-4 2,-8 5,-14 4,-5 10,-9 18,-13 7,-4 17,-6 28,-6 19,0 33,4 42,13 8,9 12,21 12,34l0 84c0,2 -1,3 -2,4 -1,2 -2,2 -4,2l-11 0c-2,0 -3,0 -4,-2 -1,-1 -2,-2 -2,-4l0 -11c-4,5 -9,10 -17,14 -7,4 -16,6 -27,6zm5 -19c11,0 20,-4 28,-11 7,-8 11,-19 11,-33l0 -7 -31 4c-12,2 -22,5 -28,9 -6,4 -10,10 -10,16 0,7 3,12 9,16 6,4 13,6 21,6zm278 9c1,1 1,2 1,3 0,1 0,2 -1,3 -1,1 -2,1 -4,1l-15 0c-1,0 -2,0 -3,-1 -1,-1 -2,-2 -3,-3l-38 -55 -20 0 0 53c0,2 -1,3 -2,4 -1,2 -3,2 -4,2l-12 0c-1,0 -3,0 -4,-2 -1,-1 -1,-2 -1,-4l0 -53 -21 0 -38 55c-2,3 -4,4 -7,4l-15 0c-1,0 -3,0 -3,-1 -1,-1 -2,-2 -2,-3 0,-1 1,-2 1,-3l45 -63 -39 -57c-1,-1 -1,-2 -1,-3 0,-2 0,-3 1,-3 1,-1 2,-1 4,-1l12 0c3,0 5,1 7,3l35 52 21 0 0 -50c0,-1 0,-3 1,-4 1,-1 3,-1 4,-1l12 0c1,0 3,0 4,1 1,1 2,3 2,4l0 50 19 0 35 -52c2,-2 4,-3 7,-3l13 0c1,0 3,0 4,1 1,0 1,1 1,3 0,0 0,1 -1,3l-39 57 44 63zm31 -153c-2,0 -4,0 -5,-2 -1,-1 -1,-2 -1,-4l0 -13c0,-2 0,-3 1,-5 1,-1 3,-1 5,-1l15 0c2,0 3,0 4,1 2,2 2,3 2,5l0 13c0,2 0,3 -2,4 -1,2 -2,2 -4,2l-15 0zm2 160c-2,0 -3,0 -5,-2 -1,-1 -1,-2 -1,-4l0 -123c0,-1 0,-3 1,-4 2,-1 3,-1 5,-1l11 0c2,0 3,0 4,1 1,1 2,3 2,4l0 123c0,2 -1,3 -2,4 -1,2 -2,2 -4,2l-11 0zm62 0c-2,0 -3,0 -4,-2 -2,-1 -2,-2 -2,-4l0 -123c0,-1 0,-3 2,-4 1,-1 2,-1 4,-1l53 0c16,0 28,3 36,9 9,7 13,15 13,26 0,8 -2,14 -4,18 -3,4 -7,8 -13,10 6,3 11,7 14,13 4,6 6,13 6,20 0,12 -5,22 -13,28 -9,7 -21,10 -37,10l-55 0zm52 -77c8,0 15,-2 20,-6 5,-3 7,-9 7,-15 0,-12 -9,-18 -27,-18l-35 0 0 39 35 0zm1 59c9,0 16,-2 21,-5 5,-4 7,-9 7,-15 0,-7 -2,-12 -7,-15 -4,-4 -11,-5 -21,-5l-36 0 0 40 36 0z"/>
  </g>
 </g>
</svg>
